{
.appVersion = "1284";
classes = (
{
automatic = 1;
code = "alef-ar alef-ar.fina alefHamzaabove-ar alefHamzaabove-ar.fina alefHamzabelow-ar alefHamzabelow-ar.fina alefMadda-ar alefMadda-ar.fina alefMaksura-ar alefWasla-ar alefWasla-ar.fina dal-ar dal-ar.fina ddal-ar hehgoalHamzaabove-ar jeh-ar lam_alef-ar lam_alef-ar.fina lam_alefHamzaabove-ar lam_alefHamzaabove-ar.fina lam_alefHamzabelow-ar lam_alefHamzabelow-ar.fina lam_alefMadda-ar lam_alefMadda-ar.fina lam_alefWasla-ar lam_alefWasla-ar.fina noonghunna-ar noonghunna-ar.fina reh-ar reh-ar.fina rreh-ar tehMarbuta-ar tehMarbutagoal-ar thal-ar thal-ar.fina waw-ar waw-ar.fina wawHamzaabove-ar wawHamzaabove-ar.fina zain-ar zain-ar.fina";
name = ArabicLetters;
notes = "lamDoublebar-ar";
}
);
copyright = "Copyright 2020 Google LLC. All Rights Reserved.";
customParameters = (
{
name = Axes;
value = (
{
Name = Weight;
Tag = wght;
},
{
Name = Width;
Tag = wdth;
}
);
},
{
name = trademark;
value = "Noto is a trademark of Google LLC.";
},
{
name = description;
value = "Designed by Mohamad Dakak";
},
{
name = license;
value = "This Font Software is licensed under the SIL Open Font License, Version 1.1. This license is available with a FAQ at: http://scripts.sil.org/OFL";
},
{
name = licenseURL;
value = "http://scripts.sil.org/OFL";
},
{
name = fsType;
value = (
);
},
{
name = vendorID;
value = GOOG;
},
{
name = versionString;
value = "Version 2.500";
},
{
name = unicodeRanges;
value = (
0,
1,
6,
13,
31,
45,
63,
67
);
},
{
name = "Has WWS Names";
value = 1;
}
);
date = "2020-03-02 09:54:51 +0000";
designer = "Mohamad Dakak (based on work by Nadine Chahine - Monotype Design Team)";
designerURL = "mhmd.dakak@gmail.com";
disablesNiceNames = 1;
familyName = "Noto Sans Arabic";
featurePrefixes = (
{
code = "languagesystem DFLT dflt;\012languagesystem arab dflt;\012languagesystem arab URD;\012";
name = Languagesystems;
}
);
features = (
{
automatic = 1;

glyphs = (
{
glyphname = "hamza-ar";
lastChange = "2020-02-28 10:14:21 +0000";
layers = (
{
anchors = (
{
name = bottom;
position = "{224, -67}";
},
{
name = top;
position = "{219, 443}";
}
);
background = {
anchors = (
{
name = bottom;
position = "{226, -96}";
},
{
name = top;
position = "{216, 488}";
}
);
paths = (
{
closed = 1;
nodes = (
"147 -54 OFFCURVE",
"309 -28 OFFCURVE",
"443 -6 CURVE",
"435 144 LINE",
"382 139 OFFCURVE",
"327 131 OFFCURVE",
"273 131 CURVE SMOOTH",
"211 131 OFFCURVE",
"183 159 OFFCURVE",
"183 192 CURVE SMOOTH",
"183 234 OFFCURVE",
"216 255 OFFCURVE",
"267 255 CURVE SMOOTH",
"303 255 OFFCURVE",
"340 248 OFFCURVE",
"375 237 CURVE",
"393 374 LINE",
"355 395 OFFCURVE",
"307 410 OFFCURVE",
"248 410 CURVE SMOOTH",
"120 410 OFFCURVE",
"32 327 OFFCURVE",
"32 211 CURVE SMOOTH",
"32 111 OFFCURVE",
"91 64 OFFCURVE",
"166 24 CURVE",
"177 108 LINE",
"123 97 OFFCURVE",
"47 80 OFFCURVE",
"-8 65 CURVE",
"14 -83 LINE"
);
}
);
};
layerId = "A2AC38AA-6CC4-4B2B-B5AB-64A49772F2D3";
paths = (
{
closed = 1;
nodes = (
"139 -9 OFFCURVE",
"320 19 OFFCURVE",
"419 37 CURVE",
"416 62 LINE",
"343 49 OFFCURVE",
"281 37 OFFCURVE",
"239 37 CURVE SMOOTH",
"146 37 OFFCURVE",
"85 97 OFFCURVE",
"85 178 CURVE SMOOTH",
"85 273 OFFCURVE",
"153 337 OFFCURVE",
"250 337 CURVE SMOOTH",
"295 337 OFFCURVE",
"329 329 OFFCURVE",
"363 316 CURVE",
"368 338 LINE",
"338 351 OFFCURVE",
"299 361 OFFCURVE",
"252 361 CURVE SMOOTH",
"136 361 OFFCURVE",
"60 283 OFFCURVE",
"60 179 CURVE SMOOTH",
"60 77 OFFCURVE",
"134 23 OFFCURVE",
"208 16 CURVE",
"207 27 LINE",
"151 17 OFFCURVE",
"90 5 OFFCURVE",
"22 -9 CURVE",
"26 -34 LINE"
);
}
);
width = 436;
},
{
anchors = (
{
name = bottom;
position = "{258, -51}";
},
{
name = top;
position = "{248, 533}";
}
);
layerId = "8594390A-478C-48BC-BAB2-0B8797A53DFB";
paths = (
{
closed = 1;
nodes = (
"179 -9 OFFCURVE",
"341 17 OFFCURVE",
"475 39 CURVE",
"467 189 LINE",
"414 184 OFFCURVE",
"359 176 OFFCURVE",
"305 176 CURVE SMOOTH",
"243 176 OFFCURVE",
"215 204 OFFCURVE",
"215 237 CURVE SMOOTH",
"215 279 OFFCURVE",
"248 300 OFFCURVE",
"299 300 CURVE SMOOTH",
"335 300 OFFCURVE",
"372 293 OFFCURVE",
"407 282 CURVE",
"425 419 LINE",
"387 440 OFFCURVE",
"339 455 OFFCURVE",
"280 455 CURVE SMOOTH",
"152 455 OFFCURVE",
"64 372 OFFCURVE",
"64 256 CURVE SMOOTH",
"64 156 OFFCURVE",
"123 109 OFFCURVE",
"198 69 CURVE",
"209 153 LINE",
"155 142 OFFCURVE",
"79 125 OFFCURVE",
"24 110 CURVE",
"46 -38 LINE"
);
}
);
width = 493;
},
{
anchors = (
{
name = bottom;
position = "{237, -61}";
},
{
name = top;
position = "{230, 478}";
}
);
layerId = "5223E25A-A738-4F2F-8413-8856B096DF64";
paths = (
{
closed = 1;
nodes = (
"155 -9 OFFCURVE",
"332 19 OFFCURVE",
"445 39 CURVE",
"436 112 LINE",
"371 102 OFFCURVE",
"311 91 OFFCURVE",
"265 91 CURVE SMOOTH",
"182 91 OFFCURVE",
"140 141 OFFCURVE",
"140 205 CURVE SMOOTH",
"140 281 OFFCURVE",
"193 323 OFFCURVE",
"272 323 CURVE SMOOTH",
"314 323 OFFCURVE",
"346 315 OFFCURVE",
"380 303 CURVE",
"390 370 LINE",
"357 386 OFFCURVE",
"318 398 OFFCURVE",
"266 398 CURVE SMOOTH",
"145 398 OFFCURVE",
"62 318 OFFCURVE",
"62 209 CURVE SMOOTH",
"62 108 OFFCURVE",
"128 53 OFFCURVE",
"202 33 CURVE",
"208 76 LINE",
"153 66 OFFCURVE",
"86 52 OFFCURVE",
"23 37 CURVE",
"34 -36 LINE"
);
}
);
width = 458;
},
{
anchors = (
{
name = bottom;
position = "{206, -51}";
},
{
name = top;
position = "{198, 533}";
}
);
layerId = "E5C955C8-F661-4960-B659-F2A3D2582D0D";
paths = (
{
closed = 1;
nodes = (
"146 -10 OFFCURVE",
"279 17 OFFCURVE",
"380 34 CURVE",
"374 188 LINE",
"331 182 OFFCURVE",
"302 176 OFFCURVE",
"259 176 CURVE SMOOTH",
"209 176 OFFCURVE",
"191 204 OFFCURVE",
"191 237 CURVE SMOOTH",
"191 279 OFFCURVE",
"212 300 OFFCURVE",
"257 300 CURVE SMOOTH",
"286 300 OFFCURVE",
"305 294 OFFCURVE",
"332 285 CURVE",
"344 427 LINE",
"317 443 OFFCURVE",
"278 455 OFFCURVE",
"230 455 CURVE SMOOTH",
"128 455 OFFCURVE",
"45 377 OFFCURVE",
"45 257 CURVE SMOOTH",
"45 168 OFFCURVE",
"91 101 OFFCURVE",
"158 69 CURVE",
"167 153 LINE",
"124 142 OFFCURVE",
"63 126 OFFCURVE",
"19 113 CURVE",
"37 -38 LINE"
);
}
);
width = 394;
},
{
anchors = (
{
name = bottom;
position = "{179, -67}";
},
{
name = top;
position = "{175, 443}";
}
);
layerId = "E67DA94D-AF90-4AFA-8684-14D1F5822449";
paths = (
{
closed = 1;
nodes = (
"111 -9 OFFCURVE",
"256 19 OFFCURVE",
"335 37 CURVE",
"333 62 LINE",
"274 49 OFFCURVE",
"226 37 OFFCURVE",
"192 37 CURVE SMOOTH",
"118 37 OFFCURVE",
"72 107 OFFCURVE",
"72 188 CURVE SMOOTH",
"72 283 OFFCURVE",
"122 337 OFFCURVE",
"200 337 CURVE SMOOTH",
"236 337 OFFCURVE",
"263 328 OFFCURVE",
"290 316 CURVE",
"295 338 LINE",
"272 351 OFFCURVE",
"239 361 OFFCURVE",
"202 361 CURVE SMOOTH",
"109 361 OFFCURVE",
"48 293 OFFCURVE",
"48 189 CURVE SMOOTH",
"48 87 OFFCURVE",
"107 23 OFFCURVE",
"166 16 CURVE",
"166 27 LINE",
"121 17 OFFCURVE",
"72 6 OFFCURVE",
"18 -8 CURVE",
"21 -34 LINE"
);
}
);
width = 349;
},
{
anchors = (
{
name = bottom;
position = "{190, -61}";
},
{
name = top;
position = "{184, 478}";
}
);
layerId = "2F00052B-4CEF-4C35-9869-AAD90889B4C2";
paths = (
{
closed = 1;
nodes = (
"124 -9 OFFCURVE",
"266 19 OFFCURVE",
"356 39 CURVE",
"349 112 LINE",
"297 102 OFFCURVE",
"249 91 OFFCURVE",
"212 91 CURVE SMOOTH",
"148 91 OFFCURVE",
"120 145 OFFCURVE",
"120 209 CURVE SMOOTH",
"120 285 OFFCURVE",
"154 323 OFFCURVE",
"218 323 CURVE SMOOTH",
"251 323 OFFCURVE",
"277 315 OFFCURVE",
"304 303 CURVE",
"312 370 LINE",
"286 386 OFFCURVE",
"254 398 OFFCURVE",
"213 398 CURVE SMOOTH",
"116 398 OFFCURVE",
"48 318 OFFCURVE",
"48 209 CURVE SMOOTH",
"48 108 OFFCURVE",
"98 53 OFFCURVE",
"158 33 CURVE",
"166 76 LINE",
"122 66 OFFCURVE",
"69 52 OFFCURVE",
"18 37 CURVE",
"27 -36 LINE"
);
}
);
width = 366;
}
);
unicode = 0621;
},
{
glyphname = "alef-ar";
lastChange = "2020-02-25 17:34:58 +0000";
layers = (
{
anchors = (
{
name = bottom;
position = "{141, -111}";
},
{
name = bottom.dot;
position = "{141, -20}";
},
{
name = top;
position = "{123, 735}";
}
);
guideLines = (
{
position = "{-804, 280}";
}
);
layerId = "A2AC38AA-6CC4-4B2B-B5AB-64A49772F2D3";
paths = (
{
closed = 1;
nodes = (
"153 0 LINE",
"133 714 LINE",
"109 714 LINE",
"129 0 LINE"
);
}
);
width = 264;
},
{
anchors = (
{
name = bottom;
position = "{158, -111}";
},
{
name = bottom.dot;
position = "{158, -10}";
},
{
name = top;
position = "{143, 788}";
}
);
layerId = "8594390A-478C-48BC-BAB2-0B8797A53DFB";
paths = (
{
closed = 1;
nodes = (
"242 0 LINE",
"221 760 LINE",
"60 760 LINE",
"81 0 LINE"
);
}
);
width = 302;
},
{
anchors = (
{
name = bottom;
position = "{148, -111}";
},
{
name = bottom.dot;
position = "{148, -16}";
},
{
name = top;
position = "{131, 756}";
}
);
layerId = "5223E25A-A738-4F2F-8413-8856B096DF64";
paths = (
{
closed = 1;
nodes = (
"188 0 LINE",
"167 732 LINE",
"90 732 LINE",
"110 0 LINE"
);
}
);
width = 279;
},
{
anchors = (
{
name = bottom;
position = "{126, -111}";
},
{
name = bottom.dot;
position = "{126, -10}";
},
{
name = top;
position = "{114, 788}";
}
);
layerId = "E5C955C8-F661-4960-B659-F2A3D2582D0D";
paths = (
{
closed = 1;
nodes = (
"202 0 LINE",
"185 760 LINE",
"39 760 LINE",
"56 0 LINE"
);
}
);
width = 241;
},
{
anchors = (
{
name = bottom;
position = "{113, -111}";
},
{
name = bottom.dot;
position = "{113, -20}";
},
{
name = top;
position = "{98, 735}";
}
);
layerId = "E67DA94D-AF90-4AFA-8684-14D1F5822449";
paths = (
{
closed = 1;
nodes = (
"125 0 LINE",
"109 714 LINE",
"85 714 LINE",
"101 0 LINE"
);
}
);
width = 211;
},
{
anchors = (
{
name = bottom;
position = "{118, -111}";
},
{
name = bottom.dot;
position = "{118, -16}";
},
{
name = top;
position = "{105, 756}";
}
);
layerId = "2F00052B-4CEF-4C35-9869-AAD90889B4C2";
paths = (
{
closed = 1;
nodes = (
"155 0 LINE",
"139 732 LINE",
"67 732 LINE",
"83 0 LINE"
);
}
);
width = 223;
}
);
leftKerningGroup = alef;
unicode = 0627;
},
{
glyphname = "alef-ar.fina";
lastChange = "2020-02-29 20:11:13 +0000";
layers = (
{
anchors = (
{
name = bottom;
position = "{161, -111}";
},
{
name = bottom.dot;
position = "{161, -21}";
},
{
name = top;
position = "{123, 735}";
}
);
layerId = "A2AC38AA-6CC4-4B2B-B5AB-64A49772F2D3";
paths = (
{
closed = 1;
nodes = (
"329 -5 OFFCURVE",
"335 3 OFFCURVE",
"335 9 CURVE SMOOTH",
"335 15 OFFCURVE",
"332 21 OFFCURVE",
"324 21 CURVE",
"212 21 OFFCURVE",
"159 68 OFFCURVE",
"154 196 CURVE SMOOTH",
"133 714 LINE",
"109 714 LINE",
"130 184 LINE SMOOTH",
"135 63 OFFCURVE",
"190 -5 OFFCURVE",
"321 -5 CURVE"
);
}
);
width = 321;
},
{
anchors = (
{
name = bottom;
position = "{172, -111}";
},
{
name = bottom.dot;
position = "{172, -11}";
},
{
name = top;
position = "{145, 788}";
}
);
layerId = "8594390A-478C-48BC-BAB2-0B8797A53DFB";
paths = (
{
closed = 1;
nodes = (
"399 -10 OFFCURVE",
"432 30 OFFCURVE",
"432 81 CURVE SMOOTH",
"432 126 OFFCURVE",
"406 170 OFFCURVE",
"342 170 CURVE SMOOTH",
"261 170 OFFCURVE",
"247 191 OFFCURVE",
"243 271 CURVE SMOOTH",
"220 760 LINE",
"60 760 LINE",
"83 221 LINE SMOOTH",
"89 83 OFFCURVE",
"149 -10 OFFCURVE",
"332 -10 CURVE SMOOTH"
);
}
);
width = 332;
},
{
anchors = (
{
name = bottom;
position = "{166, -111}";
},
{
name = bottom.dot;
position = "{166, -17}";
},
{
name = top;
position = "{132, 756}";
}
);
layerId = "5223E25A-A738-4F2F-8413-8856B096DF64";
paths = (
{
closed = 1;
nodes = (
"357 -7 OFFCURVE",
"373 14 OFFCURVE",
"373 37 CURVE SMOOTH",
"373 58 OFFCURVE",
"361 79 OFFCURVE",
"332 79 CURVE",
"232 79 OFFCURVE",
"193 116 OFFCURVE",
"189 225 CURVE SMOOTH",
"167 732 LINE",
"90 732 LINE",
"112 198 LINE SMOOTH",
"118 71 OFFCURVE",
"175 -7 OFFCURVE",
"326 -7 CURVE"
);
}
);
width = 326;
},
{
anchors = (
{
name = bottom;
position = "{138, -111}";
},
{
name = bottom.dot;
position = "{138, -11}";
},
{
name = top;
position = "{116, 788}";
}
);
layerId = "E5C955C8-F661-4960-B659-F2A3D2582D0D";
paths = (
{
closed = 1;
nodes = (
"314 -10 OFFCURVE",
"341 30 OFFCURVE",
"341 81 CURVE SMOOTH",
"341 126 OFFCURVE",
"320 170 OFFCURVE",
"269 170 CURVE SMOOTH",
"209 170 OFFCURVE",
"206 191 OFFCURVE",
"203 271 CURVE SMOOTH",
"185 760 LINE",
"39 760 LINE",
"57 221 LINE SMOOTH",
"62 83 OFFCURVE",
"114 -10 OFFCURVE",
"261 -10 CURVE SMOOTH"
);
}
);
width = 261;
},
{
anchors = (
{
name = bottom;
position = "{129, -111}";
},
{
name = bottom.dot;
position = "{129, -21}";
},
{
name = top;
position = "{98, 735}";
}
);
layerId = "E67DA94D-AF90-4AFA-8684-14D1F5822449";
paths = (
{
closed = 1;
nodes = (
"261 -5 OFFCURVE",
"266 3 OFFCURVE",
"266 9 CURVE SMOOTH",
"266 15 OFFCURVE",
"264 21 OFFCURVE",
"257 21 CURVE",
"168 21 OFFCURVE",
"129 68 OFFCURVE",
"125 196 CURVE SMOOTH",
"109 714 LINE",
"85 714 LINE",
"102 184 LINE SMOOTH",
"106 63 OFFCURVE",
"150 -5 OFFCURVE",
"255 -5 CURVE"
);
}
);
width = 254;
},
{
anchors = (
{
name = bottom;
position = "{133, -111}";
},
{
name = bottom.dot;
position = "{133, -17}";
},
{
name = top;
position = "{106, 756}";
}
);
layerId = "2F00052B-4CEF-4C35-9869-AAD90889B4C2";
paths = (
{
closed = 1;
nodes = (
"286 -7 OFFCURVE",
"298 14 OFFCURVE",
"298 37 CURVE SMOOTH",
"298 58 OFFCURVE",
"289 79 OFFCURVE",
"266 79 CURVE",
"186 79 OFFCURVE",
"160 116 OFFCURVE",
"156 225 CURVE SMOOTH",
"139 732 LINE",
"67 732 LINE",
"85 198 LINE SMOOTH",
"89 71 OFFCURVE",
"140 -7 OFFCURVE",
"261 -7 CURVE"
);
}
);
width = 260;
}
);
leftMetricsKey = "alef-ar";
rightMetricsKey = _part.instroke;
unicode = FE8E;
},
{
glyphname = "alef-ar.fina.wide";
lastChange = "2020-02-26 20:51:00 +0000";
layers = (
{
anchors = (
{
name = bottom;
position = "{161, -111}";
},
{
name = bottom.dot;
position = "{161, -21}";
},
{
name = top;
position = "{122, 735}";
}
);
layerId = "A2AC38AA-6CC4-4B2B-B5AB-64A49772F2D3";
paths = (
{
closed = 1;
nodes = (
"409 -5 OFFCURVE",
"415 3 OFFCURVE",
"415 9 CURVE SMOOTH",
"415 15 OFFCURVE",
"412 21 OFFCURVE",
"404 21 CURVE",
"209 21 OFFCURVE",
"158 82 OFFCURVE",
"153 216 CURVE SMOOTH",
"133 714 LINE",
"109 714 LINE",
"129 204 LINE SMOOTH",
"134 73 OFFCURVE",
"190 -5 OFFCURVE",
"401 -5 CURVE"
);
}
);
width = 401;
},
{
anchors = (
{
name = bottom;
position = "{172, -111}";
},
{
name = bottom.dot;
position = "{172, -20}";
},
{
name = top;
position = "{145, 788}";
}
);
layerId = "8594390A-478C-48BC-BAB2-0B8797A53DFB";
paths = (
{
closed = 1;
nodes = (
"553 -10 OFFCURVE",
"586 30 OFFCURVE",
"586 81 CURVE SMOOTH",
"586 126 OFFCURVE",
"560 170 OFFCURVE",
"496 170 CURVE SMOOTH",
"302 170 OFFCURVE",
"250 211 OFFCURVE",
"243 341 CURVE SMOOTH",
"220 760 LINE",
"60 760 LINE",
"81 301 LINE SMOOTH",
"89 123 OFFCURVE",
"153 -10 OFFCURVE",
"486 -10 CURVE SMOOTH"
);
}
);
width = 486;
},
{
anchors = (
{
name = bottom;
position = "{166, -111}";
},
{
name = bottom.dot;
position = "{166, -21}";
},
{
name = top;
position = "{132, 756}";
}
);
layerId = "5223E25A-A738-4F2F-8413-8856B096DF64";
paths = (
{
closed = 1;
nodes = (
"466 -7 OFFCURVE",
"482 14 OFFCURVE",
"482 37 CURVE SMOOTH",
"482 58 OFFCURVE",
"470 79 OFFCURVE",
"441 79 CURVE",
"246 79 OFFCURVE",
"194 132 OFFCURVE",
"188 265 CURVE SMOOTH",
"167 732 LINE",
"90 732 LINE",
"111 242 LINE SMOOTH",
"117 93 OFFCURVE",
"176 -7 OFFCURVE",
"435 -7 CURVE"
);
}
);
width = 435;
},
{
anchors = (
{
name = bottom;
position = "{138, -111}";
},
{
name = bottom.dot;
position = "{138, -20}";
},
{
name = top;
position = "{116, 788}";
}
);
layerId = "E5C955C8-F661-4960-B659-F2A3D2582D0D";
paths = (
{
closed = 1;
nodes = (
"437 -10 OFFCURVE",
"464 30 OFFCURVE",
"464 81 CURVE SMOOTH",
"464 126 OFFCURVE",
"443 170 OFFCURVE",
"392 170 CURVE SMOOTH",
"237 170 OFFCURVE",
"209 211 OFFCURVE",
"203 341 CURVE SMOOTH",
"185 760 LINE",
"39 760 LINE",
"56 301 LINE SMOOTH",
"63 123 OFFCURVE",
"117 -10 OFFCURVE",
"384 -10 CURVE SMOOTH"
);
}
);
width = 384;
},
{
anchors = (
{
name = bottom;
position = "{129, -111}";
},
{
name = bottom.dot;
position = "{129, -21}";
},
{
name = top;
position = "{98, 735}";
}
);
layerId = "E67DA94D-AF90-4AFA-8684-14D1F5822449";
paths = (
{
closed = 1;
nodes = (
"325 -5 OFFCURVE",
"330 3 OFFCURVE",
"330 9 CURVE SMOOTH",
"330 15 OFFCURVE",
"328 21 OFFCURVE",
"321 21 CURVE",
"165 21 OFFCURVE",
"129 82 OFFCURVE",
"125 216 CURVE SMOOTH",
"109 714 LINE",
"85 714 LINE",
"101 204 LINE SMOOTH",
"105 73 OFFCURVE",
"150 -5 OFFCURVE",
"319 -5 CURVE"
);
}
);
width = 318;
},
{
anchors = (
{
name = bottom;
position = "{134, -111}";
},
{
name = bottom.dot;
position = "{134, -21}";
},
{
name = top;
position = "{107, 756}";
}
);
layerId = "2F00052B-4CEF-4C35-9869-AAD90889B4C2";
paths = (
{
closed = 1;
nodes = (
"374 -7 OFFCURVE",
"387 14 OFFCURVE",
"387 37 CURVE SMOOTH",
"387 58 OFFCURVE",
"377 79 OFFCURVE",
"354 79 CURVE",
"198 79 OFFCURVE",
"162 132 OFFCURVE",
"157 265 CURVE SMOOTH",
"141 732 LINE",
"67 732 LINE",
"84 242 LINE SMOOTH",
"89 93 OFFCURVE",
"142 -7 OFFCURVE",
"349 -7 CURVE"
);
}
);
width = 349;
}
);
leftMetricsKey = "alef-ar";
rightMetricsKey = _part.instroke;
},
{
glyphname = "alef-ar.short";
lastChange = "2020-02-25 17:35:42 +0000";
layers = (
{
anchors = (
{
name = bottom;
position = "{135, -111}";
},
{
name = bottom.dot;
position = "{135, -20}";
},
{
name = top;
position = "{120, 660}";
}
);
layerId = "A2AC38AA-6CC4-4B2B-B5AB-64A49772F2D3";
paths = (
{
closed = 1;
nodes = (
"151 0 LINE",
"133 644 LINE",
"109 644 LINE",
"127 0 LINE"
);
}
);
width = 262;
},
{
anchors = (
{
name = bottom;
position = "{158, -111}";
},
{
name = bottom.dot;
position = "{158, -20}";
},
{
name = top;
position = "{143, 713}";
}
);
layerId = "8594390A-478C-48BC-BAB2-0B8797A53DFB";
paths = (
{
closed = 1;
nodes = (
"240 0 LINE",
"221 690 LINE",
"60 690 LINE",
"79 0 LINE"
);
}
);
width = 300;
},
{
anchors = (
{
name = bottom;
position = "{145, -111}";
},
{
name = bottom.dot;
position = "{145, -20}";
},
{
name = top;
position = "{130, 681}";
}
);
layerId = "5223E25A-A738-4F2F-8413-8856B096DF64";
paths = (
{
closed = 1;
nodes = (
"186 0 LINE",
"168 662 LINE",
"90 662 LINE",
"109 0 LINE"
);
}
);
width = 277;
},
{
anchors = (
{
name = bottom;
position = "{126, -111}";
},
{
name = bottom.dot;
position = "{126, -20}";
},
{
name = top;
position = "{114, 713}";
}
);
layerId = "E5C955C8-F661-4960-B659-F2A3D2582D0D";
paths = (
{
closed = 1;
nodes = (
"200 0 LINE",
"185 690 LINE",
"39 690 LINE",
"54 0 LINE"
);
}
);
width = 239;
},
{
anchors = (
{
name = bottom;
position = "{108, -111}";
},
{
name = bottom.dot;
position = "{108, -20}";
},
{
name = top;
position = "{96, 660}";
}
);
layerId = "E67DA94D-AF90-4AFA-8684-14D1F5822449";
paths = (
{
closed = 1;
nodes = (
"124 0 LINE",
"109 644 LINE",
"85 644 LINE",
"100 0 LINE"
);
}
);
width = 210;
},
{
anchors = (
{
name = bottom;
position = "{116, -111}";
},
{
name = bottom.dot;
position = "{116, -20}";
},
{
name = top;
position = "{104, 681}";
}
);
layerId = "2F00052B-4CEF-4C35-9869-AAD90889B4C2";
paths = (
{
closed = 1;
nodes = (
"154 0 LINE",
"139 662 LINE",
"67 662 LINE",
"82 0 LINE"
);
}
);
width = 222;
}
);
leftMetricsKey = "alef-ar";
rightMetricsKey = "alef-ar";
},
{
glyphname = "alef-ar.fina.short";
lastChange = "2020-02-27 16:53:58 +0000";
layers = (
{
anchors = (
{
name = bottom;
position = "{135, -111}";
},
{
name = bottom.dot;
position = "{135, -20}";
},
{
name = top;
position = "{120, 660}";
}
);
background = {
anchors = (
{
name = top;
position = "{122, 594}";
}
);
paths = (
{
closed = 1;
nodes = (
"151 0 LINE",
"133 644 LINE",
"109 644 LINE",
"127 0 LINE"
);
}
);
};
layerId = "A2AC38AA-6CC4-4B2B-B5AB-64A49772F2D3";
paths = (
{
closed = 1;
nodes = (
"287 -5 OFFCURVE",
"293 2 OFFCURVE",
"293 8 CURVE SMOOTH",
"293 14 OFFCURVE",
"290 21 OFFCURVE",
"282 21 CURVE",
"191 21 OFFCURVE",
"153 58 OFFCURVE",
"149 185 CURVE SMOOTH",
"133 644 LINE",
"109 644 LINE",
"126 171 LINE SMOOTH",
"131 32 OFFCURVE",
"184 -5 OFFCURVE",
"279 -5 CURVE"
);
}
);
width = 279;
},
{
anchors = (
{
name = bottom;
position = "{172, -111}";
},
{
name = bottom.dot;
position = "{172, -20}";
},
{
name = top;
position = "{145, 708}";
}
);
layerId = "8594390A-478C-48BC-BAB2-0B8797A53DFB";
paths = (
{
closed = 1;
nodes = (
"395 -10 OFFCURVE",
"428 30 OFFCURVE",
"428 81 CURVE SMOOTH",
"428 126 OFFCURVE",
"402 170 OFFCURVE",
"338 170 CURVE SMOOTH",
"257 170 OFFCURVE",
"243 191 OFFCURVE",
"239 271 CURVE SMOOTH",
"220 690 LINE",
"60 690 LINE",
"79 221 LINE SMOOTH",
"85 83 OFFCURVE",
"145 -10 OFFCURVE",
"328 -10 CURVE SMOOTH"
);
}
);
width = 328;
},
{
anchors = (
{
name = bottom;
position = "{150, -111}";
},
{
name = bottom.dot;
position = "{150, -20}";
},
{
name = top;
position = "{130, 679}";
}
);
layerId = "5223E25A-A738-4F2F-8413-8856B096DF64";
paths = (
{
closed = 1;
nodes = (
"330 -7 OFFCURVE",
"346 13 OFFCURVE",
"346 36 CURVE SMOOTH",
"346 58 OFFCURVE",
"334 79 OFFCURVE",
"304 79 CURVE",
"217 79 OFFCURVE",
"189 110 OFFCURVE",
"185 219 CURVE SMOOTH",
"168 662 LINE",
"90 662 LINE",
"108 191 LINE SMOOTH",
"114 52 OFFCURVE",
"169 -7 OFFCURVE",
"299 -7 CURVE"
);
}
);
width = 299;
},
{
anchors = (
{
name = bottom;
position = "{138, -111}";
},
{
name = bottom.dot;
position = "{138, -20}";
},
{
name = top;
position = "{116, 708}";
}
);
layerId = "E5C955C8-F661-4960-B659-F2A3D2582D0D";
paths = (
{
closed = 1;
nodes = (
"311 -10 OFFCURVE",
"337 30 OFFCURVE",
"337 81 CURVE SMOOTH",
"337 126 OFFCURVE",
"317 170 OFFCURVE",
"265 170 CURVE SMOOTH",
"216 170 OFFCURVE",
"203 191 OFFCURVE",
"200 271 CURVE SMOOTH",
"185 690 LINE",
"39 690 LINE",
"54 221 LINE SMOOTH",
"58 83 OFFCURVE",
"111 -10 OFFCURVE",
"257 -10 CURVE SMOOTH"
);
}
);
width = 257;
},
{
anchors = (
{
name = bottom;
position = "{108, -111}";
},
{
name = bottom.dot;
position = "{108, -20}";
},
{
name = top;
position = "{96, 660}";
}
);
layerId = "E67DA94D-AF90-4AFA-8684-14D1F5822449";
paths = (
{
closed = 1;
nodes = (
"228 -5 OFFCURVE",
"232 2 OFFCURVE",
"232 8 CURVE SMOOTH",
"232 14 OFFCURVE",
"230 21 OFFCURVE",
"224 21 CURVE",
"151 21 OFFCURVE",
"127 58 OFFCURVE",
"123 185 CURVE SMOOTH",
"109 644 LINE",
"85 644 LINE",
"99 171 LINE SMOOTH",
"103 32 OFFCURVE",
"145 -5 OFFCURVE",
"221 -5 CURVE"
);
}
);
width = 220;
},
{
anchors = (
{
name = bottom;
position = "{120, -111}";
},
{
name = bottom.dot;
position = "{120, -20}";
},
{
name = top;
position = "{104, 679}";
}
);
layerId = "2F00052B-4CEF-4C35-9869-AAD90889B4C2";
paths = (
{
closed = 1;
nodes = (
"264 -7 OFFCURVE",
"277 13 OFFCURVE",
"277 36 CURVE SMOOTH",
"277 58 OFFCURVE",
"267 79 OFFCURVE",
"243 79 CURVE",
"174 79 OFFCURVE",
"156 110 OFFCURVE",
"153 219 CURVE SMOOTH",
"139 662 LINE",
"67 662 LINE",
"81 191 LINE SMOOTH",
"85 52 OFFCURVE",
"135 -7 OFFCURVE",
"239 -7 CURVE"
);
}
);
width = 239;
}
);
leftMetricsKey = "alef-ar.fina";
rightMetricsKey = _part.instroke;
},
{
glyphname = "dotlessbeh-ar";
lastChange = "2020-02-25 18:32:26 +0000";
layers = (
{
anchors = (
{
name = bottom;
position = "{462, -111}";
},
{
name = bottom.dot;
position = "{462, -40}";
},
{
name = top;
position = "{462, 448}";
},
{
name = top.dot;
position = "{462, 289}";
}
);
components = (
{
name = _part.beh.fina;
transform = "{1, 0, 0, 1, -10, 0}";
}
);
layerId = "A2AC38AA-6CC4-4B2B-B5AB-64A49772F2D3";
paths = (
{
closed = 1;
nodes = (
"741 -15 OFFCURVE",
"878 43 OFFCURVE",
"878 181 CURVE SMOOTH",
"878 240 OFFCURVE",
"864 295 OFFCURVE",
"842 363 CURVE",
"818 355 LINE",
"842 285 OFFCURVE",
"853 232 OFFCURVE",
"853 180 CURVE SMOOTH",
"853 68 OFFCURVE",
"731 11 OFFCURVE",
"416 11 CURVE",
"390 -15 LINE"
);
}
);
width = 938;
},
{
anchors = (
{
name = bottom;
position = "{508, -111}";
},
{
name = bottom.dot;
position = "{508, -20}";
},
{
name = top;
position = "{513, 518}";
},
{
name = top.dot;
position = "{513, 329}";
}
);
components = (
{
name = _part.beh.fina;
transform = "{1, 0, 0, 1, 6, 0}";
}
);
layerId = "8594390A-478C-48BC-BAB2-0B8797A53DFB";
paths = (
{
closed = 1;
nodes = (
"842 -15 OFFCURVE",
"973 81 OFFCURVE",
"973 254 CURVE SMOOTH",
"973 321 OFFCURVE",
"953 404 OFFCURVE",
"927 474 CURVE",
"776 426 LINE",
"798 360 OFFCURVE",
"815 312 OFFCURVE",
"815 264 CURVE SMOOTH",
"815 192 OFFCURVE",
"721 165 OFFCURVE",
"474 165 CURVE",
"448 -15 LINE"
);
}
);
width = 1028;
},
{
anchors = (
{
name = bottom;
position = "{480, -111}";
},
{
name = bottom.dot;
position = "{480, -32}";
},
{
name = top;
position = "{482, 475}";
},
{
name = top.dot;
position = "{482, 305}";
}
);
components = (
{
alignment = -1;
name = _part.beh.fina;
transform = "{1, 0, 0, 1, -4, 0}";
}
);
layerId = "5223E25A-A738-4F2F-8413-8856B096DF64";
paths = (
{
closed = 1;
nodes = (
"780 -15 OFFCURVE",
"915 58 OFFCURVE",
"915 209 CURVE SMOOTH",
"915 272 OFFCURVE",
"899 338 OFFCURVE",
"875 406 CURVE",
"802 383 LINE",
"825 314 OFFCURVE",
"836 263 OFFCURVE",
"836 213 CURVE SMOOTH",
"836 116 OFFCURVE",
"717 71 OFFCURVE",
"439 71 CURVE",
"413 -15 LINE"
);
}
);
width = 973;
},
{
anchors = (
{
name = bottom;
position = "{406, -111}";
},
{
name = bottom.dot;
position = "{406, -20}";
},
{
name = top;
position = "{410, 518}";
},
{
name = top.dot;
position = "{410, 329}";
}
);
components = (
{
name = _part.beh.fina;
transform = "{1, 0, 0, 1, 5, 0}";
}
);
layerId = "E5C955C8-F661-4960-B659-F2A3D2582D0D";
paths = (
{
closed = 1;
nodes = (
"674 -15 OFFCURVE",
"782 84 OFFCURVE",
"782 264 CURVE SMOOTH",
"782 342 OFFCURVE",
"767 410 OFFCURVE",
"746 474 CURVE",
"607 434 LINE",
"624 377 OFFCURVE",
"636 334 OFFCURVE",
"636 284 CURVE SMOOTH",
"636 205 OFFCURVE",
"587 165 OFFCURVE",
"379 165 CURVE",
"358 -15 LINE"
);
}
);
width = 822;
},
{
anchors = (
{
name = bottom;
position = "{370, -111}";
},
{
name = bottom.dot;
position = "{370, -40}";
},
{
name = top;
position = "{370, 448}";
},
{
name = top.dot;
position = "{370, 289}";
}
);
components = (
{
name = _part.beh.fina;
transform = "{1, 0, 0, 1, -8, 0}";
}
);
layerId = "E67DA94D-AF90-4AFA-8684-14D1F5822449";
paths = (
{
closed = 1;
nodes = (
"593 -15 OFFCURVE",
"702 43 OFFCURVE",
"702 181 CURVE SMOOTH",
"702 240 OFFCURVE",
"691 295 OFFCURVE",
"674 363 CURVE",
"650 357 LINE",
"670 287 OFFCURVE",
"678 232 OFFCURVE",
"678 180 CURVE SMOOTH",
"678 68 OFFCURVE",
"585 11 OFFCURVE",
"333 11 CURVE",
"312 -15 LINE"
);
}
);
width = 750;
},
{
anchors = (
{
name = bottom;
position = "{384, -111}";
},
{
name = bottom.dot;
position = "{384, -32}";
},
{
name = top;
position = "{386, 475}";
},
{
name = top.dot;
position = "{386, 305}";
}
);
components = (
{
alignment = -1;
name = _part.beh.fina;
transform = "{1, 0, 0, 1, -3, 0}";
}
);
layerId = "2F00052B-4CEF-4C35-9869-AAD90889B4C2";
paths = (
{
closed = 1;
nodes = (
"624 -15 OFFCURVE",
"732 58 OFFCURVE",
"732 209 CURVE SMOOTH",
"732 272 OFFCURVE",
"719 338 OFFCURVE",
"700 406 CURVE",
"633 387 LINE",
"651 318 OFFCURVE",
"660 263 OFFCURVE",
"660 213 CURVE SMOOTH",
"660 116 OFFCURVE",
"584 71 OFFCURVE",
"351 71 CURVE",
"330 -15 LINE"
);
}
);
width = 778;
}
);
unicode = 066E;
},
{
glyphname = "dotlessbeh-ar.fina";
lastChange = "2020-02-28 10:12:55 +0000";
layers = (
{
anchors = (
{
name = bottom;
position = "{462, -111}";
},
{
name = bottom.dot;
position = "{462, -40}";
},
{
name = top;
position = "{462, 448}";
},
{
name = top.dot;
position = "{462, 289}";
}
);
components = (
{
name = _part.beh.fina;
transform = "{1, 0, 0, 1, -10, 0}";
}
);
layerId = "A2AC38AA-6CC4-4B2B-B5AB-64A49772F2D3";
paths = (
{
closed = 1;
nodes = (
"732 -15 OFFCURVE",
"855 49 OFFCURVE",
"868 167 CURVE",
"856 167 LINE",
"864 51 OFFCURVE",
"887 -5 OFFCURVE",
"1042 -5 CURVE",
"1050 -5 OFFCURVE",
"1056 2 OFFCURVE",
"1056 8 CURVE SMOOTH",
"1056 14 OFFCURVE",
"1053 21 OFFCURVE",
"1045 21 CURVE",
"932 21 OFFCURVE",
"903 49 OFFCURVE",
"888 108 CURVE SMOOTH",
"876 155 OFFCURVE",
"877 214 OFFCURVE",
"876 303 CURVE",
"852 302 LINE",
"852 260 OFFCURVE",
"852 230 OFFCURVE",
"851 195 CURVE SMOOTH",
"847 69 OFFCURVE",
"719 11 OFFCURVE",
"406 11 CURVE",
"380 -15 LINE"
);
}
);
width = 1042;
},
{
anchors = (
{
name = bottom;
position = "{488, -111}";
},
{
name = bottom.dot;
position = "{488, -20}";
},
{
name = top;
position = "{504, 518}";
},
{
name = top.dot;
position = "{504, 329}";
}
);
background = {
anchors = (
{
name = bottom;
position = "{505, -25}";
},
{
name = top;
position = "{522, 366}";
}
);
paths = (
{
closed = 1;
nodes = (
"731 -15 OFFCURVE",
"859 47 OFFCURVE",
"901 157 CURVE",
"842 157 LINE",
"853 55 OFFCURVE",
"923 -10 OFFCURVE",
"1075 -10 CURVE SMOOTH",
"1142 -10 OFFCURVE",
"1175 30 OFFCURVE",
"1175 81 CURVE SMOOTH",
"1175 126 OFFCURVE",
"1149 170 OFFCURVE",
"1085 170 CURVE SMOOTH",
"991 170 OFFCURVE",
"972 190 OFFCURVE",
"965 239 CURVE SMOOTH",
"960 277 OFFCURVE",
"960 316 OFFCURVE",
"960 378 CURVE",
"804 366 LINE",
"800 289 OFFCURVE",
"797 246 OFFCURVE",
"776 220 CURVE SMOOTH",
"740 176 OFFCURVE",
"684 165 OFFCURVE",
"460 165 CURVE",
"450 -15 LINE"
);
},
{
closed = 1;
nodes = (
"496 20 LINE",
"476 165 LINE",
"263 165 OFFCURVE",
"217 196 OFFCURVE",
"217 288 CURVE SMOOTH",
"217 326 OFFCURVE",
"225 357 OFFCURVE",
"233 398 CURVE",
"90 425 LINE",
"71 373 OFFCURVE",
"56 318 OFFCURVE",
"56 249 CURVE SMOOTH",
"56 106 OFFCURVE",
"129 -15 OFFCURVE",
"450 -15 CURVE"
);
}
);
};
components = (
{
name = _part.beh.fina;
transform = "{1, 0, 0, 1, 6, 0}";
}
);
layerId = "8594390A-478C-48BC-BAB2-0B8797A53DFB";
paths = (
{
closed = 1;
nodes = (
"731 -15 OFFCURVE",
"859 47 OFFCURVE",
"901 157 CURVE",
"842 157 LINE",
"853 55 OFFCURVE",
"923 -10 OFFCURVE",
"1075 -10 CURVE SMOOTH",
"1142 -10 OFFCURVE",
"1175 30 OFFCURVE",
"1175 81 CURVE SMOOTH",
"1175 126 OFFCURVE",
"1149 170 OFFCURVE",
"1085 170 CURVE SMOOTH",
"991 170 OFFCURVE",
"972 190 OFFCURVE",
"965 239 CURVE SMOOTH",
"960 277 OFFCURVE",
"960 316 OFFCURVE",
"960 378 CURVE",
"804 366 LINE",
"800 289 OFFCURVE",
"797 246 OFFCURVE",
"776 220 CURVE SMOOTH",
"740 176 OFFCURVE",
"684 165 OFFCURVE",
"460 165 CURVE",
"450 -15 LINE"
);
}
);
width = 1075;
},
{
anchors = (
{
name = bottom;
position = "{472, -111}";
},
{
name = bottom.dot;
position = "{472, -32}";
},
{
name = top;
position = "{478, 475}";
},
{
name = top.dot;
position = "{478, 305}";
}
);
components = (
{
alignment = -1;
name = _part.beh.fina;
transform = "{1, 0, 0, 1, -4, 0}";
}
);
layerId = "5223E25A-A738-4F2F-8413-8856B096DF64";
paths = (
{
closed = 1;
nodes = (
"732 -15 OFFCURVE",
"857 48 OFFCURVE",
"881 163 CURVE",
"851 163 LINE",
"860 53 OFFCURVE",
"901 -7 OFFCURVE",
"1055 -7 CURVE",
"1086 -7 OFFCURVE",
"1102 13 OFFCURVE",
"1102 36 CURVE SMOOTH",
"1102 58 OFFCURVE",
"1090 79 OFFCURVE",
"1061 79 CURVE",
"955 79 OFFCURVE",
"930 104 OFFCURVE",
"918 159 CURVE SMOOTH",
"909 203 OFFCURVE",
"909 254 OFFCURVE",
"909 332 CURVE",
"833 327 LINE",
"832 271 OFFCURVE",
"831 236 OFFCURVE",
"822 205 CURVE SMOOTH",
"805 111 OFFCURVE",
"705 71 OFFCURVE",
"427 71 CURVE",
"407 -15 LINE"
);
}
);
width = 1055;
},
{
anchors = (
{
name = bottom;
position = "{390, -111}";
},
{
name = bottom.dot;
position = "{390, -20}";
},
{
name = top;
position = "{403, 518}";
},
{
name = top.dot;
position = "{403, 329}";
}
);
components = (
{
name = _part.beh.fina;
transform = "{1, 0, 0, 1, 5, 0}";
}
);
layerId = "E5C955C8-F661-4960-B659-F2A3D2582D0D";
paths = (
{
closed = 1;
nodes = (
"585 -15 OFFCURVE",
"687 47 OFFCURVE",
"721 157 CURVE",
"674 157 LINE",
"682 55 OFFCURVE",
"738 -10 OFFCURVE",
"860 -10 CURVE SMOOTH",
"914 -10 OFFCURVE",
"940 30 OFFCURVE",
"940 81 CURVE SMOOTH",
"940 126 OFFCURVE",
"919 170 OFFCURVE",
"868 170 CURVE SMOOTH",
"797 170 OFFCURVE",
"782 190 OFFCURVE",
"777 239 CURVE SMOOTH",
"773 277 OFFCURVE",
"773 316 OFFCURVE",
"773 378 CURVE",
"638 366 LINE",
"635 289 OFFCURVE",
"633 246 OFFCURVE",
"616 220 CURVE SMOOTH",
"587 176 OFFCURVE",
"547 165 OFFCURVE",
"368 165 CURVE",
"360 -15 LINE"
);
}
);
width = 860;
},
{
anchors = (
{
name = bottom;
position = "{370, -111}";
},
{
name = bottom.dot;
position = "{370, -40}";
},
{
name = top;
position = "{370, 448}";
},
{
name = top.dot;
position = "{370, 289}";
}
);
components = (
{
name = _part.beh.fina;
transform = "{1, 0, 0, 1, -8, 0}";
}
);
layerId = "E67DA94D-AF90-4AFA-8684-14D1F5822449";
paths = (
{
closed = 1;
nodes = (
"586 -15 OFFCURVE",
"685 49 OFFCURVE",
"695 167 CURVE",
"684 167 LINE",
"690 51 OFFCURVE",
"710 -5 OFFCURVE",
"834 -5 CURVE",
"840 -5 OFFCURVE",
"845 2 OFFCURVE",
"845 8 CURVE SMOOTH",
"845 14 OFFCURVE",
"842 21 OFFCURVE",
"836 21 CURVE",
"746 21 OFFCURVE",
"723 49 OFFCURVE",
"712 108 CURVE SMOOTH",
"703 155 OFFCURVE",
"704 214 OFFCURVE",
"703 303 CURVE",
"680 302 LINE",
"680 260 OFFCURVE",
"680 230 OFFCURVE",
"679 195 CURVE SMOOTH",
"675 69 OFFCURVE",
"575 11 OFFCURVE",
"325 11 CURVE",
"304 -15 LINE"
);
}
);
width = 833;
},
{
anchors = (
{
name = bottom;
position = "{378, -111}";
},
{
name = bottom.dot;
position = "{378, -32}";
},
{
name = top;
position = "{382, 475}";
},
{
name = top.dot;
position = "{382, 305}";
}
);
components = (
{
alignment = -1;
name = _part.beh.fina;
transform = "{1, 0, 0, 1, -3, 0}";
}
);
layerId = "2F00052B-4CEF-4C35-9869-AAD90889B4C2";
paths = (
{
closed = 1;
nodes = (
"586 -15 OFFCURVE",
"686 48 OFFCURVE",
"705 163 CURVE",
"681 163 LINE",
"688 53 OFFCURVE",
"721 -7 OFFCURVE",
"844 -7 CURVE",
"869 -7 OFFCURVE",
"882 13 OFFCURVE",
"882 36 CURVE SMOOTH",
"882 58 OFFCURVE",
"872 79 OFFCURVE",
"849 79 CURVE",
"764 79 OFFCURVE",
"748 104 OFFCURVE",
"739 159 CURVE SMOOTH",
"732 203 OFFCURVE",
"732 254 OFFCURVE",
"732 332 CURVE",
"661 327 LINE",
"661 271 OFFCURVE",
"660 236 OFFCURVE",
"653 205 CURVE SMOOTH",
"632 112 OFFCURVE",
"564 71 OFFCURVE",
"342 71 CURVE",
"326 -15 LINE"
);
}
);
width = 844;
}
);
leftMetricsKey = "dotlessbeh-ar";
rightMetricsKey = _part.instroke;
},
{
glyphname = "dotlessbeh-ar.medi";
lastChange = "2020-03-14 18:51:00 +0000";
layers = (
{
anchors = (
{
name = bottom;
position = "{187, -110}";
},
{
name = bottom.dot;
position = "{185, -40}";
},
{
name = top;
position = "{184, 451}";
},
{
name = top.dot;
position = "{184, 323}";
}
);
layerId = "A2AC38AA-6CC4-4B2B-B5AB-64A49772F2D3";
paths = (
{
closed = 1;
nodes = (
"107 -5 OFFCURVE",
"180 15 OFFCURVE",
"185 117 CURVE",
"174 116 LINE",
"181 32 OFFCURVE",
"217 -5 OFFCURVE",
"354 -5 CURVE SMOOTH",
"362 -5 OFFCURVE",
"368 2 OFFCURVE",
"368 8 CURVE SMOOTH",
"368 14 OFFCURVE",
"365 21 OFFCURVE",
"357 21 CURVE SMOOTH",
"230 21 OFFCURVE",
"202 50 OFFCURVE",
"198 111 CURVE SMOOTH",
"195 159 OFFCURVE",
"196 204 OFFCURVE",
"196 273 CURVE",
"171 272 LINE",
"171 201 OFFCURVE",
"171 174 OFFCURVE",
"168 132 CURVE SMOOTH",
"162 49 OFFCURVE",
"122 21 OFFCURVE",
"4 21 CURVE",
"0 -5 LINE"
);
}
);
width = 354;
},
{
anchors = (
{
name = bottom;
position = "{217, -110}";
},
{
name = bottom.dot;
position = "{215, -28}";
},
{
name = top;
position = "{220, 521}";
},
{
name = top.dot;
position = "{220, 393}";
}
);
layerId = "8594390A-478C-48BC-BAB2-0B8797A53DFB";
paths = (
{
closed = 1;
nodes = (
"111 -10 OFFCURVE",
"201 17 OFFCURVE",
"249 157 CURVE",
"190 157 LINE",
"201 45 OFFCURVE",
"258 -10 OFFCURVE",
"410 -10 CURVE SMOOTH",
"477 -10 OFFCURVE",
"510 30 OFFCURVE",
"510 81 CURVE SMOOTH",
"510 126 OFFCURVE",
"484 170 OFFCURVE",
"420 170 CURVE SMOOTH",
"335 170 OFFCURVE",
"310 192 OFFCURVE",
"303 239 CURVE SMOOTH",
"297 277 OFFCURVE",
"298 316 OFFCURVE",
"298 378 CURVE",
"142 366 LINE",
"142 302 OFFCURVE",
"141 258 OFFCURVE",
"133 230 CURVE SMOOTH",
"118 180 OFFCURVE",
"85 170 OFFCURVE",
"10 170 CURVE",
"0 -10 LINE"
);
}
);
width = 410;
},
{
anchors = (
{
name = bottom;
position = "{199, -110}";
},
{
name = bottom.dot;
position = "{197, -32}";
},
{
name = top;
position = "{198, 478}";
},
{
name = top.dot;
position = "{198, 350}";
}
);
layerId = "5223E25A-A738-4F2F-8413-8856B096DF64";
paths = (
{
closed = 1;
nodes = (
"109 -7 OFFCURVE",
"188 16 OFFCURVE",
"210 133 CURVE",
"180 132 LINE",
"189 37 OFFCURVE",
"233 -7 OFFCURVE",
"376 -7 CURVE SMOOTH",
"407 -7 OFFCURVE",
"423 13 OFFCURVE",
"423 36 CURVE SMOOTH",
"423 58 OFFCURVE",
"411 79 OFFCURVE",
"382 79 CURVE SMOOTH",
"271 79 OFFCURVE",
"244 105 OFFCURVE",
"239 161 CURVE SMOOTH",
"235 205 OFFCURVE",
"236 248 OFFCURVE",
"236 314 CURVE",
"160 309 LINE",
"160 240 OFFCURVE",
"159 207 OFFCURVE",
"154 170 CURVE SMOOTH",
"145 100 OFFCURVE",
"108 79 OFFCURVE",
"6 79 CURVE",
"0 -7 LINE"
);
}
);
width = 376;
},
{
anchors = (
{
name = bottom;
position = "{174, -110}";
},
{
name = bottom.dot;
position = "{172, -28}";
},
{
name = top;
position = "{176, 521}";
},
{
name = top.dot;
position = "{176, 393}";
}
);
layerId = "E5C955C8-F661-4960-B659-F2A3D2582D0D";
paths = (
{
closed = 1;
nodes = (
"89 -10 OFFCURVE",
"163 17 OFFCURVE",
"201 157 CURVE",
"150 157 LINE",
"159 45 OFFCURVE",
"206 -10 OFFCURVE",
"328 -10 CURVE SMOOTH",
"382 -10 OFFCURVE",
"408 30 OFFCURVE",
"408 81 CURVE SMOOTH",
"408 126 OFFCURVE",
"387 170 OFFCURVE",
"336 170 CURVE SMOOTH",
"268 170 OFFCURVE",
"253 192 OFFCURVE",
"248 239 CURVE SMOOTH",
"244 277 OFFCURVE",
"244 316 OFFCURVE",
"244 378 CURVE",
"109 366 LINE",
"109 302 OFFCURVE",
"107 258 OFFCURVE",
"102 230 CURVE SMOOTH",
"94 187 OFFCURVE",
"68 170 OFFCURVE",
"8 170 CURVE",
"0 -10 LINE"
);
}
);
width = 328;
},
{
anchors = (
{
name = bottom;
position = "{150, -110}";
},
{
name = bottom.dot;
position = "{148, -40}";
},
{
name = top;
position = "{147, 451}";
},
{
name = top.dot;
position = "{147, 323}";
}
);
layerId = "E67DA94D-AF90-4AFA-8684-14D1F5822449";
paths = (
{
closed = 1;
nodes = (
"86 -5 OFFCURVE",
"145 15 OFFCURVE",
"149 117 CURVE",
"138 116 LINE",
"144 32 OFFCURVE",
"174 -5 OFFCURVE",
"283 -5 CURVE SMOOTH",
"290 -5 OFFCURVE",
"294 2 OFFCURVE",
"294 8 CURVE SMOOTH",
"294 14 OFFCURVE",
"292 21 OFFCURVE",
"286 21 CURVE SMOOTH",
"184 21 OFFCURVE",
"163 50 OFFCURVE",
"160 111 CURVE SMOOTH",
"158 159 OFFCURVE",
"159 204 OFFCURVE",
"159 273 CURVE",
"135 272 LINE",
"135 201 OFFCURVE",
"135 174 OFFCURVE",
"132 132 CURVE SMOOTH",
"126 49 OFFCURVE",
"98 21 OFFCURVE",
"3 21 CURVE",
"0 -5 LINE"
);
}
);
width = 282;
},
{
anchors = (
{
name = bottom;
position = "{159, -110}";
},
{
name = bottom.dot;
position = "{158, -32}";
},
{
name = top;
position = "{158, 478}";
},
{
name = top.dot;
position = "{158, 350}";
}
);
layerId = "2F00052B-4CEF-4C35-9869-AAD90889B4C2";
paths = (
{
closed = 1;
nodes = (
"87 -7 OFFCURVE",
"150 16 OFFCURVE",
"168 133 CURVE",
"144 132 LINE",
"151 37 OFFCURVE",
"186 -7 OFFCURVE",
"301 -7 CURVE SMOOTH",
"326 -7 OFFCURVE",
"338 13 OFFCURVE",
"338 36 CURVE SMOOTH",
"338 58 OFFCURVE",
"329 79 OFFCURVE",
"306 79 CURVE SMOOTH",
"217 79 OFFCURVE",
"200 105 OFFCURVE",
"196 161 CURVE SMOOTH",
"193 205 OFFCURVE",
"194 248 OFFCURVE",
"194 314 CURVE",
"123 309 LINE",
"123 240 OFFCURVE",
"122 207 OFFCURVE",
"118 170 CURVE SMOOTH",
"110 100 OFFCURVE",
"86 79 OFFCURVE",
"5 79 CURVE",
"0 -7 LINE"
);
}
);
width = 300;
}
);
rightMetricsKey = _part.instroke;
},
{
glyphname = "dotlessbeh-ar.medi.tall";
lastChange = "2020-03-14 18:51:23 +0000";
layers = (
{
anchors = (
{
name = bottom;
position = "{187, -110}";
},
{
name = bottom.dot;
position = "{185, -20}";
},
{
name = top;
position = "{184, 471}";
},
{
name = top.dot;
position = "{184, 343}";
}
);
layerId = "A2AC38AA-6CC4-4B2B-B5AB-64A49772F2D3";
paths = (
{
closed = 1;
nodes = (
"107 -5 OFFCURVE",
"180 21 OFFCURVE",
"185 123 CURVE",
"174 122 LINE",
"181 38 OFFCURVE",
"217 -5 OFFCURVE",
"354 -5 CURVE SMOOTH",
"362 -5 OFFCURVE",
"368 2 OFFCURVE",
"368 8 CURVE SMOOTH",
"368 14 OFFCURVE",
"365 21 OFFCURVE",
"357 21 CURVE SMOOTH",
"230 21 OFFCURVE",
"202 56 OFFCURVE",
"198 117 CURVE SMOOTH",
"195 165 OFFCURVE",
"196 234 OFFCURVE",
"196 303 CURVE",
"171 302 LINE",
"171 231 OFFCURVE",
"171 180 OFFCURVE",
"168 138 CURVE SMOOTH",
"162 55 OFFCURVE",
"122 21 OFFCURVE",
"4 21 CURVE",
"0 -5 LINE"
);
}
);
width = 354;
},
{
anchors = (
{
name = bottom;
position = "{215, -111}";
},
{
name = bottom.dot;
position = "{215, -28}";
},
{
name = top;
position = "{220, 581}";
},
{
name = top.dot;
position = "{220, 453}";
}
);
background = {
anchors = (
{
name = bottom;
position = "{218, -115}";
},
{
name = bottom.dot;
position = "{215, -19}";
},
{
name = top;
position = "{220, 501}";
},
{
name = top.dot;
position = "{220, 393}";
}
);
paths = (
{
closed = 1;
nodes = (
"111 -10 OFFCURVE",
"201 17 OFFCURVE",
"249 157 CURVE",
"190 157 LINE",
"201 45 OFFCURVE",
"258 -10 OFFCURVE",
"410 -10 CURVE SMOOTH",
"477 -10 OFFCURVE",
"510 30 OFFCURVE",
"510 81 CURVE SMOOTH",
"510 126 OFFCURVE",
"484 170 OFFCURVE",
"420 170 CURVE SMOOTH",
"335 170 OFFCURVE",
"310 192 OFFCURVE",
"303 239 CURVE SMOOTH",
"297 277 OFFCURVE",
"298 316 OFFCURVE",
"298 378 CURVE",
"142 366 LINE",
"142 302 OFFCURVE",
"141 258 OFFCURVE",
"133 230 CURVE SMOOTH",
"119 180 OFFCURVE",
"85 170 OFFCURVE",
"10 170 CURVE",
"0 -10 LINE"
);
}
);
};
layerId = "8594390A-478C-48BC-BAB2-0B8797A53DFB";
paths = (
{
closed = 1;
nodes = (
"111 -10 OFFCURVE",
"203 17 OFFCURVE",
"251 157 CURVE",
"192 157 LINE",
"203 45 OFFCURVE",
"258 -10 OFFCURVE",
"410 -10 CURVE SMOOTH",
"477 -10 OFFCURVE",
"510 30 OFFCURVE",
"510 81 CURVE SMOOTH",
"510 126 OFFCURVE",
"484 170 OFFCURVE",
"420 170 CURVE SMOOTH",
"329 170 OFFCURVE",
"311 192 OFFCURVE",
"304 239 CURVE SMOOTH",
"298 277 OFFCURVE",
"299 363 OFFCURVE",
"299 445 CURVE",
"143 433 LINE",
"144 344 OFFCURVE",
"143 284 OFFCURVE",
"137 245 CURVE SMOOTH",
"126 176 OFFCURVE",
"70 170 OFFCURVE",
"10 170 CURVE",
"0 -10 LINE"
);
}
);
width = 410;
},
{
anchors = (
{
name = bottom;
position = "{198, -110}";
},
{
name = bottom.dot;
position = "{197, -32}";
},
{
name = top;
position = "{198, 514}";
},
{
name = top.dot;
position = "{198, 386}";
}
);
layerId = "5223E25A-A738-4F2F-8413-8856B096DF64";
paths = (
{
closed = 1;
nodes = (
"109 -7 OFFCURVE",
"189 19 OFFCURVE",
"211 136 CURVE",
"181 136 LINE",
"190 41 OFFCURVE",
"233 -7 OFFCURVE",
"376 -7 CURVE SMOOTH",
"407 -7 OFFCURVE",
"423 13 OFFCURVE",
"423 36 CURVE SMOOTH",
"423 58 OFFCURVE",
"411 79 OFFCURVE",
"382 79 CURVE SMOOTH",
"269 79 OFFCURVE",
"245 109 OFFCURVE",
"239 165 CURVE SMOOTH",
"235 209 OFFCURVE",
"236 284 OFFCURVE",
"236 358 CURVE",
"160 353 LINE",
"160 275 OFFCURVE",
"160 221 OFFCURVE",
"156 180 CURVE SMOOTH",
"148 102 OFFCURVE",
"102 79 OFFCURVE",
"6 79 CURVE",
"0 -7 LINE"
);
}
);
width = 376;
},
{
anchors = (
{
name = bottom;
position = "{172, -111}";
},
{
name = bottom.dot;
position = "{172, -28}";
},
{
name = top;
position = "{176, 581}";
},
{
name = top.dot;
position = "{176, 453}";
}
);
layerId = "E5C955C8-F661-4960-B659-F2A3D2582D0D";
paths = (
{
closed = 1;
nodes = (
"89 -10 OFFCURVE",
"162 17 OFFCURVE",
"201 157 CURVE",
"154 157 LINE",
"162 45 OFFCURVE",
"206 -10 OFFCURVE",
"328 -10 CURVE SMOOTH",
"382 -10 OFFCURVE",
"408 30 OFFCURVE",
"408 81 CURVE SMOOTH",
"408 126 OFFCURVE",
"387 170 OFFCURVE",
"336 170 CURVE SMOOTH",
"267 170 OFFCURVE",
"255 192 OFFCURVE",
"249 239 CURVE SMOOTH",
"244 277 OFFCURVE",
"244 363 OFFCURVE",
"244 445 CURVE",
"109 433 LINE",
"110 344 OFFCURVE",
"110 284 OFFCURVE",
"105 245 CURVE SMOOTH",
"98 186 OFFCURVE",
"66 170 OFFCURVE",
"8 170 CURVE",
"0 -10 LINE"
);
}
);
width = 328;
},
{
anchors = (
{
name = bottom;
position = "{150, -110}";
},
{
name = bottom.dot;
position = "{148, -40}";
},
{
name = top;
position = "{147, 471}";
},
{
name = top.dot;
position = "{147, 343}";
}
);
layerId = "E67DA94D-AF90-4AFA-8684-14D1F5822449";
paths = (
{
closed = 1;
nodes = (
"86 -5 OFFCURVE",
"145 21 OFFCURVE",
"149 123 CURVE",
"138 122 LINE",
"144 38 OFFCURVE",
"174 -5 OFFCURVE",
"283 -5 CURVE SMOOTH",
"290 -5 OFFCURVE",
"294 2 OFFCURVE",
"294 8 CURVE SMOOTH",
"294 14 OFFCURVE",
"292 21 OFFCURVE",
"286 21 CURVE SMOOTH",
"184 21 OFFCURVE",
"163 56 OFFCURVE",
"160 117 CURVE SMOOTH",
"158 165 OFFCURVE",
"159 234 OFFCURVE",
"159 303 CURVE",
"135 302 LINE",
"135 231 OFFCURVE",
"135 180 OFFCURVE",
"132 138 CURVE SMOOTH",
"126 55 OFFCURVE",
"98 21 OFFCURVE",
"3 21 CURVE",
"0 -5 LINE"
);
}
);
width = 282;
},
{
anchors = (
{
name = bottom;
position = "{158, -110}";
},
{
name = bottom.dot;
position = "{158, -32}";
},
{
name = top;
position = "{158, 514}";
},
{
name = top.dot;
position = "{158, 386}";
}
);
layerId = "2F00052B-4CEF-4C35-9869-AAD90889B4C2";
paths = (
{
closed = 1;
nodes = (
"87 -7 OFFCURVE",
"151 19 OFFCURVE",
"169 136 CURVE",
"145 136 LINE",
"152 41 OFFCURVE",
"186 -7 OFFCURVE",
"301 -7 CURVE SMOOTH",
"326 -7 OFFCURVE",
"338 13 OFFCURVE",
"338 36 CURVE SMOOTH",
"338 58 OFFCURVE",
"329 79 OFFCURVE",
"306 79 CURVE SMOOTH",
"215 79 OFFCURVE",
"200 109 OFFCURVE",
"196 165 CURVE SMOOTH",
"193 209 OFFCURVE",
"194 284 OFFCURVE",
"194 358 CURVE",
"123 353 LINE",
"123 275 OFFCURVE",
"123 221 OFFCURVE",
"120 180 CURVE SMOOTH",
"114 102 OFFCURVE",
"82 79 OFFCURVE",
"5 79 CURVE",
"0 -7 LINE"
);
}
);
width = 300;
}
);
rightMetricsKey = _part.instroke;
},
{
glyphname = "dotlessbeh-ar.medi.tall.wide";
lastChange = "2020-03-14 18:51:49 +0000";
layers = (
{
anchors = (
{
name = bottom;
position = "{207, -110}";
},
{
name = bottom.dot;
position = "{205, -20}";
},
{
name = top;
position = "{204, 471}";
},
{
name = top.dot;
position = "{204, 343}";
}
);
guideLines = (
{
position = "{237, -129}";
}
);
layerId = "A2AC38AA-6CC4-4B2B-B5AB-64A49772F2D3";
paths = (
{
closed = 1;
nodes = (
"107 -5 OFFCURVE",
"200 21 OFFCURVE",
"205 123 CURVE",
"194 122 LINE",
"201 34 OFFCURVE",
"265 -5 OFFCURVE",
"402 -5 CURVE SMOOTH",
"410 -5 OFFCURVE",
"416 2 OFFCURVE",
"416 8 CURVE SMOOTH",
"416 14 OFFCURVE",
"413 21 OFFCURVE",
"405 21 CURVE SMOOTH",
"278 21 OFFCURVE",
"222 55 OFFCURVE",
"218 121 CURVE SMOOTH",
"215 169 OFFCURVE",
"216 234 OFFCURVE",
"216 303 CURVE",
"191 302 LINE",
"191 231 OFFCURVE",
"191 180 OFFCURVE",
"188 138 CURVE SMOOTH",
"182 55 OFFCURVE",
"122 21 OFFCURVE",
"4 21 CURVE",
"0 -5 LINE"
);
}
);
width = 402;
},
{
anchors = (
{
name = bottom;
position = "{230, -111}";
},
{
name = bottom.dot;
position = "{230, -28}";
},
{
name = top;
position = "{235, 581}";
},
{
name = top.dot;
position = "{235, 453}";
}
);
layerId = "8594390A-478C-48BC-BAB2-0B8797A53DFB";
paths = (
{
closed = 1;
nodes = (
"111 -10 OFFCURVE",
"218 17 OFFCURVE",
"266 157 CURVE",
"207 157 LINE",
"218 45 OFFCURVE",
"288 -10 OFFCURVE",
"440 -10 CURVE SMOOTH",
"507 -10 OFFCURVE",
"540 30 OFFCURVE",
"540 81 CURVE SMOOTH",
"540 126 OFFCURVE",
"514 170 OFFCURVE",
"450 170 CURVE SMOOTH",
"359 170 OFFCURVE",
"326 192 OFFCURVE",
"319 239 CURVE SMOOTH",
"313 277 OFFCURVE",
"314 363 OFFCURVE",
"314 445 CURVE",
"158 433 LINE",
"159 344 OFFCURVE",
"158 284 OFFCURVE",
"152 245 CURVE SMOOTH",
"141 176 OFFCURVE",
"70 170 OFFCURVE",
"10 170 CURVE",
"0 -10 LINE"
);
}
);
width = 440;
},
{
anchors = (
{
name = bottom;
position = "{216, -110}";
},
{
name = bottom.dot;
position = "{215, -32}";
},
{
name = top;
position = "{216, 514}";
},
{
name = top.dot;
position = "{216, 386}";
}
);
layerId = "5223E25A-A738-4F2F-8413-8856B096DF64";
paths = (
{
closed = 1;
nodes = (
"109 -7 OFFCURVE",
"207 19 OFFCURVE",
"229 136 CURVE",
"199 136 LINE",
"208 38 OFFCURVE",
"274 -7 OFFCURVE",
"417 -7 CURVE SMOOTH",
"448 -7 OFFCURVE",
"464 13 OFFCURVE",
"464 36 CURVE SMOOTH",
"464 58 OFFCURVE",
"452 79 OFFCURVE",
"423 79 CURVE SMOOTH",
"310 79 OFFCURVE",
"263 108 OFFCURVE",
"257 167 CURVE SMOOTH",
"253 211 OFFCURVE",
"254 284 OFFCURVE",
"254 358 CURVE",
"178 353 LINE",
"179 275 OFFCURVE",
"178 221 OFFCURVE",
"174 180 CURVE SMOOTH",
"166 102 OFFCURVE",
"102 79 OFFCURVE",
"6 79 CURVE",
"0 -7 LINE"
);
}
);
width = 417;
},
{
anchors = (
{
name = bottom;
position = "{184, -111}";
},
{
name = bottom.dot;
position = "{184, -28}";
},
{
name = top;
position = "{188, 581}";
},
{
name = top.dot;
position = "{188, 453}";
}
);
layerId = "E5C955C8-F661-4960-B659-F2A3D2582D0D";
paths = (
{
closed = 1;
nodes = (
"89 -10 OFFCURVE",
"174 17 OFFCURVE",
"213 157 CURVE",
"166 157 LINE",
"174 45 OFFCURVE",
"230 -10 OFFCURVE",
"352 -10 CURVE SMOOTH",
"406 -10 OFFCURVE",
"432 30 OFFCURVE",
"432 81 CURVE SMOOTH",
"432 126 OFFCURVE",
"411 170 OFFCURVE",
"360 170 CURVE SMOOTH",
"287 170 OFFCURVE",
"267 192 OFFCURVE",
"261 239 CURVE SMOOTH",
"256 277 OFFCURVE",
"256 363 OFFCURVE",
"256 445 CURVE",
"121 433 LINE",
"122 344 OFFCURVE",
"121 284 OFFCURVE",
"117 245 CURVE SMOOTH",
"110 176 OFFCURVE",
"56 170 OFFCURVE",
"8 170 CURVE",
"0 -10 LINE"
);
}
);
width = 352;
},
{
anchors = (
{
name = bottom;
position = "{166, -110}";
},
{
name = bottom.dot;
position = "{164, -40}";
},
{
name = top;
position = "{163, 471}";
},
{
name = top.dot;
position = "{163, 343}";
}
);
layerId = "E67DA94D-AF90-4AFA-8684-14D1F5822449";
paths = (
{
closed = 1;
nodes = (
"86 -5 OFFCURVE",
"161 21 OFFCURVE",
"165 123 CURVE",
"154 122 LINE",
"160 34 OFFCURVE",
"212 -5 OFFCURVE",
"322 -5 CURVE SMOOTH",
"328 -5 OFFCURVE",
"333 2 OFFCURVE",
"333 8 CURVE SMOOTH",
"333 14 OFFCURVE",
"330 21 OFFCURVE",
"324 21 CURVE SMOOTH",
"222 21 OFFCURVE",
"179 55 OFFCURVE",
"176 121 CURVE SMOOTH",
"174 169 OFFCURVE",
"175 234 OFFCURVE",
"175 303 CURVE",
"151 302 LINE",
"151 231 OFFCURVE",
"151 180 OFFCURVE",
"148 138 CURVE SMOOTH",
"142 55 OFFCURVE",
"98 21 OFFCURVE",
"3 21 CURVE",
"0 -5 LINE"
);
}
);
width = 321;
},
{
anchors = (
{
name = bottom;
position = "{173, -110}";
},
{
name = bottom.dot;
position = "{172, -32}";
},
{
name = top;
position = "{173, 514}";
},
{
name = top.dot;
position = "{173, 386}";
}
);
layerId = "2F00052B-4CEF-4C35-9869-AAD90889B4C2";
paths = (
{
closed = 1;
nodes = (
"87 -7 OFFCURVE",
"166 19 OFFCURVE",
"183 136 CURVE",
"159 136 LINE",
"166 38 OFFCURVE",
"219 -7 OFFCURVE",
"334 -7 CURVE SMOOTH",
"358 -7 OFFCURVE",
"371 13 OFFCURVE",
"371 36 CURVE SMOOTH",
"371 58 OFFCURVE",
"362 79 OFFCURVE",
"338 79 CURVE SMOOTH",
"248 79 OFFCURVE",
"216 108 OFFCURVE",
"211 167 CURVE SMOOTH",
"207 211 OFFCURVE",
"208 284 OFFCURVE",
"208 358 CURVE",
"137 353 LINE",
"138 275 OFFCURVE",
"137 221 OFFCURVE",
"134 180 CURVE SMOOTH",
"128 102 OFFCURVE",
"82 79 OFFCURVE",
"5 79 CURVE",
"0 -7 LINE"
);
}
);
width = 333;
}
);
rightMetricsKey = _part.instroke;
},
{
glyphname = "dotlessbeh-ar.medi.wide";
lastChange = "2020-03-14 18:53:11 +0000";
layers = (
{
anchors = (
{
name = bottom;
position = "{207, -110}";
},
{
name = bottom.dot;
position = "{205, -40}";
},
{
name = top;
position = "{204, 451}";
},
{
name = top.dot;
position = "{204, 323}";
}
);
layerId = "A2AC38AA-6CC4-4B2B-B5AB-64A49772F2D3";
paths = (
{
closed = 1;
nodes = (
"107 -5 OFFCURVE",
"200 11 OFFCURVE",
"205 113 CURVE",
"194 112 LINE",
"201 24 OFFCURVE",
"265 -5 OFFCURVE",
"402 -5 CURVE SMOOTH",
"410 -5 OFFCURVE",
"416 2 OFFCURVE",
"416 8 CURVE SMOOTH",
"416 14 OFFCURVE",
"413 21 OFFCURVE",
"405 21 CURVE SMOOTH",
"278 21 OFFCURVE",
"222 45 OFFCURVE",
"218 111 CURVE SMOOTH",
"215 159 OFFCURVE",
"216 204 OFFCURVE",
"216 273 CURVE",
"191 272 LINE",
"191 201 OFFCURVE",
"191 170 OFFCURVE",
"188 128 CURVE SMOOTH",
"182 45 OFFCURVE",
"122 21 OFFCURVE",
"4 21 CURVE",
"0 -5 LINE"
);
}
);
width = 402;
},
{
anchors = (
{
name = bottom;
position = "{219, -111}";
},
{
name = bottom.dot;
position = "{220, -28}";
},
{
name = top;
position = "{235, 541}";
},
{
name = top.dot;
position = "{235, 393}";
}
);
layerId = "8594390A-478C-48BC-BAB2-0B8797A53DFB";
paths = (
{
closed = 1;
nodes = (
"111 -10 OFFCURVE",
"216 17 OFFCURVE",
"264 157 CURVE",
"205 157 LINE",
"216 45 OFFCURVE",
"288 -10 OFFCURVE",
"440 -10 CURVE SMOOTH",
"507 -10 OFFCURVE",
"540 30 OFFCURVE",
"540 81 CURVE SMOOTH",
"540 126 OFFCURVE",
"514 170 OFFCURVE",
"450 170 CURVE SMOOTH",
"365 170 OFFCURVE",
"325 192 OFFCURVE",
"318 239 CURVE SMOOTH",
"312 277 OFFCURVE",
"313 316 OFFCURVE",
"313 378 CURVE",
"157 366 LINE",
"157 302 OFFCURVE",
"156 258 OFFCURVE",
"148 230 CURVE SMOOTH",
"134 180 OFFCURVE",
"85 170 OFFCURVE",
"10 170 CURVE",
"0 -10 LINE"
);
}
);
width = 440;
},
{
anchors = (
{
name = bottom;
position = "{212, -110}";
},
{
name = bottom.dot;
position = "{211, -32}";
},
{
name = top;
position = "{216, 478}";
},
{
name = top.dot;
position = "{216, 343}";
}
);
layerId = "5223E25A-A738-4F2F-8413-8856B096DF64";
paths = (
{
closed = 1;
nodes = (
"109 -7 OFFCURVE",
"206 13 OFFCURVE",
"228 130 CURVE",
"198 130 LINE",
"207 32 OFFCURVE",
"274 -7 OFFCURVE",
"417 -7 CURVE SMOOTH",
"448 -7 OFFCURVE",
"464 13 OFFCURVE",
"464 36 CURVE SMOOTH",
"464 58 OFFCURVE",
"452 79 OFFCURVE",
"423 79 CURVE SMOOTH",
"312 79 OFFCURVE",
"262 102 OFFCURVE",
"257 161 CURVE SMOOTH",
"253 205 OFFCURVE",
"254 248 OFFCURVE",
"254 314 CURVE",
"178 309 LINE",
"178 240 OFFCURVE",
"177 204 OFFCURVE",
"172 168 CURVE SMOOTH",
"163 98 OFFCURVE",
"108 79 OFFCURVE",
"6 79 CURVE",
"0 -7 LINE"
);
}
);
width = 417;
},
{
anchors = (
{
name = bottom;
position = "{175, -111}";
},
{
name = bottom.dot;
position = "{176, -28}";
},
{
name = top;
position = "{188, 541}";
},
{
name = top.dot;
position = "{188, 393}";
}
);
layerId = "E5C955C8-F661-4960-B659-F2A3D2582D0D";
paths = (
{
closed = 1;
nodes = (
"89 -10 OFFCURVE",
"173 17 OFFCURVE",
"211 157 CURVE",
"164 157 LINE",
"173 45 OFFCURVE",
"230 -10 OFFCURVE",
"352 -10 CURVE SMOOTH",
"406 -10 OFFCURVE",
"432 30 OFFCURVE",
"432 81 CURVE SMOOTH",
"432 126 OFFCURVE",
"411 170 OFFCURVE",
"360 170 CURVE SMOOTH",
"292 170 OFFCURVE",
"265 192 OFFCURVE",
"260 239 CURVE SMOOTH",
"256 277 OFFCURVE",
"256 316 OFFCURVE",
"256 378 CURVE",
"121 366 LINE",
"121 302 OFFCURVE",
"120 258 OFFCURVE",
"113 230 CURVE SMOOTH",
"101 180 OFFCURVE",
"68 170 OFFCURVE",
"8 170 CURVE",
"0 -10 LINE"
);
}
);
width = 352;
},
{
anchors = (
{
name = bottom;
position = "{166, -110}";
},
{
name = bottom.dot;
position = "{164, -40}";
},
{
name = top;
position = "{163, 451}";
},
{
name = top.dot;
position = "{163, 323}";
}
);
layerId = "E67DA94D-AF90-4AFA-8684-14D1F5822449";
paths = (
{
closed = 1;
nodes = (
"86 -5 OFFCURVE",
"161 11 OFFCURVE",
"165 113 CURVE",
"154 112 LINE",
"160 24 OFFCURVE",
"212 -5 OFFCURVE",
"322 -5 CURVE SMOOTH",
"328 -5 OFFCURVE",
"333 2 OFFCURVE",
"333 8 CURVE SMOOTH",
"333 14 OFFCURVE",
"330 21 OFFCURVE",
"324 21 CURVE SMOOTH",
"222 21 OFFCURVE",
"179 45 OFFCURVE",
"176 111 CURVE SMOOTH",
"174 159 OFFCURVE",
"175 204 OFFCURVE",
"175 273 CURVE",
"151 272 LINE",
"151 201 OFFCURVE",
"151 170 OFFCURVE",
"148 128 CURVE SMOOTH",
"142 45 OFFCURVE",
"98 21 OFFCURVE",
"3 21 CURVE",
"0 -5 LINE"
);
}
);
width = 321;
},
{
anchors = (
{
name = bottom;
position = "{170, -110}";
},
{
name = bottom.dot;
position = "{169, -32}";
},
{
name = top;
position = "{173, 478}";
},
{
name = top.dot;
position = "{173, 343}";
}
);
layerId = "2F00052B-4CEF-4C35-9869-AAD90889B4C2";
paths = (
{
closed = 1;
nodes = (
"87 -7 OFFCURVE",
"165 13 OFFCURVE",
"182 130 CURVE",
"158 130 LINE",
"166 32 OFFCURVE",
"219 -7 OFFCURVE",
"334 -7 CURVE SMOOTH",
"358 -7 OFFCURVE",
"371 13 OFFCURVE",
"371 36 CURVE SMOOTH",
"371 58 OFFCURVE",
"362 79 OFFCURVE",
"338 79 CURVE SMOOTH",
"250 79 OFFCURVE",
"216 102 OFFCURVE",
"211 161 CURVE SMOOTH",
"207 205 OFFCURVE",
"208 248 OFFCURVE",
"208 314 CURVE",
"137 309 LINE",
"137 240 OFFCURVE",
"137 204 OFFCURVE",
"133 168 CURVE SMOOTH",
"125 98 OFFCURVE",
"86 79 OFFCURVE",
"5 79 CURVE",
"0 -7 LINE"
);
}
);
width = 333;
}
);
rightMetricsKey = _part.instroke;
},
{
glyphname = "dotlessbeh-ar.init";
lastChange = "2020-03-14 18:53:37 +0000";
layers = (
{
anchors = (
{
name = bottom;
position = "{156, -111}";
},
{
name = bottom.dot;
position = "{157, -40}";
},
{
name = top;
position = "{182, 535}";
},
{
name = top.dot;
position = "{186, 402}";
}
);
layerId = "A2AC38AA-6CC4-4B2B-B5AB-64A49772F2D3";
paths = (
{
closed = 1;
nodes = (
"183 -5 OFFCURVE",
"236 39 OFFCURVE",
"236 155 CURVE SMOOTH",
"236 221 OFFCURVE",
"222 292 OFFCURVE",
"202 360 CURVE",
"178 353 LINE",
"198 286 OFFCURVE",
"211 213 OFFCURVE",
"211 152 CURVE SMOOTH",
"211 48 OFFCURVE",
"159 21 OFFCURVE",
"4 21 CURVE",
"0 -5 LINE"
);
}
);
width = 296;
},
{
anchors = (
{
name = bottom;
position = "{156, -111}";
},
{
name = bottom.dot;
position = "{157, -28}";
},
{
name = top;
position = "{182, 585}";
},
{
name = top.dot;
position = "{186, 452}";
}
);
layerId = "8594390A-478C-48BC-BAB2-0B8797A53DFB";
paths = (
{
closed = 1;
nodes = (
"127 -10 OFFCURVE",
"300 19 OFFCURVE",
"300 231 CURVE SMOOTH",
"300 315 OFFCURVE",
"284 389 OFFCURVE",
"260 460 CURVE",
"99 417 LINE",
"118 348 OFFCURVE",
"131 302 OFFCURVE",
"131 247 CURVE SMOOTH",
"131 186 OFFCURVE",
"91 170 OFFCURVE",
"10 170 CURVE",
"0 -10 LINE"
);
}
);
width = 355;
},
{
anchors = (
{
name = bottom;
position = "{156, -111}";
},
{
name = bottom.dot;
position = "{157, -32}";
},
{
name = top;
position = "{182, 555}";
},
{
name = top.dot;
position = "{186, 422}";
}
);
layerId = "5223E25A-A738-4F2F-8413-8856B096DF64";
paths = (
{
closed = 1;
nodes = (
"161 -7 OFFCURVE",
"261 31 OFFCURVE",
"261 185 CURVE SMOOTH",
"261 258 OFFCURVE",
"246 330 OFFCURVE",
"225 399 CURVE",
"147 378 LINE",
"167 310 OFFCURVE",
"180 248 OFFCURVE",
"180 189 CURVE SMOOTH",
"180 102 OFFCURVE",
"132 79 OFFCURVE",
"6 79 CURVE",
"0 -7 LINE"
);
}
);
width = 319;
},
{
anchors = (
{
name = bottom;
position = "{125, -111}";
},
{
name = bottom.dot;
position = "{126, -28}";
},
{
name = top;
position = "{146, 585}";
},
{
name = top.dot;
position = "{149, 452}";
}
);
layerId = "E5C955C8-F661-4960-B659-F2A3D2582D0D";
paths = (
{
closed = 1;
nodes = (
"102 -10 OFFCURVE",
"240 19 OFFCURVE",
"240 231 CURVE SMOOTH",
"240 315 OFFCURVE",
"227 389 OFFCURVE",
"208 460 CURVE",
"70 426 LINE",
"85 357 OFFCURVE",
"96 304 OFFCURVE",
"96 247 CURVE SMOOTH",
"96 186 OFFCURVE",
"73 170 OFFCURVE",
"8 170 CURVE",
"0 -10 LINE"
);
}
);
width = 280;
},
{
anchors = (
{
name = bottom;
position = "{125, -111}";
},
{
name = bottom.dot;
position = "{126, -40}";
},
{
name = top;
position = "{146, 515}";
},
{
name = top.dot;
position = "{149, 402}";
}
);
layerId = "E67DA94D-AF90-4AFA-8684-14D1F5822449";
paths = (
{
closed = 1;
nodes = (
"146 -5 OFFCURVE",
"189 39 OFFCURVE",
"189 155 CURVE SMOOTH",
"189 221 OFFCURVE",
"178 292 OFFCURVE",
"162 360 CURVE",
"139 355 LINE",
"155 288 OFFCURVE",
"165 213 OFFCURVE",
"165 152 CURVE SMOOTH",
"165 48 OFFCURVE",
"127 21 OFFCURVE",
"3 21 CURVE",
"0 -5 LINE"
);
}
);
width = 237;
},
{
anchors = (
{
name = bottom;
position = "{125, -111}";
},
{
name = bottom.dot;
position = "{126, -32}";
},
{
name = top;
position = "{146, 555}";
},
{
name = top.dot;
position = "{149, 422}";
}
);
layerId = "2F00052B-4CEF-4C35-9869-AAD90889B4C2";
paths = (
{
closed = 1;
nodes = (
"129 -7 OFFCURVE",
"209 31 OFFCURVE",
"209 185 CURVE SMOOTH",
"209 258 OFFCURVE",
"197 330 OFFCURVE",
"180 399 CURVE",
"111 382 LINE",
"127 314 OFFCURVE",
"137 248 OFFCURVE",
"137 189 CURVE SMOOTH",
"137 102 OFFCURVE",
"106 79 OFFCURVE",
"5 79 CURVE",
"0 -7 LINE"
);
}
);
width = 255;
}
);
leftKerningGroup = tooth;
rightMetricsKey = "dotlessbeh-ar";
},
{
glyphname = "dotlessbeh-ar.init.short";
lastChange = "2020-03-14 18:53:52 +0000";
layers = (
{
anchors = (
{
name = bottom;
position = "{86, -111}";
},
{
name = bottom.dot;
position = "{87, -40}";
},
{
name = top;
position = "{98, 465}";
},
{
name = top.dot;
position = "{102, 332}";
}
);
layerId = "A2AC38AA-6CC4-4B2B-B5AB-64A49772F2D3";
paths = (
{
closed = 1;
nodes = (
"100 -5 OFFCURVE",
"142 41 OFFCURVE",
"142 129 CURVE SMOOTH",
"142 174 OFFCURVE",
"132 226 OFFCURVE",
"116 287 CURVE",
"91 281 LINE",
"111 211 OFFCURVE",
"117 173 OFFCURVE",
"117 127 CURVE SMOOTH",
"117 62 OFFCURVE",
"87 21 OFFCURVE",
"4 21 CURVE",
"0 -5 LINE"
);
}
);
width = 202;
},
{
anchors = (
{
name = bottom;
position = "{136, -111}";
},
{
name = bottom.dot;
position = "{137, -28}";
},
{
name = top;
position = "{152, 515}";
},
{
name = top.dot;
position = "{156, 382}";
}
);
layerId = "8594390A-478C-48BC-BAB2-0B8797A53DFB";
paths = (
{
closed = 1;
nodes = (
"150 -10 OFFCURVE",
"267 19 OFFCURVE",
"267 191 CURVE SMOOTH",
"267 265 OFFCURVE",
"243 345 OFFCURVE",
"228 392 CURVE",
"77 344 LINE",
"92 299 OFFCURVE",
"105 262 OFFCURVE",
"105 226 CURVE SMOOTH",
"105 184 OFFCURVE",
"85 170 OFFCURVE",
"10 170 CURVE",
"0 -10 LINE"
);
}
);
width = 322;
},
{
anchors = (
{
name = bottom;
position = "{116, -111}";
},
{
name = bottom.dot;
position = "{117, -32}";
},
{
name = top;
position = "{119, 485}";
},
{
name = top.dot;
position = "{123, 352}";
}
);
layerId = "5223E25A-A738-4F2F-8413-8856B096DF64";
paths = (
{
closed = 1;
nodes = (
"120 -7 OFFCURVE",
"191 32 OFFCURVE",
"191 153 CURVE SMOOTH",
"191 210 OFFCURVE",
"175 272 OFFCURVE",
"160 328 CURVE",
"86 306 LINE",
"104 245 OFFCURVE",
"112 208 OFFCURVE",
"112 166 CURVE SMOOTH",
"112 110 OFFCURVE",
"86 79 OFFCURVE",
"6 79 CURVE",
"0 -7 LINE"
);
}
);
width = 249;
},
{
anchors = (
{
name = bottom;
position = "{111, -111}";
},
{
name = bottom.dot;
position = "{110, -28}";
},
{
name = top;
position = "{122, 515}";
},
{
name = top.dot;
position = "{125, 382}";
}
);
layerId = "E5C955C8-F661-4960-B659-F2A3D2582D0D";
paths = (
{
closed = 1;
nodes = (
"120 -10 OFFCURVE",
"216 30 OFFCURVE",
"216 202 CURVE SMOOTH",
"216 272 OFFCURVE",
"200 338 OFFCURVE",
"184 392 CURVE",
"45 354 LINE",
"59 306 OFFCURVE",
"70 261 OFFCURVE",
"70 227 CURVE SMOOTH",
"70 188 OFFCURVE",
"60 170 OFFCURVE",
"8 170 CURVE",
"0 -10 LINE"
);
}
);
width = 256;
},
{
anchors = (
{
name = bottom;
position = "{70, -111}";
},
{
name = bottom.dot;
position = "{71, -40}";
},
{
name = top;
position = "{78, 465}";
},
{
name = top.dot;
position = "{82, 332}";
}
);
layerId = "E67DA94D-AF90-4AFA-8684-14D1F5822449";
paths = (
{
closed = 1;
nodes = (
"80 -5 OFFCURVE",
"114 41 OFFCURVE",
"114 129 CURVE SMOOTH",
"114 174 OFFCURVE",
"106 226 OFFCURVE",
"93 287 CURVE",
"70 282 LINE",
"85 212 OFFCURVE",
"90 173 OFFCURVE",
"90 127 CURVE SMOOTH",
"90 62 OFFCURVE",
"70 21 OFFCURVE",
"3 21 CURVE",
"0 -5 LINE"
);
}
);
width = 162;
},
{
anchors = (
{
name = bottom;
position = "{93, -111}";
},
{
name = bottom.dot;
position = "{94, -32}";
},
{
name = top;
position = "{95, 485}";
},
{
name = top.dot;
position = "{98, 352}";
}
);
layerId = "2F00052B-4CEF-4C35-9869-AAD90889B4C2";
paths = (
{
closed = 1;
nodes = (
"96 -7 OFFCURVE",
"153 32 OFFCURVE",
"153 153 CURVE SMOOTH",
"153 210 OFFCURVE",
"140 272 OFFCURVE",
"128 328 CURVE",
"60 311 LINE",
"74 250 OFFCURVE",
"81 208 OFFCURVE",
"81 166 CURVE SMOOTH",
"81 110 OFFCURVE",
"69 79 OFFCURVE",
"5 79 CURVE",
"0 -7 LINE"
);
}
);
width = 199;
}
);
rightMetricsKey = "seen-ar";
},
{
glyphname = "dotlessbeh-ar.init.short.wide";
lastChange = "2020-03-14 18:54:07 +0000";
layers = (
{
anchors = (
{
name = bottom;
position = "{136, -111}";
},
{
name = bottom.dot;
position = "{137, -20}";
},
{
name = top;
position = "{128, 465}";
},
{
name = top.dot;
position = "{132, 332}";
}
);
guideLines = (
{
position = "{104, -120}";
}
);
layerId = "A2AC38AA-6CC4-4B2B-B5AB-64A49772F2D3";
paths = (
{
closed = 1;
nodes = (
"135 -5 OFFCURVE",
"172 39 OFFCURVE",
"172 129 CURVE SMOOTH",
"172 174 OFFCURVE",
"164 220 OFFCURVE",
"146 287 CURVE",
"121 281 LINE",
"141 209 OFFCURVE",
"147 173 OFFCURVE",
"147 127 CURVE SMOOTH",
"147 58 OFFCURVE",
"119 21 OFFCURVE",
"4 21 CURVE",
"0 -5 LINE"
);
}
);
width = 232;
},
{
anchors = (
{
name = bottom;
position = "{174, -114}";
},
{
name = bottom.dot;
position = "{174, -28}";
},
{
name = top;
position = "{193, 515}";
},
{
name = top.dot;
position = "{197, 382}";
}
);
layerId = "8594390A-478C-48BC-BAB2-0B8797A53DFB";
paths = (
{
closed = 1;
nodes = (
"160 -10 OFFCURVE",
"308 9 OFFCURVE",
"308 191 CURVE SMOOTH",
"308 265 OFFCURVE",
"284 345 OFFCURVE",
"269 392 CURVE",
"118 344 LINE",
"133 299 OFFCURVE",
"146 262 OFFCURVE",
"146 226 CURVE SMOOTH",
"146 185 OFFCURVE",
"115 170 OFFCURVE",
"10 170 CURVE",
"0 -10 LINE"
);
}
);
width = 363;
},
{
anchors = (
{
name = bottom;
position = "{151, -112}";
},
{
name = bottom.dot;
position = "{151, -32}";
},
{
name = top;
position = "{153, 485}";
},
{
name = top.dot;
position = "{157, 352}";
}
);
layerId = "5223E25A-A738-4F2F-8413-8856B096DF64";
paths = (
{
closed = 1;
nodes = (
"145 -7 OFFCURVE",
"225 27 OFFCURVE",
"225 153 CURVE SMOOTH",
"225 210 OFFCURVE",
"211 269 OFFCURVE",
"194 328 CURVE",
"120 306 LINE",
"138 244 OFFCURVE",
"147 208 OFFCURVE",
"147 166 CURVE SMOOTH",
"147 108 OFFCURVE",
"117 79 OFFCURVE",
"6 79 CURVE",
"0 -7 LINE"
);
}
);
width = 283;
},
{
anchors = (
{
name = bottom;
position = "{139, -114}";
},
{
name = bottom.dot;
position = "{139, -28}";
},
{
name = top;
position = "{154, 515}";
},
{
name = top.dot;
position = "{158, 382}";
}
);
layerId = "E5C955C8-F661-4960-B659-F2A3D2582D0D";
paths = (
{
closed = 1;
nodes = (
"120 -10 OFFCURVE",
"245 29 OFFCURVE",
"245 201 CURVE SMOOTH",
"245 281 OFFCURVE",
"230 338 OFFCURVE",
"213 392 CURVE",
"74 352 LINE",
"87 307 OFFCURVE",
"99 270 OFFCURVE",
"99 231 CURVE SMOOTH",
"99 192 OFFCURVE",
"82 170 OFFCURVE",
"8 170 CURVE",
"0 -10 LINE"
);
}
);
width = 285;
},
{
anchors = (
{
name = bottom;
position = "{109, -111}";
},
{
name = bottom.dot;
position = "{110, -40}";
},
{
name = top;
position = "{102, 465}";
},
{
name = top.dot;
position = "{106, 332}";
}
);
layerId = "E67DA94D-AF90-4AFA-8684-14D1F5822449";
paths = (
{
closed = 1;
nodes = (
"108 -5 OFFCURVE",
"138 39 OFFCURVE",
"138 129 CURVE SMOOTH",
"138 174 OFFCURVE",
"131 220 OFFCURVE",
"117 287 CURVE",
"94 282 LINE",
"109 210 OFFCURVE",
"114 173 OFFCURVE",
"114 127 CURVE SMOOTH",
"114 58 OFFCURVE",
"95 21 OFFCURVE",
"3 21 CURVE",
"0 -5 LINE"
);
}
);
width = 186;
},
{
anchors = (
{
name = bottom;
position = "{121, -112}";
},
{
name = bottom.dot;
position = "{121, -32}";
},
{
name = top;
position = "{122, 485}";
},
{
name = top.dot;
position = "{126, 352}";
}
);
layerId = "2F00052B-4CEF-4C35-9869-AAD90889B4C2";
paths = (
{
closed = 1;
nodes = (
"116 -7 OFFCURVE",
"180 27 OFFCURVE",
"180 153 CURVE SMOOTH",
"180 210 OFFCURVE",
"169 269 OFFCURVE",
"155 328 CURVE",
"86 310 LINE",
"100 248 OFFCURVE",
"108 208 OFFCURVE",
"108 166 CURVE SMOOTH",
"108 108 OFFCURVE",
"94 79 OFFCURVE",
"5 79 CURVE",
"0 -7 LINE"
);
}
);
width = 226;
}
);
rightMetricsKey = "dotlessbeh-ar";
},
{
glyphname = "dotlessbeh-ar.init.wide";
lastChange = "2020-03-14 18:54:20 +0000";
layers = (
{
anchors = (
{
name = bottom;
position = "{104, -110}";
},
{
name = bottom.dot;
position = "{103, -40}";
},
{
name = top;
position = "{130, 535}";
},
{
name = top.dot;
position = "{134, 402}";
}
);
layerId = "A2AC38AA-6CC4-4B2B-B5AB-64A49772F2D3";
paths = (
{
closed = 1;
nodes = (
"129 -5 OFFCURVE",
"182 39 OFFCURVE",
"182 155 CURVE SMOOTH",
"182 221 OFFCURVE",
"168 292 OFFCURVE",
"148 360 CURVE",
"124 353 LINE",
"144 286 OFFCURVE",
"157 213 OFFCURVE",
"157 152 CURVE SMOOTH",
"157 48 OFFCURVE",
"105 21 OFFCURVE",
"4 21 CURVE",
"0 -5 LINE"
);
}
);
width = 242;
},
{
anchors = (
{
name = bottom;
position = "{185, -114}";
},
{
name = bottom.dot;
position = "{189, -28}";
},
{
name = top;
position = "{208, 585}";
},
{
name = top.dot;
position = "{211, 442}";
}
);
layerId = "8594390A-478C-48BC-BAB2-0B8797A53DFB";
paths = (
{
closed = 1;
nodes = (
"149 -10 OFFCURVE",
"332 19 OFFCURVE",
"332 231 CURVE SMOOTH",
"332 315 OFFCURVE",
"316 389 OFFCURVE",
"292 460 CURVE",
"131 417 LINE",
"150 348 OFFCURVE",
"163 302 OFFCURVE",
"163 247 CURVE SMOOTH",
"163 186 OFFCURVE",
"113 170 OFFCURVE",
"10 170 CURVE",
"0 -10 LINE"
);
}
);
width = 387;
},
{
anchors = (
{
name = bottom;
position = "{136, -112}";
},
{
name = bottom.dot;
position = "{138, -32}";
},
{
name = top;
position = "{160, 555}";
},
{
name = top.dot;
position = "{164, 418}";
}
);
layerId = "5223E25A-A738-4F2F-8413-8856B096DF64";
paths = (
{
closed = 1;
nodes = (
"137 -7 OFFCURVE",
"241 31 OFFCURVE",
"241 185 CURVE SMOOTH",
"241 258 OFFCURVE",
"226 330 OFFCURVE",
"204 399 CURVE",
"127 378 LINE",
"146 310 OFFCURVE",
"159 248 OFFCURVE",
"159 189 CURVE SMOOTH",
"159 102 OFFCURVE",
"108 79 OFFCURVE",
"6 79 CURVE",
"0 -7 LINE"
);
}
);
width = 299;
},
{
anchors = (
{
name = bottom;
position = "{148, -114}";
},
{
name = bottom.dot;
position = "{151, -28}";
},
{
name = top;
position = "{166, 585}";
},
{
name = top.dot;
position = "{169, 442}";
}
);
layerId = "E5C955C8-F661-4960-B659-F2A3D2582D0D";
paths = (
{
closed = 1;
nodes = (
"124 -10 OFFCURVE",
"264 19 OFFCURVE",
"264 231 CURVE SMOOTH",
"264 315 OFFCURVE",
"251 389 OFFCURVE",
"232 460 CURVE",
"93 420 LINE",
"110 353 OFFCURVE",
"118 310 OFFCURVE",
"118 255 CURVE SMOOTH",
"118 198 OFFCURVE",
"97 170 OFFCURVE",
"8 170 CURVE",
"0 -10 LINE"
);
}
);
width = 304;
},
{
anchors = (
{
name = bottom;
position = "{83, -110}";
},
{
name = bottom.dot;
position = "{84, -40}";
},
{
name = top;
position = "{104, 535}";
},
{
name = top.dot;
position = "{107, 402}";
}
);
layerId = "E67DA94D-AF90-4AFA-8684-14D1F5822449";
paths = (
{
closed = 1;
nodes = (
"103 -5 OFFCURVE",
"146 39 OFFCURVE",
"146 155 CURVE SMOOTH",
"146 221 OFFCURVE",
"134 292 OFFCURVE",
"118 360 CURVE",
"95 355 LINE",
"111 288 OFFCURVE",
"122 213 OFFCURVE",
"122 152 CURVE SMOOTH",
"122 48 OFFCURVE",
"84 21 OFFCURVE",
"3 21 CURVE",
"0 -5 LINE"
);
}
);
width = 194;
},
{
anchors = (
{
name = bottom;
position = "{109, -112}";
},
{
name = bottom.dot;
position = "{110, -32}";
},
{
name = top;
position = "{128, 555}";
},
{
name = top.dot;
position = "{131, 418}";
}
);
layerId = "2F00052B-4CEF-4C35-9869-AAD90889B4C2";
paths = (
{
closed = 1;
nodes = (
"110 -7 OFFCURVE",
"193 31 OFFCURVE",
"193 185 CURVE SMOOTH",
"193 258 OFFCURVE",
"181 330 OFFCURVE",
"163 399 CURVE",
"96 382 LINE",
"111 314 OFFCURVE",
"121 248 OFFCURVE",
"121 189 CURVE SMOOTH",
"121 102 OFFCURVE",
"86 79 OFFCURVE",
"5 79 CURVE",
"0 -7 LINE"
);
}
);
width = 239;
}
);
rightMetricsKey = "dotlessbeh-ar";
},
{
glyphname = "hah-ar";
lastChange = "2020-03-14 18:21:36 +0000";
layers = (
{
anchors = (
{
name = bottom;
position = "{333, -435}";
},
{
name = center;
position = "{391, -55}";
},
{
name = top;
position = "{344, 580}";
},
{
name = top.dot;
position = "{342, 478}";
}
);
layerId = "A2AC38AA-6CC4-4B2B-B5AB-64A49772F2D3";
paths = (
{
closed = 1;
nodes = (
"495 -394 OFFCURVE",
"583 -378 OFFCURVE",
"640 -358 CURVE",
"638 -334 LINE",
"580 -352 OFFCURVE",
"498 -368 OFFCURVE",
"395 -368 CURVE SMOOTH",
"189 -368 OFFCURVE",
"70 -277 OFFCURVE",
"70 -116 CURVE SMOOTH",
"70 117 OFFCURVE",
"369 236 OFFCURVE",
"654 293 CURVE",
"654 320 LINE",
"593 317 OFFCURVE",
"546 328 OFFCURVE",
"498 343 CURVE SMOOTH",
"389 377 OFFCURVE",
"309 456 OFFCURVE",
"194 456 CURVE SMOOTH",
"141 456 OFFCURVE",
"104 445 OFFCURVE",
"74 433 CURVE",
"75 408 LINE",
"108 420 OFFCURVE",
"140 430 OFFCURVE",
"196 430 CURVE SMOOTH",
"335 430 OFFCURVE",
"440 285 OFFCURVE",
"632 299 CURVE",
"633 314 LINE",
"366 262 OFFCURVE",
"45 141 OFFCURVE",
"45 -119 CURVE SMOOTH",
"45 -296 OFFCURVE",
"174 -394 OFFCURVE",
"390 -394 CURVE SMOOTH"
);
}
);
width = 710;
},
{
anchors = (
{
name = bottom;
position = "{333, -435}";
},
{
name = center;
position = "{435, -6}";
},
{
name = top;
position = "{331, 630}";
},
{
name = top.dot;
position = "{327, 544}";
}
);
layerId = "8594390A-478C-48BC-BAB2-0B8797A53DFB";
paths = (
{
closed = 1;
nodes = (
"508 -394 OFFCURVE",
"621 -369 OFFCURVE",
"677 -349 CURVE",
"679 -187 LINE",
"611 -202 OFFCURVE",
"535 -214 OFFCURVE",
"437 -214 CURVE SMOOTH",
"309 -214 OFFCURVE",
"188 -173 OFFCURVE",
"188 -51 CURVE SMOOTH",
"188 147 OFFCURVE",
"534 266 OFFCURVE",
"683 286 CURVE",
"692 441 LINE",
"653 441 OFFCURVE",
"620 443 OFFCURVE",
"584 447 CURVE SMOOTH",
"431 465 OFFCURVE",
"319 555 OFFCURVE",
"184 555 CURVE SMOOTH",
"140 555 OFFCURVE",
"99 547 OFFCURVE",
"61 528 CURVE",
"51 371 LINE",
"89 379 OFFCURVE",
"123 384 OFFCURVE",
"166 384 CURVE SMOOTH",
"262 384 OFFCURVE",
"347 345 OFFCURVE",
"507 315 CURVE",
"513 365 LINE",
"284 326 OFFCURVE",
"24 173 OFFCURVE",
"24 -77 CURVE SMOOTH",
"24 -270 OFFCURVE",
"148 -394 OFFCURVE",
"412 -394 CURVE SMOOTH"
);
}
);
width = 722;
},
{
anchors = (
{
name = bottom;
position = "{333, -435}";
},
{
name = center;
position = "{408, -36}";
},
{
name = top;
position = "{339, 610}";
},
{
name = top.dot;
position = "{336, 504}";
}
);
layerId = "5223E25A-A738-4F2F-8413-8856B096DF64";
paths = (
{
closed = 1;
nodes = (
"500 -394 OFFCURVE",
"598 -374 OFFCURVE",
"654 -354 CURVE",
"654 -277 LINE",
"592 -293 OFFCURVE",
"512 -308 OFFCURVE",
"411 -308 CURVE SMOOTH",
"236 -308 OFFCURVE",
"116 -236 OFFCURVE",
"116 -91 CURVE SMOOTH",
"116 129 OFFCURVE",
"433 248 OFFCURVE",
"665 290 CURVE",
"669 367 LINE",
"616 365 OFFCURVE",
"575 373 OFFCURVE",
"532 384 CURVE SMOOTH",
"405 411 OFFCURVE",
"313 495 OFFCURVE",
"190 495 CURVE SMOOTH",
"141 495 OFFCURVE",
"102 485 OFFCURVE",
"69 470 CURVE",
"66 394 LINE",
"101 404 OFFCURVE",
"133 412 OFFCURVE",
"184 412 CURVE SMOOTH",
"307 412 OFFCURVE",
"404 308 OFFCURVE",
"583 305 CURVE",
"586 334 LINE",
"334 287 OFFCURVE",
"37 153 OFFCURVE",
"37 -103 CURVE SMOOTH",
"37 -286 OFFCURVE",
"164 -394 OFFCURVE",
"399 -394 CURVE SMOOTH"
);
}
);
width = 715;
},
{
anchors = (
{
name = bottom;
position = "{266, -435}";
},
{
name = center;
position = "{348, -6}";
},
{
name = top;
position = "{265, 650}";
},
{
name = top.dot;
position = "{262, 544}";
}
);
layerId = "E5C955C8-F661-4960-B659-F2A3D2582D0D";
paths = (
{
closed = 1;
nodes = (
"416 -394 OFFCURVE",
"497 -370 OFFCURVE",
"542 -349 CURVE",
"543 -187 LINE",
"490 -204 OFFCURVE",
"447 -214 OFFCURVE",
"369 -214 CURVE SMOOTH",
"236 -214 OFFCURVE",
"160 -163 OFFCURVE",
"160 -51 CURVE SMOOTH",
"160 137 OFFCURVE",
"348 238 OFFCURVE",
"546 286 CURVE",
"554 441 LINE",
"522 441 OFFCURVE",
"496 443 OFFCURVE",
"467 447 CURVE SMOOTH",
"345 465 OFFCURVE",
"255 555 OFFCURVE",
"147 555 CURVE SMOOTH",
"112 555 OFFCURVE",
"79 547 OFFCURVE",
"49 528 CURVE",
"41 371 LINE",
"71 379 OFFCURVE",
"98 384 OFFCURVE",
"133 384 CURVE SMOOTH",
"210 384 OFFCURVE",
"278 340 OFFCURVE",
"406 310 CURVE",
"410 365 LINE",
"227 326 OFFCURVE",
"14 183 OFFCURVE",
"14 -77 CURVE SMOOTH",
"14 -270 OFFCURVE",
"118 -394 OFFCURVE",
"330 -394 CURVE SMOOTH"
);
}
);
width = 578;
},
{
anchors = (
{
name = bottom;
position = "{266, -435}";
},
{
name = center;
position = "{313, -55}";
},
{
name = top;
position = "{275, 590}";
},
{
name = top.dot;
position = "{274, 478}";
}
);
layerId = "E67DA94D-AF90-4AFA-8684-14D1F5822449";
paths = (
{
closed = 1;
nodes = (
"396 -394 OFFCURVE",
"466 -378 OFFCURVE",
"512 -358 CURVE",
"510 -334 LINE",
"464 -352 OFFCURVE",
"398 -368 OFFCURVE",
"316 -368 CURVE SMOOTH",
"151 -368 OFFCURVE",
"60 -277 OFFCURVE",
"60 -116 CURVE SMOOTH",
"60 117 OFFCURVE",
"295 240 OFFCURVE",
"523 293 CURVE",
"523 320 LINE",
"474 317 OFFCURVE",
"437 328 OFFCURVE",
"398 343 CURVE SMOOTH",
"311 377 OFFCURVE",
"247 456 OFFCURVE",
"155 456 CURVE SMOOTH",
"113 456 OFFCURVE",
"83 445 OFFCURVE",
"59 433 CURVE",
"60 408 LINE",
"86 420 OFFCURVE",
"112 430 OFFCURVE",
"157 430 CURVE SMOOTH",
"268 430 OFFCURVE",
"352 285 OFFCURVE",
"506 299 CURVE",
"506 314 LINE",
"293 262 OFFCURVE",
"36 141 OFFCURVE",
"36 -119 CURVE SMOOTH",
"36 -296 OFFCURVE",
"139 -394 OFFCURVE",
"312 -394 CURVE SMOOTH"
);
}
);
width = 568;
},
{
anchors = (
{
name = bottom;
position = "{266, -435}";
},
{
name = center;
position = "{326, -36}";
},
{
name = top;
position = "{271, 610}";
},
{
name = top.dot;
position = "{269, 504}";
}
);
layerId = "2F00052B-4CEF-4C35-9869-AAD90889B4C2";
paths = (
{
closed = 1;
nodes = (
"400 -394 OFFCURVE",
"478 -374 OFFCURVE",
"523 -354 CURVE",
"523 -277 LINE",
"474 -293 OFFCURVE",
"410 -308 OFFCURVE",
"329 -308 CURVE SMOOTH",
"189 -308 OFFCURVE",
"102 -236 OFFCURVE",
"102 -91 CURVE SMOOTH",
"102 129 OFFCURVE",
"346 248 OFFCURVE",
"532 290 CURVE",
"535 367 LINE",
"493 365 OFFCURVE",
"460 373 OFFCURVE",
"426 384 CURVE SMOOTH",
"324 411 OFFCURVE",
"250 495 OFFCURVE",
"152 495 CURVE SMOOTH",
"113 495 OFFCURVE",
"82 485 OFFCURVE",
"55 470 CURVE",
"53 394 LINE",
"81 404 OFFCURVE",
"106 412 OFFCURVE",
"147 412 CURVE SMOOTH",
"246 412 OFFCURVE",
"323 308 OFFCURVE",
"466 305 CURVE",
"457 337 LINE",
"258 287 OFFCURVE",
"30 153 OFFCURVE",
"30 -103 CURVE SMOOTH",
"30 -286 OFFCURVE",
"131 -394 OFFCURVE",
"319 -394 CURVE SMOOTH"
);
}
);
width = 572;
}
);
leftKerningGroup = jeem;
unicode = 062D;
},
{
glyphname = "hah-ar.fina";
lastChange = "2020-02-26 20:50:46 +0000";
layers = (
{
anchors = (
{
name = center;
position = "{371, -71}";
}
);
components = (
{
name = "hah-ar";
}
);
layerId = "A2AC38AA-6CC4-4B2B-B5AB-64A49772F2D3";
paths = (
{
closed = 1;
nodes = (
"738 -5 OFFCURVE",
"744 2 OFFCURVE",
"744 8 CURVE SMOOTH",
"744 14 OFFCURVE",
"741 21 OFFCURVE",
"733 21 CURVE SMOOTH",
"583 21 OFFCURVE",
"508 68 OFFCURVE",
"501 280 CURVE",
"476 273 LINE",
"485 44 OFFCURVE",
"573 -5 OFFCURVE",
"730 -5 CURVE SMOOTH"
);
}
);
width = 730;
},
{
anchors = (
{
name = center;
position = "{411, -21}";
}
);
components = (
{
name = "hah-ar";
}
);
layerId = "8594390A-478C-48BC-BAB2-0B8797A53DFB";
paths = (
{
closed = 1;
nodes = (
"828 -10 OFFCURVE",
"861 30 OFFCURVE",
"861 81 CURVE SMOOTH",
"861 126 OFFCURVE",
"835 170 OFFCURVE",
"771 170 CURVE SMOOTH",
"654 170 OFFCURVE",
"616 195 OFFCURVE",
"602 289 CURVE",
"486 249 LINE",
"495 72 OFFCURVE",
"554 -10 OFFCURVE",
"761 -10 CURVE SMOOTH"
);
}
);
width = 761;
},
{
anchors = (
{
name = center;
position = "{387, -51}";
}
);
components = (
{
alignment = -1;
name = "hah-ar";
}
);
layerId = "5223E25A-A738-4F2F-8413-8856B096DF64";
paths = (
{
closed = 1;
nodes = (
"773 -7 OFFCURVE",
"790 13 OFFCURVE",
"790 36 CURVE SMOOTH",
"790 58 OFFCURVE",
"778 79 OFFCURVE",
"748 79 CURVE SMOOTH",
"611 79 OFFCURVE",
"550 118 OFFCURVE",
"540 284 CURVE",
"480 264 LINE",
"489 55 OFFCURVE",
"566 -7 OFFCURVE",
"742 -7 CURVE SMOOTH"
);
}
);
width = 743;
},
{
anchors = (
{
name = center;
position = "{329, -21}";
}
);
components = (
{
name = "hah-ar";
}
);
layerId = "E5C955C8-F661-4960-B659-F2A3D2582D0D";
paths = (
{
closed = 1;
nodes = (
"658 -10 OFFCURVE",
"689 30 OFFCURVE",
"689 81 CURVE SMOOTH",
"689 126 OFFCURVE",
"668 170 OFFCURVE",
"617 170 CURVE SMOOTH",
"523 170 OFFCURVE",
"503 195 OFFCURVE",
"492 289 CURVE",
"381 249 LINE",
"384 73 OFFCURVE",
"439 -10 OFFCURVE",
"605 -10 CURVE SMOOTH"
);
}
);
width = 609;
},
{
anchors = (
{
name = center;
position = "{297, -71}";
}
);
components = (
{
name = "hah-ar";
}
);
layerId = "E67DA94D-AF90-4AFA-8684-14D1F5822449";
paths = (
{
closed = 1;
nodes = (
"590 -5 OFFCURVE",
"595 2 OFFCURVE",
"595 8 CURVE SMOOTH",
"595 14 OFFCURVE",
"593 21 OFFCURVE",
"586 21 CURVE SMOOTH",
"466 21 OFFCURVE",
"410 61 OFFCURVE",
"405 273 CURVE",
"381 266 LINE",
"388 37 OFFCURVE",
"458 -5 OFFCURVE",
"584 -5 CURVE SMOOTH"
);
}
);
width = 583;
},
{
anchors = (
{
name = center;
position = "{310, -51}";
}
);
components = (
{
alignment = -1;
name = "hah-ar";
}
);
layerId = "2F00052B-4CEF-4C35-9869-AAD90889B4C2";
paths = (
{
closed = 1;
nodes = (
"618 -7 OFFCURVE",
"632 13 OFFCURVE",
"632 36 CURVE SMOOTH",
"632 58 OFFCURVE",
"622 79 OFFCURVE",
"598 79 CURVE SMOOTH",
"489 79 OFFCURVE",
"449 118 OFFCURVE",
"441 284 CURVE",
"384 264 LINE",
"391 55 OFFCURVE",
"453 -7 OFFCURVE",
"594 -7 CURVE SMOOTH"
);
}
);
width = 594;
}
);
leftMetricsKey = "hah-ar";
rightMetricsKey = _part.instroke;
unicode = FEA2;
},
{
glyphname = "hah-ar.fina.wide";
lastChange = "2020-02-28 10:22:35 +0000";
layers = (
{
anchors = (
{
name = center;
position = "{373, -64}";
}
);
components = (
{
name = "hah-ar.wide";
}
);
layerId = "A2AC38AA-6CC4-4B2B-B5AB-64A49772F2D3";
paths = (
{
closed = 1;
nodes = (
"738 -5 OFFCURVE",
"744 2 OFFCURVE",
"744 8 CURVE SMOOTH",
"744 14 OFFCURVE",
"741 21 OFFCURVE",
"733 21 CURVE SMOOTH",
"583 21 OFFCURVE",
"508 78 OFFCURVE",
"501 270 CURVE",
"476 263 LINE",
"485 54 OFFCURVE",
"573 -5 OFFCURVE",
"730 -5 CURVE SMOOTH"
);
}
);
width = 730;
},
{
anchors = (
{
name = center;
position = "{409, -25}";
}
);
components = (
{
name = "hah-ar.wide";
}
);
layerId = "8594390A-478C-48BC-BAB2-0B8797A53DFB";
paths = (
{
closed = 1;
nodes = (
"858 -10 OFFCURVE",
"891 30 OFFCURVE",
"891 81 CURVE SMOOTH",
"891 126 OFFCURVE",
"865 170 OFFCURVE",
"801 170 CURVE SMOOTH",
"684 170 OFFCURVE",
"646 195 OFFCURVE",
"632 309 CURVE",
"516 269 LINE",
"525 72 OFFCURVE",
"584 -10 OFFCURVE",
"791 -10 CURVE SMOOTH"
);
}
);
width = 791;
},
{
anchors = (
{
name = center;
position = "{387, -49}";
}
);
components = (
{
alignment = -1;
name = "hah-ar.wide";
}
);
layerId = "5223E25A-A738-4F2F-8413-8856B096DF64";
paths = (
{
closed = 1;
nodes = (
"785 -7 OFFCURVE",
"801 13 OFFCURVE",
"801 36 CURVE SMOOTH",
"801 58 OFFCURVE",
"789 79 OFFCURVE",
"760 79 CURVE SMOOTH",
"622 79 OFFCURVE",
"562 124 OFFCURVE",
"552 285 CURVE",
"492 265 LINE",
"501 61 OFFCURVE",
"577 -7 OFFCURVE",
"754 -7 CURVE SMOOTH"
);
}
);
width = 754;
},
{
anchors = (
{
name = center;
position = "{327, -25}";
}
);
components = (
{
name = "hah-ar.wide";
}
);
layerId = "E5C955C8-F661-4960-B659-F2A3D2582D0D";
paths = (
{
closed = 1;
nodes = (
"697 -10 OFFCURVE",
"723 30 OFFCURVE",
"723 81 CURVE SMOOTH",
"723 126 OFFCURVE",
"702 170 OFFCURVE",
"651 170 CURVE SMOOTH",
"557 170 OFFCURVE",
"517 195 OFFCURVE",
"506 309 CURVE",
"396 269 LINE",
"403 72 OFFCURVE",
"478 -10 OFFCURVE",
"644 -10 CURVE SMOOTH"
);
}
);
width = 643;
},
{
anchors = (
{
name = center;
position = "{298, -64}";
}
);
components = (
{
name = "hah-ar.wide";
}
);
layerId = "E67DA94D-AF90-4AFA-8684-14D1F5822449";
paths = (
{
closed = 1;
nodes = (
"590 -5 OFFCURVE",
"595 2 OFFCURVE",
"595 8 CURVE SMOOTH",
"595 14 OFFCURVE",
"593 21 OFFCURVE",
"586 21 CURVE SMOOTH",
"466 21 OFFCURVE",
"410 78 OFFCURVE",
"405 270 CURVE",
"381 263 LINE",
"388 54 OFFCURVE",
"458 -5 OFFCURVE",
"584 -5 CURVE SMOOTH"
);
}
);
width = 583;
},
{
anchors = (
{
name = center;
position = "{310, -49}";
}
);
components = (
{
alignment = -1;
name = "hah-ar.wide";
}
);
layerId = "2F00052B-4CEF-4C35-9869-AAD90889B4C2";
paths = (
{
closed = 1;
nodes = (
"628 -7 OFFCURVE",
"641 13 OFFCURVE",
"641 36 CURVE SMOOTH",
"641 58 OFFCURVE",
"631 79 OFFCURVE",
"608 79 CURVE SMOOTH",
"498 79 OFFCURVE",
"450 124 OFFCURVE",
"442 285 CURVE",
"394 265 LINE",
"401 61 OFFCURVE",
"462 -7 OFFCURVE",
"603 -7 CURVE SMOOTH"
);
}
);
width = 603;
}
);
leftMetricsKey = "hah-ar";
rightMetricsKey = _part.instroke;
},
{
glyphname = "hah-ar.medi";
lastChange = "2020-02-25 18:37:21 +0000";
layers = (
{
components = (
{
name = "hah-ar.init";
}
);
guideLines = (
{
position = "{288, 439}";
}
);
layerId = "A2AC38AA-6CC4-4B2B-B5AB-64A49772F2D3";
paths = (
{
closed = 1;
nodes = (
"748 -5 OFFCURVE",
"754 3 OFFCURVE",
"754 9 CURVE SMOOTH",
"754 15 OFFCURVE",
"751 21 OFFCURVE",
"743 21 CURVE SMOOTH",
"582 21 OFFCURVE",
"538 72 OFFCURVE",
"530 204 CURVE",
"506 197 LINE",
"515 50 OFFCURVE",
"573 -5 OFFCURVE",
"740 -5 CURVE SMOOTH"
);
}
);
width = 740;
},
{
background = {
anchors = (
{
name = bottom;
position = "{299, 0}";
},
{
name = top;
position = "{181, 503}";
}
);
paths = (
{
closed = 1;
nodes = (
"825 -10 OFFCURVE",
"858 30 OFFCURVE",
"858 81 CURVE SMOOTH",
"858 126 OFFCURVE",
"832 170 OFFCURVE",
"768 170 CURVE SMOOTH",
"658 170 OFFCURVE",
"621 184 OFFCURVE",
"603 226 CURVE",
"495 174 LINE",
"520 42 OFFCURVE",
"612 -10 OFFCURVE",
"758 -10 CURVE SMOOTH"
);
},
{
closed = 1;
nodes = (
"341 -10 OFFCURVE",
"483 171 OFFCURVE",
"699 217 CURVE",
"708 372 LINE",
"669 372 OFFCURVE",
"630 373 OFFCURVE",
"595 378 CURVE SMOOTH",
"441 400 OFFCURVE",
"335 486 OFFCURVE",
"200 486 CURVE SMOOTH",
"156 486 OFFCURVE",
"115 478 OFFCURVE",
"77 459 CURVE",
"67 302 LINE",
"105 310 OFFCURVE",
"139 315 OFFCURVE",
"182 315 CURVE SMOOTH",
"278 315 OFFCURVE",
"363 276 OFFCURVE",
"523 246 CURVE",
"523 297 LINE",
"347 203 OFFCURVE",
"199 170 OFFCURVE",
"10 170 CURVE",
"0 -10 LINE"
);
}
);
};
components = (
{
name = "hah-ar.init";
}
);
layerId = "8594390A-478C-48BC-BAB2-0B8797A53DFB";
paths = (
{
closed = 1;
nodes = (
"825 -10 OFFCURVE",
"858 30 OFFCURVE",
"858 81 CURVE SMOOTH",
"858 126 OFFCURVE",
"832 170 OFFCURVE",
"768 170 CURVE SMOOTH",
"658 170 OFFCURVE",
"621 184 OFFCURVE",
"603 226 CURVE",
"495 174 LINE",
"520 42 OFFCURVE",
"612 -10 OFFCURVE",
"758 -10 CURVE SMOOTH"
);
}
);
width = 758;
},
{
components = (
{
alignment = -1;
name = "hah-ar.init";
}
);
layerId = "5223E25A-A738-4F2F-8413-8856B096DF64";
paths = (
{
closed = 1;
nodes = (
"778 -7 OFFCURVE",
"795 14 OFFCURVE",
"795 37 CURVE SMOOTH",
"795 58 OFFCURVE",
"783 79 OFFCURVE",
"753 79 CURVE SMOOTH",
"612 79 OFFCURVE",
"570 116 OFFCURVE",
"558 213 CURVE",
"502 188 LINE",
"517 47 OFFCURVE",
"588 -7 OFFCURVE",
"747 -7 CURVE SMOOTH"
);
}
);
width = 748;
},
{
components = (
{
name = "hah-ar.init";
}
);
layerId = "E5C955C8-F661-4960-B659-F2A3D2582D0D";
paths = (
{
closed = 1;
nodes = (
"660 -10 OFFCURVE",
"686 30 OFFCURVE",
"686 81 CURVE SMOOTH",
"686 126 OFFCURVE",
"666 170 OFFCURVE",
"614 170 CURVE SMOOTH",
"530 170 OFFCURVE",
"514 184 OFFCURVE",
"502 226 CURVE",
"396 174 LINE",
"416 42 OFFCURVE",
"490 -10 OFFCURVE",
"606 -10 CURVE SMOOTH"
);
}
);
width = 606;
},
{
components = (
{
name = "hah-ar.init";
}
);
guideLines = (
{
position = "{184, 439}";
}
);
layerId = "E67DA94D-AF90-4AFA-8684-14D1F5822449";
paths = (
{
closed = 1;
nodes = (
"598 -5 OFFCURVE",
"603 3 OFFCURVE",
"603 9 CURVE SMOOTH",
"603 15 OFFCURVE",
"601 21 OFFCURVE",
"594 21 CURVE SMOOTH",
"466 21 OFFCURVE",
"435 72 OFFCURVE",
"429 204 CURVE",
"405 195 LINE",
"412 48 OFFCURVE",
"458 -5 OFFCURVE",
"592 -5 CURVE SMOOTH"
);
}
);
width = 591;
},
{
components = (
{
alignment = -1;
name = "hah-ar.init";
}
);
layerId = "2F00052B-4CEF-4C35-9869-AAD90889B4C2";
paths = (
{
closed = 1;
nodes = (
"622 -7 OFFCURVE",
"636 14 OFFCURVE",
"636 37 CURVE SMOOTH",
"636 58 OFFCURVE",
"626 79 OFFCURVE",
"602 79 CURVE SMOOTH",
"490 79 OFFCURVE",
"465 116 OFFCURVE",
"455 213 CURVE",
"402 188 LINE",
"414 47 OFFCURVE",
"470 -7 OFFCURVE",
"598 -7 CURVE SMOOTH"
);
}
);
width = 598;
}
);
rightMetricsKey = _part.instroke;
unicode = FEA4;
},
{
glyphname = "hah-ar.init";
lastChange = "2020-03-14 18:21:32 +0000";
layers = (
{
anchors = (
{
name = bottom;
position = "{377, -111}";
},
{
name = bottom.dot;
position = "{377, 42}";
},
{
name = top;
position = "{304, 511}";
},
{
name = top.dot;
position = "{302, 409}";
}
);
guideLines = (
{
position = "{448, -114}";
}
);
layerId = "A2AC38AA-6CC4-4B2B-B5AB-64A49772F2D3";
paths = (
{
closed = 1;
nodes = (
"332 -5 OFFCURVE",
"414 173 OFFCURVE",
"654 228 CURVE",
"654 255 LINE",
"590 251 OFFCURVE",
"550 259 OFFCURVE",
"502 273 CURVE SMOOTH",
"393 305 OFFCURVE",
"309 388 OFFCURVE",
"194 388 CURVE SMOOTH",
"141 388 OFFCURVE",
"104 377 OFFCURVE",
"74 365 CURVE",
"75 339 LINE",
"108 352 OFFCURVE",
"143 362 OFFCURVE",
"192 362 CURVE SMOOTH",
"331 362 OFFCURVE",
"433 218 OFFCURVE",
"632 232 CURVE",
"633 246 LINE",
"418 200 OFFCURVE",
"317 21 OFFCURVE",
"4 21 CURVE",
"0 -5 LINE"
);
}
);
width = 703;
},
{
anchors = (
{
name = bottom;
position = "{417, -111}";
},
{
name = bottom.dot;
position = "{417, 42}";
},
{
name = top;
position = "{347, 581}";
},
{
name = top.dot;
position = "{343, 475}";
}
);
layerId = "8594390A-478C-48BC-BAB2-0B8797A53DFB";
paths = (
{
closed = 1;
nodes = (
"341 -10 OFFCURVE",
"453 181 OFFCURVE",
"699 217 CURVE",
"708 372 LINE",
"669 372 OFFCURVE",
"646 373 OFFCURVE",
"601 378 CURVE SMOOTH",
"446 395 OFFCURVE",
"335 486 OFFCURVE",
"200 486 CURVE SMOOTH",
"156 486 OFFCURVE",
"115 478 OFFCURVE",
"77 459 CURVE",
"67 302 LINE",
"105 310 OFFCURVE",
"139 315 OFFCURVE",
"182 315 CURVE SMOOTH",
"278 315 OFFCURVE",
"363 276 OFFCURVE",
"523 246 CURVE",
"523 297 LINE",
"347 223 OFFCURVE",
"199 170 OFFCURVE",
"10 170 CURVE",
"0 -10 LINE"
);
}
);
width = 738;
},
{
anchors = (
{
name = bottom;
position = "{393, -111}";
},
{
name = bottom.dot;
position = "{393, 42}";
},
{
name = top;
position = "{321, 541}";
},
{
name = top.dot;
position = "{318, 435}";
}
);
layerId = "5223E25A-A738-4F2F-8413-8856B096DF64";
paths = (
{
closed = 1;
nodes = (
"336 -7 OFFCURVE",
"429 176 OFFCURVE",
"672 224 CURVE",
"675 301 LINE",
"621 298 OFFCURVE",
"587 303 OFFCURVE",
"541 314 CURVE SMOOTH",
"414 340 OFFCURVE",
"319 426 OFFCURVE",
"196 426 CURVE SMOOTH",
"147 426 OFFCURVE",
"108 416 OFFCURVE",
"75 402 CURVE",
"72 325 LINE",
"107 336 OFFCURVE",
"141 344 OFFCURVE",
"188 344 CURVE SMOOTH",
"310 344 OFFCURVE",
"406 241 OFFCURVE",
"589 237 CURVE",
"590 266 LINE",
"390 209 OFFCURVE",
"271 79 OFFCURVE",
"6 79 CURVE",
"0 -7 LINE"
);
}
);
width = 717;
},
{
anchors = (
{
name = bottom;
position = "{334, -111}";
},
{
name = bottom.dot;
position = "{334, 42}";
},
{
name = top;
position = "{278, 581}";
},
{
name = top.dot;
position = "{274, 475}";
}
);
layerId = "E5C955C8-F661-4960-B659-F2A3D2582D0D";
paths = (
{
closed = 1;
nodes = (
"273 -10 OFFCURVE",
"362 181 OFFCURVE",
"559 217 CURVE",
"566 372 LINE",
"535 372 OFFCURVE",
"517 373 OFFCURVE",
"481 378 CURVE SMOOTH",
"357 395 OFFCURVE",
"268 486 OFFCURVE",
"160 486 CURVE SMOOTH",
"125 486 OFFCURVE",
"92 478 OFFCURVE",
"62 459 CURVE",
"54 302 LINE",
"84 310 OFFCURVE",
"111 315 OFFCURVE",
"146 315 CURVE SMOOTH",
"222 315 OFFCURVE",
"290 276 OFFCURVE",
"418 246 CURVE",
"418 297 LINE",
"278 223 OFFCURVE",
"159 170 OFFCURVE",
"8 170 CURVE",
"0 -10 LINE"
);
}
);
width = 590;
},
{
anchors = (
{
name = bottom;
position = "{302, -111}";
},
{
name = bottom.dot;
position = "{302, 42}";
},
{
name = top;
position = "{243, 521}";
},
{
name = top.dot;
position = "{242, 409}";
}
);
guideLines = (
{
position = "{287, -114}";
}
);
layerId = "E67DA94D-AF90-4AFA-8684-14D1F5822449";
paths = (
{
closed = 1;
nodes = (
"266 -5 OFFCURVE",
"335 173 OFFCURVE",
"523 228 CURVE",
"523 255 LINE",
"472 251 OFFCURVE",
"440 259 OFFCURVE",
"402 273 CURVE SMOOTH",
"314 305 OFFCURVE",
"247 388 OFFCURVE",
"155 388 CURVE SMOOTH",
"113 388 OFFCURVE",
"83 377 OFFCURVE",
"59 365 CURVE",
"60 339 LINE",
"86 352 OFFCURVE",
"114 362 OFFCURVE",
"154 362 CURVE SMOOTH",
"265 362 OFFCURVE",
"346 218 OFFCURVE",
"506 232 CURVE",
"506 246 LINE",
"336 200 OFFCURVE",
"254 21 OFFCURVE",
"3 21 CURVE",
"0 -5 LINE"
);
}
);
width = 562;
},
{
anchors = (
{
name = bottom;
position = "{314, -111}";
},
{
name = bottom.dot;
position = "{314, 42}";
},
{
name = top;
position = "{257, 541}";
},
{
name = top.dot;
position = "{254, 435}";
}
);
layerId = "2F00052B-4CEF-4C35-9869-AAD90889B4C2";
paths = (
{
closed = 1;
nodes = (
"269 -7 OFFCURVE",
"343 176 OFFCURVE",
"538 224 CURVE",
"540 301 LINE",
"497 298 OFFCURVE",
"470 303 OFFCURVE",
"433 314 CURVE SMOOTH",
"331 340 OFFCURVE",
"255 426 OFFCURVE",
"157 426 CURVE SMOOTH",
"118 426 OFFCURVE",
"86 416 OFFCURVE",
"60 402 CURVE",
"58 325 LINE",
"86 336 OFFCURVE",
"113 344 OFFCURVE",
"150 344 CURVE SMOOTH",
"248 344 OFFCURVE",
"325 241 OFFCURVE",
"471 237 CURVE",
"459 268 LINE",
"301 211 OFFCURVE",
"217 79 OFFCURVE",
"5 79 CURVE",
"0 -7 LINE"
);
}
);
width = 574;
}
);
unicode = FEA3;
},
{
glyphname = "dal-ar";
lastChange = "2020-03-14 18:21:24 +0000";
layers = (
{
anchors = (
{
name = bottom;
position = "{202, -111}";
},
{
name = bottom.dot;
position = "{205, -21}";
},
{
name = top;
position = "{215, 602}";
},
{
name = top.dot;
position = "{215, 486}";
}
);
background = {
paths = (
{
closed = 1;
nodes = (
"35 -34 OFFCURVE",
"102 -48 OFFCURVE",
"165 -48 CURVE SMOOTH",
"327 -48 OFFCURVE",
"447 29 OFFCURVE",
"447 149 CURVE SMOOTH",
"447 245 OFFCURVE",
"399 378 OFFCURVE",
"291 526 CURVE",
"164 414 LINE",
"243 308 OFFCURVE",
"284 243 OFFCURVE",
"311 152 CURVE",
"277 139 OFFCURVE",
"229 132 OFFCURVE",
"169 132 CURVE SMOOTH",
"114 132 OFFCURVE",
"55 141 OFFCURVE",
"8 157 CURVE",
"4 -9 LINE"
);
}
);
};
layerId = "A2AC38AA-6CC4-4B2B-B5AB-64A49772F2D3";
paths = (
{
closed = 1;
nodes = (
"340 -10 OFFCURVE",
"417 41 OFFCURVE",
"417 136 CURVE SMOOTH",
"417 231 OFFCURVE",
"346 355 OFFCURVE",
"225 487 CURVE",
"206 469 LINE",
"325 342 OFFCURVE",
"392 215 OFFCURVE",
"392 136 CURVE SMOOTH",
"392 56 OFFCURVE",
"319 16 OFFCURVE",
"193 16 CURVE SMOOTH",
"140 16 OFFCURVE",
"73 28 OFFCURVE",
"28 53 CURVE",
"22 28 LINE",
"65 6 OFFCURVE",
"128 -10 OFFCURVE",
"188 -10 CURVE SMOOTH"
);
}
);
width = 463;
},
{
anchors = (
{
name = bottom;
position = "{232, -111}";
},
{
name = bottom.dot;
position = "{235, -21}";
},
{
name = top;
position = "{265, 642}";
},
{
name = top.dot;
position = "{265, 536}";
}
);
layerId = "8594390A-478C-48BC-BAB2-0B8797A53DFB";
paths = (
{
closed = 1;
nodes = (
"357 -10 OFFCURVE",
"477 47 OFFCURVE",
"477 177 CURVE SMOOTH",
"477 292 OFFCURVE",
"417 419 OFFCURVE",
"301 564 CURVE",
"174 452 LINE",
"260 346 OFFCURVE",
"317 257 OFFCURVE",
"317 215 CURVE SMOOTH",
"317 181 OFFCURVE",
"269 170 OFFCURVE",
"199 170 CURVE SMOOTH",
"144 170 OFFCURVE",
"85 179 OFFCURVE",
"38 195 CURVE",
"34 29 LINE",
"65 4 OFFCURVE",
"132 -10 OFFCURVE",
"195 -10 CURVE SMOOTH"
);
}
);
width = 522;
},
{
anchors = (
{
name = bottom;
position = "{214, -111}";
},
{
name = bottom.dot;
position = "{217, -21}";
},
{
name = top;
position = "{235, 620}";
},
{
name = top.dot;
position = "{235, 506}";
}
);
layerId = "5223E25A-A738-4F2F-8413-8856B096DF64";
paths = (
{
closed = 1;
nodes = (
"347 -10 OFFCURVE",
"440 43 OFFCURVE",
"440 152 CURVE SMOOTH",
"440 255 OFFCURVE",
"374 380 OFFCURVE",
"255 517 CURVE",
"194 462 LINE",
"300 344 OFFCURVE",
"363 231 OFFCURVE",
"363 167 CURVE SMOOTH",
"363 105 OFFCURVE",
"299 76 OFFCURVE",
"195 76 CURVE SMOOTH",
"142 76 OFFCURVE",
"78 87 OFFCURVE",
"32 108 CURVE",
"27 28 LINE",
"65 5 OFFCURVE",
"130 -10 OFFCURVE",
"191 -10 CURVE SMOOTH"
);
}
);
width = 486;
},
{
anchors = (
{
name = bottom;
position = "{186, -111}";
},
{
name = bottom.dot;
position = "{188, -21}";
},
{
name = top;
position = "{212, 642}";
},
{
name = top.dot;
position = "{212, 536}";
}
);
layerId = "E5C955C8-F661-4960-B659-F2A3D2582D0D";
paths = (
{
closed = 1;
nodes = (
"306 -10 OFFCURVE",
"386 57 OFFCURVE",
"386 197 CURVE SMOOTH",
"386 309 OFFCURVE",
"340 427 OFFCURVE",
"241 564 CURVE",
"118 475 LINE",
"197 359 OFFCURVE",
"240 292 OFFCURVE",
"240 220 CURVE SMOOTH",
"240 188 OFFCURVE",
"216 170 OFFCURVE",
"153 170 CURVE SMOOTH",
"107 170 OFFCURVE",
"69 176 OFFCURVE",
"30 187 CURVE",
"27 24 LINE",
"53 3 OFFCURVE",
"115 -10 OFFCURVE",
"156 -10 CURVE SMOOTH"
);
}
);
width = 422;
},
{
anchors = (
{
name = bottom;
position = "{162, -111}";
},
{
name = bottom.dot;
position = "{164, -21}";
},
{
name = top;
position = "{172, 602}";
},
{
name = top.dot;
position = "{172, 486}";
}
);
layerId = "E67DA94D-AF90-4AFA-8684-14D1F5822449";
paths = (
{
closed = 1;
nodes = (
"272 -10 OFFCURVE",
"334 41 OFFCURVE",
"334 136 CURVE SMOOTH",
"334 231 OFFCURVE",
"277 355 OFFCURVE",
"180 487 CURVE",
"160 472 LINE",
"255 345 OFFCURVE",
"310 215 OFFCURVE",
"310 136 CURVE SMOOTH",
"310 56 OFFCURVE",
"255 16 OFFCURVE",
"154 16 CURVE SMOOTH",
"107 16 OFFCURVE",
"58 27 OFFCURVE",
"22 46 CURVE",
"18 21 LINE",
"52 2 OFFCURVE",
"102 -10 OFFCURVE",
"150 -10 CURVE SMOOTH"
);
}
);
width = 371;
},
{
anchors = (
{
name = bottom;
position = "{171, -111}";
},
{
name = bottom.dot;
position = "{174, -21}";
},
{
name = top;
position = "{188, 620}";
},
{
name = top.dot;
position = "{188, 506}";
}
);
layerId = "2F00052B-4CEF-4C35-9869-AAD90889B4C2";
paths = (
{
closed = 1;
nodes = (
"278 -10 OFFCURVE",
"352 43 OFFCURVE",
"352 152 CURVE SMOOTH",
"352 255 OFFCURVE",
"299 380 OFFCURVE",
"204 517 CURVE",
"147 467 LINE",
"229 349 OFFCURVE",
"280 231 OFFCURVE",
"280 167 CURVE SMOOTH",
"280 105 OFFCURVE",
"239 76 OFFCURVE",
"156 76 CURVE SMOOTH",
"114 76 OFFCURVE",
"62 87 OFFCURVE",
"26 105 CURVE",
"22 25 LINE",
"52 5 OFFCURVE",
"104 -10 OFFCURVE",
"153 -10 CURVE SMOOTH"
);
}
);
width = 389;
}
);
rightMetricsKey = "sad-ar";
unicode = 062F;
},
{
glyphname = "dal-ar.fina";
lastChange = "2020-03-14 18:21:18 +0000";
layers = (
{
anchors = (
{
name = bottom;
position = "{202, -111}";
},
{
name = bottom.dot;
position = "{205, -21}";
},
{
name = top;
position = "{267, 602}";
},
{
name = top.dot;
position = "{267, 486}";
}
);
background = {
paths = (
{
closed = 1;
nodes = (
"283 -52 OFFCURVE",
"385 6 OFFCURVE",
"425 73 CURVE",
"367 86 LINE",
"408 -13 OFFCURVE",
"482 -52 OFFCURVE",
"568 -52 CURVE SMOOTH",
"635 -52 OFFCURVE",
"668 -12 OFFCURVE",
"668 39 CURVE SMOOTH",
"668 84 OFFCURVE",
"642 128 OFFCURVE",
"578 128 CURVE SMOOTH",
"527 128 OFFCURVE",
"494 137 OFFCURVE",
"467 206 CURVE SMOOTH",
"442 271 OFFCURVE",
"408 372 OFFCURVE",
"353 522 CURVE",
"205 445 LINE",
"258 318 OFFCURVE",
"291 241 OFFCURVE",
"320 160 CURVE",
"283 138 OFFCURVE",
"221 128 OFFCURVE",
"158 128 CURVE SMOOTH",
"103 128 OFFCURVE",
"51 137 OFFCURVE",
"4 153 CURVE",
"0 -13 LINE",
"31 -41 OFFCURVE",
"98 -52 OFFCURVE",
"161 -52 CURVE SMOOTH"
);
}
);
};
layerId = "A2AC38AA-6CC4-4B2B-B5AB-64A49772F2D3";
paths = (
{
closed = 1;
nodes = (
"289 -10 OFFCURVE",
"386 32 OFFCURVE",
"441 94 CURVE",
"422 99 LINE",
"458 27 OFFCURVE",
"495 -5 OFFCURVE",
"593 -5 CURVE SMOOTH",
"605 -5 OFFCURVE",
"612 0 OFFCURVE",
"612 10 CURVE SMOOTH",
"612 16 OFFCURVE",
"606 21 OFFCURVE",
"597 21 CURVE SMOOTH",
"520 21 OFFCURVE",
"476 44 OFFCURVE",
"447 104 CURVE SMOOTH",
"400 201 OFFCURVE",
"336 368 OFFCURVE",
"284 487 CURVE",
"262 476 LINE",
"312 358 OFFCURVE",
"381 189 OFFCURVE",
"418 105 CURVE",
"366 50 OFFCURVE",
"276 16 OFFCURVE",
"178 16 CURVE SMOOTH",
"118 16 OFFCURVE",
"77 28 OFFCURVE",
"28 53 CURVE",
"22 28 LINE",
"59 4 OFFCURVE",
"112 -10 OFFCURVE",
"178 -10 CURVE SMOOTH"
);
}
);
width = 598;
},
{
anchors = (
{
name = bottom;
position = "{262, -111}";
},
{
name = bottom.dot;
position = "{264, -21}";
},
{
name = top;
position = "{315, 642}";
},
{
name = top.dot;
position = "{315, 536}";
}
);
layerId = "8594390A-478C-48BC-BAB2-0B8797A53DFB";
paths = (
{
closed = 1;
nodes = (
"317 -10 OFFCURVE",
"419 48 OFFCURVE",
"459 115 CURVE",
"401 128 LINE",
"442 29 OFFCURVE",
"516 -10 OFFCURVE",
"602 -10 CURVE SMOOTH",
"669 -10 OFFCURVE",
"702 30 OFFCURVE",
"702 81 CURVE SMOOTH",
"702 126 OFFCURVE",
"676 170 OFFCURVE",
"612 170 CURVE SMOOTH",
"561 170 OFFCURVE",
"528 179 OFFCURVE",
"501 248 CURVE SMOOTH",
"476 313 OFFCURVE",
"442 414 OFFCURVE",
"387 564 CURVE",
"239 487 LINE",
"292 360 OFFCURVE",
"325 283 OFFCURVE",
"354 202 CURVE",
"317 180 OFFCURVE",
"255 170 OFFCURVE",
"192 170 CURVE SMOOTH",
"137 170 OFFCURVE",
"85 179 OFFCURVE",
"38 195 CURVE",
"34 29 LINE",
"65 1 OFFCURVE",
"132 -10 OFFCURVE",
"195 -10 CURVE SMOOTH"
);
}
);
width = 602;
},
{
anchors = (
{
name = bottom;
position = "{225, -111}";
},
{
name = bottom.dot;
position = "{228, -21}";
},
{
name = top;
position = "{286, 620}";
},
{
name = top.dot;
position = "{286, 506}";
}
);
layerId = "5223E25A-A738-4F2F-8413-8856B096DF64";
paths = (
{
closed = 1;
nodes = (
"300 -10 OFFCURVE",
"399 38 OFFCURVE",
"448 102 CURVE",
"414 110 LINE",
"452 28 OFFCURVE",
"503 -7 OFFCURVE",
"597 -7 CURVE SMOOTH",
"630 -7 OFFCURVE",
"647 12 OFFCURVE",
"647 38 CURVE SMOOTH",
"647 59 OFFCURVE",
"633 79 OFFCURVE",
"603 79 CURVE SMOOTH",
"536 79 OFFCURVE",
"496 97 OFFCURVE",
"468 160 CURVE SMOOTH",
"430 245 OFFCURVE",
"377 386 OFFCURVE",
"324 517 CURVE",
"253 480 LINE",
"304 359 OFFCURVE",
"359 226 OFFCURVE",
"393 143 CURVE",
"347 101 OFFCURVE",
"268 76 OFFCURVE",
"183 76 CURVE SMOOTH",
"125 76 OFFCURVE",
"80 87 OFFCURVE",
"32 108 CURVE",
"27 28 LINE",
"61 3 OFFCURVE",
"120 -10 OFFCURVE",
"185 -10 CURVE SMOOTH"
);
}
);
width = 600;
},
{
anchors = (
{
name = bottom;
position = "{210, -111}";
},
{
name = bottom.dot;
position = "{211, -21}";
},
{
name = top;
position = "{252, 642}";
},
{
name = top.dot;
position = "{252, 536}";
}
);
layerId = "E5C955C8-F661-4960-B659-F2A3D2582D0D";
paths = (
{
closed = 1;
nodes = (
"254 -10 OFFCURVE",
"335 38 OFFCURVE",
"367 105 CURVE",
"312 117 LINE",
"345 18 OFFCURVE",
"413 -10 OFFCURVE",
"482 -10 CURVE SMOOTH",
"535 -10 OFFCURVE",
"562 30 OFFCURVE",
"562 81 CURVE SMOOTH",
"562 126 OFFCURVE",
"541 170 OFFCURVE",
"490 170 CURVE SMOOTH",
"438 170 OFFCURVE",
"417 190 OFFCURVE",
"401 248 CURVE SMOOTH",
"382 316 OFFCURVE",
"347 437 OFFCURVE",
"310 564 CURVE",
"178 503 LINE",
"216 391 OFFCURVE",
"247 294 OFFCURVE",
"271 202 CURVE",
"242 180 OFFCURVE",
"204 170 OFFCURVE",
"154 170 CURVE SMOOTH",
"110 170 OFFCURVE",
"68 179 OFFCURVE",
"30 195 CURVE",
"27 29 LINE",
"52 1 OFFCURVE",
"106 -10 OFFCURVE",
"156 -10 CURVE SMOOTH"
);
}
);
width = 482;
},
{
anchors = (
{
name = bottom;
position = "{162, -111}";
},
{
name = bottom.dot;
position = "{164, -21}";
},
{
name = top;
position = "{214, 602}";
},
{
name = top.dot;
position = "{214, 486}";
}
);
layerId = "E67DA94D-AF90-4AFA-8684-14D1F5822449";
paths = (
{
closed = 1;
nodes = (
"231 -10 OFFCURVE",
"309 32 OFFCURVE",
"353 94 CURVE",
"334 99 LINE",
"362 27 OFFCURVE",
"396 -5 OFFCURVE",
"474 -5 CURVE SMOOTH",
"484 -5 OFFCURVE",
"490 0 OFFCURVE",
"490 10 CURVE SMOOTH",
"490 16 OFFCURVE",
"485 21 OFFCURVE",
"478 21 CURVE SMOOTH",
"416 21 OFFCURVE",
"381 44 OFFCURVE",
"358 104 CURVE SMOOTH",
"320 201 OFFCURVE",
"269 368 OFFCURVE",
"227 487 CURVE",
"204 479 LINE",
"244 361 OFFCURVE",
"301 189 OFFCURVE",
"330 105 CURVE",
"289 50 OFFCURVE",
"221 16 OFFCURVE",
"142 16 CURVE SMOOTH",
"94 16 OFFCURVE",
"62 26 OFFCURVE",
"22 49 CURVE",
"18 24 LINE",
"47 2 OFFCURVE",
"90 -10 OFFCURVE",
"142 -10 CURVE SMOOTH"
);
}
);
width = 478;
},
{
anchors = (
{
name = bottom;
position = "{180, -111}";
},
{
name = bottom.dot;
position = "{182, -21}";
},
{
name = top;
position = "{229, 620}";
},
{
name = top.dot;
position = "{229, 506}";
}
);
layerId = "2F00052B-4CEF-4C35-9869-AAD90889B4C2";
paths = (
{
closed = 1;
nodes = (
"240 -10 OFFCURVE",
"319 38 OFFCURVE",
"358 102 CURVE",
"329 110 LINE",
"360 28 OFFCURVE",
"402 -7 OFFCURVE",
"478 -7 CURVE SMOOTH",
"504 -7 OFFCURVE",
"518 12 OFFCURVE",
"518 38 CURVE SMOOTH",
"518 59 OFFCURVE",
"506 79 OFFCURVE",
"482 79 CURVE SMOOTH",
"429 79 OFFCURVE",
"397 97 OFFCURVE",
"374 160 CURVE SMOOTH",
"344 245 OFFCURVE",
"302 386 OFFCURVE",
"259 517 CURVE",
"195 487 LINE",
"236 366 OFFCURVE",
"280 226 OFFCURVE",
"308 143 CURVE",
"272 103 OFFCURVE",
"214 76 OFFCURVE",
"146 76 CURVE SMOOTH",
"100 76 OFFCURVE",
"64 87 OFFCURVE",
"26 105 CURVE",
"22 25 LINE",
"49 3 OFFCURVE",
"96 -10 OFFCURVE",
"148 -10 CURVE SMOOTH"
);
}
);
width = 480;
}
);
leftMetricsKey = "dal-ar";
rightMetricsKey = _part.instroke;
unicode = FEAA;
},
{
glyphname = "reh-ar";
lastChange = "2020-02-28 21:16:18 +0000";
layers = (
{
anchors = (
{
name = bottom;
position = "{118, -297}";
},
{
name = bottom.dot;
position = "{118, -252}";
},
{
name = center;
position = "{195, 1}";
},
{
name = top;
position = "{247, 481}";
},
{
name = top.dot;
position = "{251, 350}";
}
);
layerId = "A2AC38AA-6CC4-4B2B-B5AB-64A49772F2D3";
paths = (
{
closed = 1;
nodes = (
"255 -260 OFFCURVE",
"352 -150 OFFCURVE",
"352 35 CURVE SMOOTH",
"352 127 OFFCURVE",
"320 225 OFFCURVE",
"268 308 CURVE",
"246 294 LINE",
"298 214 OFFCURVE",
"327 120 OFFCURVE",
"327 34 CURVE SMOOTH",
"327 -139 OFFCURVE",
"235 -234 OFFCURVE",
"68 -234 CURVE SMOOTH",
"4 -234 OFFCURVE",
"-33 -223 OFFCURVE",
"-75 -205 CURVE",
"-75 -231 LINE",
"-42 -248 OFFCURVE",
"1 -260 OFFCURVE",
"66 -260 CURVE SMOOTH"
);
}
);
width = 438;
},
{
anchors = (
{
name = bottom;
position = "{148, -308}";
},
{
name = bottom.dot;
position = "{148, -252}";
},
{
name = center;
position = "{211, 31}";
},
{
name = top;
position = "{237, 513}";
},
{
name = top.dot;
position = "{241, 360}";
}
);
layerId = "8594390A-478C-48BC-BAB2-0B8797A53DFB";
paths = (
{
closed = 1;
nodes = (
"320 -266 OFFCURVE",
"442 -143 OFFCURVE",
"442 66 CURVE SMOOTH",
"442 183 OFFCURVE",
"389 293 OFFCURVE",
"321 394 CURVE",
"180 305 LINE",
"242 202 OFFCURVE",
"282 125 OFFCURVE",
"282 52 CURVE SMOOTH",
"282 -53 OFFCURVE",
"206 -102 OFFCURVE",
"82 -102 CURVE SMOOTH",
"41 -102 OFFCURVE",
"2 -98 OFFCURVE",
"-42 -89 CURVE",
"-35 -238 LINE",
"1 -257 OFFCURVE",
"53 -266 OFFCURVE",
"107 -266 CURVE SMOOTH"
);
}
);
width = 490;
},
{
anchors = (
{
name = bottom;
position = "{130, -301}";
},
{
name = bottom.dot;
position = "{130, -252}";
},
{
name = center;
position = "{201, 13}";
},
{
name = top;
position = "{243, 493}";
},
{
name = top.dot;
position = "{247, 354}";
}
);
layerId = "5223E25A-A738-4F2F-8413-8856B096DF64";
paths = (
{
closed = 1;
nodes = (
"280 -262 OFFCURVE",
"387 -147 OFFCURVE",
"387 47 CURVE SMOOTH",
"387 149 OFFCURVE",
"347 252 OFFCURVE",
"289 342 CURVE",
"220 298 LINE",
"276 209 OFFCURVE",
"309 122 OFFCURVE",
"309 41 CURVE SMOOTH",
"309 -105 OFFCURVE",
"224 -182 OFFCURVE",
"73 -182 CURVE SMOOTH",
"18 -182 OFFCURVE",
"-19 -174 OFFCURVE",
"-62 -160 CURVE",
"-59 -234 LINE",
"-25 -252 OFFCURVE",
"21 -262 OFFCURVE",
"82 -262 CURVE SMOOTH"
);
}
);
width = 458;
},
{
anchors = (
{
name = bottom;
position = "{118, -308}";
},
{
name = bottom.dot;
position = "{118, -252}";
},
{
name = center;
position = "{169, 31}";
},
{
name = top;
position = "{190, 513}";
},
{
name = top.dot;
position = "{193, 360}";
}
);
layerId = "E5C955C8-F661-4960-B659-F2A3D2582D0D";
paths = (
{
closed = 1;
nodes = (
"265 -266 OFFCURVE",
"357 -153 OFFCURVE",
"357 56 CURVE SMOOTH",
"357 167 OFFCURVE",
"314 292 OFFCURVE",
"257 394 CURVE",
"133 320 LINE",
"184 218 OFFCURVE",
"221 131 OFFCURVE",
"221 52 CURVE SMOOTH",
"221 -53 OFFCURVE",
"165 -102 OFFCURVE",
"66 -102 CURVE SMOOTH",
"33 -102 OFFCURVE",
"2 -98 OFFCURVE",
"-34 -89 CURVE",
"-28 -238 LINE",
"1 -257 OFFCURVE",
"51 -266 OFFCURVE",
"95 -266 CURVE SMOOTH"
);
}
);
width = 392;
},
{
anchors = (
{
name = bottom;
position = "{94, -297}";
},
{
name = bottom.dot;
position = "{94, -242}";
},
{
name = center;
position = "{156, 1}";
},
{
name = top;
position = "{198, 481}";
},
{
name = top.dot;
position = "{201, 350}";
}
);
layerId = "E67DA94D-AF90-4AFA-8684-14D1F5822449";
paths = (
{
closed = 1;
nodes = (
"204 -260 OFFCURVE",
"282 -150 OFFCURVE",
"282 35 CURVE SMOOTH",
"282 127 OFFCURVE",
"254 225 OFFCURVE",
"214 308 CURVE",
"192 297 LINE",
"231 217 OFFCURVE",
"258 120 OFFCURVE",
"258 34 CURVE SMOOTH",
"258 -135 OFFCURVE",
"188 -234 OFFCURVE",
"54 -234 CURVE SMOOTH",
"3 -234 OFFCURVE",
"-26 -223 OFFCURVE",
"-60 -205 CURVE",
"-60 -231 LINE",
"-34 -248 OFFCURVE",
"1 -260 OFFCURVE",
"53 -260 CURVE SMOOTH"
);
}
);
width = 350;
},
{
anchors = (
{
name = bottom;
position = "{104, -301}";
},
{
name = bottom.dot;
position = "{104, -252}";
},
{
name = center;
position = "{161, 13}";
},
{
name = top;
position = "{194, 493}";
},
{
name = top.dot;
position = "{198, 354}";
}
);
layerId = "2F00052B-4CEF-4C35-9869-AAD90889B4C2";
paths = (
{
closed = 1;
nodes = (
"224 -262 OFFCURVE",
"310 -147 OFFCURVE",
"310 47 CURVE SMOOTH",
"310 149 OFFCURVE",
"273 252 OFFCURVE",
"231 342 CURVE",
"168 306 LINE",
"208 217 OFFCURVE",
"240 122 OFFCURVE",
"240 41 CURVE SMOOTH",
"240 -105 OFFCURVE",
"179 -182 OFFCURVE",
"58 -182 CURVE SMOOTH",
"14 -182 OFFCURVE",
"-15 -174 OFFCURVE",
"-50 -160 CURVE",
"-47 -234 LINE",
"-20 -252 OFFCURVE",
"17 -262 OFFCURVE",
"66 -262 CURVE SMOOTH"
);
}
);
width = 366;
}
);
rightKerningGroup = reh;
unicode = 0631;
},
{
glyphname = "reh-ar.fina";
lastChange = "2020-02-28 20:59:37 +0000";
layers = (
{
anchors = (
{
name = bottom;
position = "{118, -297}";
},
{
name = bottom.dot;
position = "{118, -252}";
},
{
name = center;
position = "{187, 1}";
},
{
name = top;
position = "{247, 483}";
},
{
name = top.dot;
position = "{251, 320}";
}
);
layerId = "A2AC38AA-6CC4-4B2B-B5AB-64A49772F2D3";
paths = (
{
closed = 1;
nodes = (
"248 -260 OFFCURVE",
"361 -128 OFFCURVE",
"348 92 CURVE",
"333 93 LINE",
"352 32 OFFCURVE",
"401 -5 OFFCURVE",
"492 -5 CURVE SMOOTH",
"500 -5 OFFCURVE",
"506 0 OFFCURVE",
"506 9 CURVE SMOOTH",
"506 15 OFFCURVE",
"503 21 OFFCURVE",
"495 21 CURVE SMOOTH",
"405 21 OFFCURVE",
"373 55 OFFCURVE",
"348 104 CURVE SMOOTH",
"331 138 OFFCURVE",
"303 220 OFFCURVE",
"271 297 CURVE",
"248 286 LINE",
"280 207 OFFCURVE",
"325 100 OFFCURVE",
"325 63 CURVE SMOOTH",
"325 -115 OFFCURVE",
"235 -234 OFFCURVE",
"68 -234 CURVE SMOOTH",
"12 -234 OFFCURVE",
"-35 -222 OFFCURVE",
"-75 -205 CURVE",
"-75 -231 LINE",
"-40 -249 OFFCURVE",
"9 -260 OFFCURVE",
"66 -260 CURVE SMOOTH"
);
}
);
width = 492;
},
{
anchors = (
{
name = bottom;
position = "{148, -308}";
},
{
name = bottom.dot;
position = "{148, -252}";
},
{
name = center;
position = "{211, 31}";
},
{
name = top;
position = "{257, 483}";
},
{
name = top.dot;
position = "{261, 340}";
}
);
layerId = "8594390A-478C-48BC-BAB2-0B8797A53DFB";
paths = (
{
closed = 1;
nodes = (
"305 -266 OFFCURVE",
"421 -152 OFFCURVE",
"421 76 CURVE",
"359 57 LINE",
"394 8 OFFCURVE",
"442 -10 OFFCURVE",
"507 -10 CURVE SMOOTH",
"574 -10 OFFCURVE",
"607 30 OFFCURVE",
"607 81 CURVE SMOOTH",
"607 126 OFFCURVE",
"581 170 OFFCURVE",
"517 170 CURVE SMOOTH",
"478 170 OFFCURVE",
"444 179 OFFCURVE",
"422 204 CURVE SMOOTH",
"398 232 OFFCURVE",
"372 286 OFFCURVE",
"339 359 CURVE",
"186 279 LINE",
"234 190 OFFCURVE",
"272 122 OFFCURVE",
"272 63 CURVE SMOOTH",
"272 -56 OFFCURVE",
"206 -102 OFFCURVE",
"82 -102 CURVE SMOOTH",
"41 -102 OFFCURVE",
"2 -98 OFFCURVE",
"-42 -89 CURVE",
"-35 -238 LINE",
"1 -257 OFFCURVE",
"53 -266 OFFCURVE",
"107 -266 CURVE SMOOTH"
);
}
);
width = 507;
},
{
anchors = (
{
name = bottom;
position = "{130, -301}";
},
{
name = bottom.dot;
position = "{130, -252}";
},
{
name = center;
position = "{196, 13}";
},
{
name = top;
position = "{251, 483}";
},
{
name = top.dot;
position = "{255, 328}";
}
);
layerId = "5223E25A-A738-4F2F-8413-8856B096DF64";
paths = (
{
closed = 1;
nodes = (
"270 -262 OFFCURVE",
"384 -137 OFFCURVE",
"376 86 CURVE",
"343 79 LINE",
"368 23 OFFCURVE",
"417 -7 OFFCURVE",
"498 -7 CURVE SMOOTH",
"529 -7 OFFCURVE",
"545 12 OFFCURVE",
"545 37 CURVE SMOOTH",
"545 58 OFFCURVE",
"533 79 OFFCURVE",
"504 79 CURVE SMOOTH",
"433 79 OFFCURVE",
"401 103 OFFCURVE",
"377 143 CURVE SMOOTH",
"357 175 OFFCURVE",
"330 246 OFFCURVE",
"298 321 CURVE",
"224 283 LINE",
"262 200 OFFCURVE",
"304 109 OFFCURVE",
"304 63 CURVE SMOOTH",
"304 -92 OFFCURVE",
"224 -182 OFFCURVE",
"73 -182 CURVE SMOOTH",
"23 -182 OFFCURVE",
"-21 -174 OFFCURVE",
"-62 -160 CURVE",
"-59 -234 LINE",
"-24 -252 OFFCURVE",
"26 -262 OFFCURVE",
"82 -262 CURVE SMOOTH"
);
}
);
width = 498;
},
{
anchors = (
{
name = bottom;
position = "{118, -308}";
},
{
name = bottom.dot;
position = "{118, -252}";
},
{
name = center;
position = "{169, 31}";
},
{
name = top;
position = "{206, 483}";
},
{
name = top.dot;
position = "{209, 340}";
}
);
layerId = "E5C955C8-F661-4960-B659-F2A3D2582D0D";
paths = (
{
closed = 1;
nodes = (
"254 -266 OFFCURVE",
"337 -162 OFFCURVE",
"337 66 CURVE",
"287 57 LINE",
"315 8 OFFCURVE",
"354 -10 OFFCURVE",
"406 -10 CURVE SMOOTH",
"459 -10 OFFCURVE",
"486 30 OFFCURVE",
"486 81 CURVE SMOOTH",
"486 126 OFFCURVE",
"465 170 OFFCURVE",
"414 170 CURVE SMOOTH",
"382 170 OFFCURVE",
"357 179 OFFCURVE",
"340 204 CURVE SMOOTH",
"320 232 OFFCURVE",
"300 286 OFFCURVE",
"271 359 CURVE",
"145 295 LINE",
"186 206 OFFCURVE",
"213 131 OFFCURVE",
"213 63 CURVE SMOOTH",
"213 -51 OFFCURVE",
"159 -102 OFFCURVE",
"66 -102 CURVE SMOOTH",
"33 -102 OFFCURVE",
"2 -98 OFFCURVE",
"-34 -89 CURVE",
"-28 -238 LINE",
"1 -257 OFFCURVE",
"52 -266 OFFCURVE",
"96 -266 CURVE SMOOTH"
);
}
);
width = 406;
},
{
anchors = (
{
name = bottom;
position = "{94, -297}";
},
{
name = bottom.dot;
position = "{94, -242}";
},
{
name = center;
position = "{150, 1}";
},
{
name = top;
position = "{198, 483}";
},
{
name = top.dot;
position = "{201, 320}";
}
);
layerId = "E67DA94D-AF90-4AFA-8684-14D1F5822449";
paths = (
{
closed = 1;
nodes = (
"198 -260 OFFCURVE",
"289 -128 OFFCURVE",
"278 92 CURVE",
"265 88 LINE",
"281 27 OFFCURVE",
"321 -5 OFFCURVE",
"394 -5 CURVE SMOOTH",
"400 -5 OFFCURVE",
"405 0 OFFCURVE",
"405 9 CURVE SMOOTH",
"405 15 OFFCURVE",
"402 21 OFFCURVE",
"396 21 CURVE SMOOTH",
"324 21 OFFCURVE",
"298 55 OFFCURVE",
"278 104 CURVE SMOOTH",
"265 138 OFFCURVE",
"242 220 OFFCURVE",
"217 297 CURVE",
"194 289 LINE",
"220 210 OFFCURVE",
"256 100 OFFCURVE",
"256 63 CURVE SMOOTH",
"256 -115 OFFCURVE",
"188 -234 OFFCURVE",
"54 -234 CURVE SMOOTH",
"10 -234 OFFCURVE",
"-28 -222 OFFCURVE",
"-60 -205 CURVE",
"-60 -231 LINE",
"-32 -249 OFFCURVE",
"7 -260 OFFCURVE",
"53 -260 CURVE SMOOTH"
);
}
);
width = 393;
},
{
anchors = (
{
name = bottom;
position = "{104, -301}";
},
{
name = bottom.dot;
position = "{104, -252}";
},
{
name = center;
position = "{157, 13}";
},
{
name = top;
position = "{201, 483}";
},
{
name = top.dot;
position = "{204, 328}";
}
);
layerId = "2F00052B-4CEF-4C35-9869-AAD90889B4C2";
paths = (
{
closed = 1;
nodes = (
"216 -262 OFFCURVE",
"307 -137 OFFCURVE",
"301 86 CURVE",
"274 79 LINE",
"294 23 OFFCURVE",
"334 -7 OFFCURVE",
"398 -7 CURVE SMOOTH",
"423 -7 OFFCURVE",
"436 12 OFFCURVE",
"436 37 CURVE SMOOTH",
"436 58 OFFCURVE",
"426 79 OFFCURVE",
"403 79 CURVE SMOOTH",
"346 79 OFFCURVE",
"321 103 OFFCURVE",
"302 143 CURVE SMOOTH",
"286 175 OFFCURVE",
"264 246 OFFCURVE",
"238 321 CURVE",
"173 288 LINE",
"204 205 OFFCURVE",
"236 109 OFFCURVE",
"236 63 CURVE SMOOTH",
"236 -92 OFFCURVE",
"179 -182 OFFCURVE",
"58 -182 CURVE SMOOTH",
"18 -182 OFFCURVE",
"-17 -174 OFFCURVE",
"-50 -160 CURVE",
"-47 -234 LINE",
"-19 -252 OFFCURVE",
"21 -262 OFFCURVE",
"66 -262 CURVE SMOOTH"
);
}
);
width = 398;
}
);
leftMetricsKey = "reh-ar";
rightKerningGroup = reh;
rightMetricsKey = _part.instroke;
unicode = FEAE;
},
{
glyphname = "rehLoop-ar";
lastChange = "2020-02-25 18:41:13 +0000";
layers = (
{
anchors = (
{
name = bottom;
position = "{308, -357}";
},
{
name = top;
position = "{447, 481}";
}
);
layerId = "A2AC38AA-6CC4-4B2B-B5AB-64A49772F2D3";
paths = (
{
closed = 1;
nodes = (
"310 -255 OFFCURVE",
"325 -180 OFFCURVE",
"325 -86 CURVE SMOOTH",
"325 22 OFFCURVE",
"287 85 OFFCURVE",
"207 85 CURVE SMOOTH",
"133 85 OFFCURVE",
"74 17 OFFCURVE",
"74 -89 CURVE SMOOTH",
"74 -188 OFFCURVE",
"143 -260 OFFCURVE",
"271 -260 CURVE SMOOTH",
"455 -260 OFFCURVE",
"552 -160 OFFCURVE",
"552 35 CURVE SMOOTH",
"552 127 OFFCURVE",
"520 225 OFFCURVE",
"468 308 CURVE",
"446 294 LINE",
"498 214 OFFCURVE",
"527 120 OFFCURVE",
"527 34 CURVE SMOOTH",
"527 -139 OFFCURVE",
"437 -236 OFFCURVE",
"271 -236 CURVE SMOOTH",
"157 -236 OFFCURVE",
"98 -175 OFFCURVE",
"98 -84 CURVE",
"98 -84 LINE",
"98 -3 OFFCURVE",
"141 60 OFFCURVE",
"206 60 CURVE SMOOTH",
"270 60 OFFCURVE",
"300 11 OFFCURVE",
"300 -87 CURVE SMOOTH",
"300 -178 OFFCURVE",
"285 -251 OFFCURVE",
"262 -361 CURVE",
"285 -365 LINE"
);
}
);
width = 638;
},
{
anchors = (
{
name = bottom;
position = "{286, -338}";
},
{
name = top;
position = "{375, 513}";
}
);
layerId = "8594390A-478C-48BC-BAB2-0B8797A53DFB";
paths = (
{
closed = 1;
nodes = (
"300 -254 OFFCURVE",
"313 -197 OFFCURVE",
"313 -66 CURVE SMOOTH",
"313 56 OFFCURVE",
"274 153 OFFCURVE",
"180 153 CURVE SMOOTH",
"82 153 OFFCURVE",
"30 46 OFFCURVE",
"30 -62 CURVE SMOOTH",
"30 -192 OFFCURVE",
"118 -266 OFFCURVE",
"245 -266 CURVE SMOOTH",
"439 -266 OFFCURVE",
"580 -143 OFFCURVE",
"580 66 CURVE SMOOTH",
"580 183 OFFCURVE",
"527 293 OFFCURVE",
"459 394 CURVE",
"318 305 LINE",
"380 202 OFFCURVE",
"420 125 OFFCURVE",
"420 52 CURVE SMOOTH",
"420 -53 OFFCURVE",
"354 -107 OFFCURVE",
"240 -107 CURVE SMOOTH",
"164 -107 OFFCURVE",
"114 -81 OFFCURVE",
"81 -43 CURVE",
"102 -104 LINE",
"106 -33 OFFCURVE",
"126 5 OFFCURVE",
"158 5 CURVE SMOOTH",
"199 5 OFFCURVE",
"217 -44 OFFCURVE",
"216 -111 CURVE SMOOTH",
"215 -190 OFFCURVE",
"211 -246 OFFCURVE",
"203 -335 CURVE",
"283 -344 LINE"
);
}
);
width = 628;
},
{
anchors = (
{
name = bottom;
position = "{299, -350}";
},
{
name = top;
position = "{419, 493}";
}
);
layerId = "5223E25A-A738-4F2F-8413-8856B096DF64";
paths = (
{
closed = 1;
nodes = (
"310 -256 OFFCURVE",
"326 -184 OFFCURVE",
"326 -78 CURVE SMOOTH",
"326 35 OFFCURVE",
"282 112 OFFCURVE",
"196 112 CURVE SMOOTH",
"113 112 OFFCURVE",
"57 36 OFFCURVE",
"57 -75 CURVE SMOOTH",
"57 -194 OFFCURVE",
"133 -262 OFFCURVE",
"261 -262 CURVE SMOOTH",
"449 -262 OFFCURVE",
"563 -153 OFFCURVE",
"563 47 CURVE SMOOTH",
"563 149 OFFCURVE",
"523 252 OFFCURVE",
"464 342 CURVE",
"396 298 LINE",
"452 209 OFFCURVE",
"485 122 OFFCURVE",
"485 41 CURVE SMOOTH",
"485 -105 OFFCURVE",
"405 -186 OFFCURVE",
"259 -186 CURVE SMOOTH",
"157 -186 OFFCURVE",
"123 -136 OFFCURVE",
"123 -71 CURVE",
"123 -71 LINE",
"123 0 OFFCURVE",
"153 39 OFFCURVE",
"191 39 CURVE SMOOTH",
"243 39 OFFCURVE",
"259 -10 OFFCURVE",
"259 -96 CURVE SMOOTH",
"259 -183 OFFCURVE",
"245 -247 OFFCURVE",
"227 -348 CURVE",
"288 -358 LINE"
);
}
);
width = 634;
},
{
anchors = (
{
name = bottom;
position = "{229, -338}";
},
{
name = top;
position = "{300, 513}";
}
);
layerId = "E5C955C8-F661-4960-B659-F2A3D2582D0D";
paths = (
{
closed = 1;
nodes = (
"251 -254 OFFCURVE",
"261 -187 OFFCURVE",
"261 -66 CURVE SMOOTH",
"261 66 OFFCURVE",
"219 153 OFFCURVE",
"144 153 CURVE SMOOTH",
"66 153 OFFCURVE",
"24 46 OFFCURVE",
"24 -62 CURVE SMOOTH",
"24 -192 OFFCURVE",
"94 -266 OFFCURVE",
"216 -266 CURVE SMOOTH",
"371 -266 OFFCURVE",
"471 -143 OFFCURVE",
"471 66 CURVE SMOOTH",
"471 183 OFFCURVE",
"426 293 OFFCURVE",
"371 394 CURVE",
"247 320 LINE",
"297 217 OFFCURVE",
"335 125 OFFCURVE",
"335 52 CURVE SMOOTH",
"335 -53 OFFCURVE",
"283 -107 OFFCURVE",
"192 -107 CURVE SMOOTH",
"131 -107 OFFCURVE",
"100 -81 OFFCURVE",
"74 -43 CURVE",
"91 -104 LINE",
"92 -33 OFFCURVE",
"107 5 OFFCURVE",
"135 5 CURVE SMOOTH",
"164 5 OFFCURVE",
"174 -44 OFFCURVE",
"173 -111 CURVE SMOOTH",
"172 -190 OFFCURVE",
"164 -246 OFFCURVE",
"155 -335 CURVE",
"237 -344 LINE"
);
}
);
width = 506;
},
{
anchors = (
{
name = bottom;
position = "{246, -357}";
},
{
name = top;
position = "{358, 481}";
}
);
layerId = "E67DA94D-AF90-4AFA-8684-14D1F5822449";
paths = (
{
closed = 1;
nodes = (
"248 -255 OFFCURVE",
"261 -180 OFFCURVE",
"261 -86 CURVE SMOOTH",
"261 22 OFFCURVE",
"231 85 OFFCURVE",
"166 85 CURVE SMOOTH",
"106 85 OFFCURVE",
"59 17 OFFCURVE",
"59 -89 CURVE SMOOTH",
"59 -188 OFFCURVE",
"114 -260 OFFCURVE",
"217 -260 CURVE SMOOTH",
"364 -260 OFFCURVE",
"442 -160 OFFCURVE",
"442 35 CURVE SMOOTH",
"442 127 OFFCURVE",
"416 225 OFFCURVE",
"374 308 CURVE",
"353 297 LINE",
"394 217 OFFCURVE",
"418 120 OFFCURVE",
"418 34 CURVE SMOOTH",
"418 -139 OFFCURVE",
"350 -236 OFFCURVE",
"217 -236 CURVE SMOOTH",
"126 -236 OFFCURVE",
"82 -175 OFFCURVE",
"82 -84 CURVE",
"82 -84 LINE",
"82 -3 OFFCURVE",
"113 59 OFFCURVE",
"165 59 CURVE SMOOTH",
"216 59 OFFCURVE",
"237 11 OFFCURVE",
"237 -87 CURVE SMOOTH",
"237 -178 OFFCURVE",
"224 -251 OFFCURVE",
"206 -361 CURVE",
"228 -365 LINE"
);
}
);
width = 510;
},
{
anchors = (
{
name = bottom;
position = "{239, -350}";
},
{
name = top;
position = "{335, 493}";
}
);
layerId = "2F00052B-4CEF-4C35-9869-AAD90889B4C2";
paths = (
{
closed = 1;
nodes = (
"248 -256 OFFCURVE",
"261 -184 OFFCURVE",
"261 -78 CURVE SMOOTH",
"261 35 OFFCURVE",
"226 112 OFFCURVE",
"157 112 CURVE SMOOTH",
"90 112 OFFCURVE",
"46 36 OFFCURVE",
"46 -75 CURVE SMOOTH",
"46 -194 OFFCURVE",
"106 -262 OFFCURVE",
"209 -262 CURVE SMOOTH",
"359 -262 OFFCURVE",
"450 -153 OFFCURVE",
"450 47 CURVE SMOOTH",
"450 149 OFFCURVE",
"413 252 OFFCURVE",
"371 342 CURVE",
"308 306 LINE",
"348 217 OFFCURVE",
"380 122 OFFCURVE",
"380 41 CURVE SMOOTH",
"380 -105 OFFCURVE",
"316 -182 OFFCURVE",
"209 -182 CURVE SMOOTH",
"141 -182 OFFCURVE",
"103 -146 OFFCURVE",
"103 -71 CURVE",
"103 -71 LINE",
"103 0 OFFCURVE",
"122 41 OFFCURVE",
"153 41 CURVE SMOOTH",
"194 41 OFFCURVE",
"203 -10 OFFCURVE",
"203 -96 CURVE SMOOTH",
"203 -183 OFFCURVE",
"191 -247 OFFCURVE",
"174 -348 CURVE",
"230 -358 LINE"
);
}
);
width = 506;
}
);
rightMetricsKey = "reh-ar";
unicode = 08AA;
},
{
glyphname = "seen-ar";
lastChange = "2020-02-28 10:12:55 +0000";
layers = (
{
anchors = (
{
name = bottom;
position = "{904, -111}";
},
{
name = bottom.dot;
position = "{904, -20}";
},
{
name = top;
position = "{913, 451}";
},
{
name = top.dot;
position = "{914, 341}";
}
);
layerId = "A2AC38AA-6CC4-4B2B-B5AB-64A49772F2D3";
paths = (
{
closed = 1;
nodes = (
"530 -240 OFFCURVE",
"635 -111 OFFCURVE",
"625 92 CURVE",
"610 93 LINE",
"622 42 OFFCURVE",
"657 -10 OFFCURVE",
"759 -10 CURVE SMOOTH",
"837 -10 OFFCURVE",
"898 17 OFFCURVE",
"917 102 CURVE",
"908 100 LINE",
"915 30 OFFCURVE",
"952 -10 OFFCURVE",
"1058 -10 CURVE SMOOTH",
"1147 -10 OFFCURVE",
"1207 35 OFFCURVE",
"1207 137 CURVE SMOOTH",
"1207 213 OFFCURVE",
"1189 277 OFFCURVE",
"1161 363 CURVE",
"1137 354 LINE",
"1167 263 OFFCURVE",
"1182 200 OFFCURVE",
"1182 131 CURVE SMOOTH",
"1182 55 OFFCURVE",
"1138 16 OFFCURVE",
"1063 16 CURVE SMOOTH",
"968 16 OFFCURVE",
"936 46 OFFCURVE",
"931 110 CURVE SMOOTH",
"928 145 OFFCURVE",
"930 218 OFFCURVE",
"928 284 CURVE",
"903 282 LINE",
"905 212 OFFCURVE",
"904 160 OFFCURVE",
"898 121 CURVE SMOOTH",
"887 52 OFFCURVE",
"850 16 OFFCURVE",
"763 16 CURVE SMOOTH",
"693 16 OFFCURVE",
"642 43 OFFCURVE",
"626 108 CURVE SMOOTH",
"616 148 OFFCURVE",
"607 195 OFFCURVE",
"590 265 CURVE",
"565 258 LINE",
"583 185 OFFCURVE",
"601 114 OFFCURVE",
"601 56 CURVE SMOOTH",
"601 -91 OFFCURVE",
"519 -214 OFFCURVE",
"316 -214 CURVE SMOOTH",
"148 -214 OFFCURVE",
"76 -122 OFFCURVE",
"76 1 CURVE SMOOTH",
"76 62 OFFCURVE",
"88 117 OFFCURVE",
"106 174 CURVE",
"83 181 LINE",
"62 117 OFFCURVE",
"50 55 OFFCURVE",
"50 -2 CURVE SMOOTH",
"50 -135 OFFCURVE",
"128 -240 OFFCURVE",
"312 -240 CURVE SMOOTH"
);
}
);
width = 1267;
},
{
anchors = (
{
name = bottom;
position = "{924, -111}";
},
{
name = bottom.dot;
position = "{924, -20}";
},
{
name = top;
position = "{933, 532}";
},
{
name = top.dot;
position = "{934, 391}";
}
);
layerId = "8594390A-478C-48BC-BAB2-0B8797A53DFB";
paths = (
{
closed = 1;
nodes = (
"526 -232 OFFCURVE",
"708 -127 OFFCURVE",
"689 113 CURVE",
"624 106 LINE",
"653 14 OFFCURVE",
"718 -10 OFFCURVE",
"774 -10 CURVE SMOOTH",
"856 -10 OFFCURVE",
"926 24 OFFCURVE",
"951 141 CURVE",
"915 141 LINE",
"933 26 OFFCURVE",
"1000 -10 OFFCURVE",
"1077 -10 CURVE SMOOTH",
"1220 -10 OFFCURVE",
"1283 86 OFFCURVE",
"1283 231 CURVE SMOOTH",
"1283 295 OFFCURVE",
"1271 378 OFFCURVE",
"1236 466 CURVE",
"1092 420 LINE",
"1110 352 OFFCURVE",
"1122 299 OFFCURVE",
"1122 246 CURVE SMOOTH",
"1122 192 OFFCURVE",
"1106 170 OFFCURVE",
"1057 170 CURVE SMOOTH",
"1018 170 OFFCURVE",
"1002 182 OFFCURVE",
"995 231 CURVE SMOOTH",
"990 268 OFFCURVE",
"989 305 OFFCURVE",
"986 381 CURVE",
"843 368 LINE",
"844 298 OFFCURVE",
"842 250 OFFCURVE",
"834 220 CURVE SMOOTH",
"823 181 OFFCURVE",
"796 170 OFFCURVE",
"758 170 CURVE SMOOTH",
"730 170 OFFCURVE",
"704 182 OFFCURVE",
"692 208 CURVE SMOOTH",
"676 243 OFFCURVE",
"669 296 OFFCURVE",
"655 370 CURVE",
"508 335 LINE",
"522 254 OFFCURVE",
"536 177 OFFCURVE",
"536 108 CURVE SMOOTH",
"536 -10 OFFCURVE",
"464 -52 OFFCURVE",
"344 -52 CURVE SMOOTH",
"252 -52 OFFCURVE",
"201 -27 OFFCURVE",
"201 71 CURVE SMOOTH",
"201 123 OFFCURVE",
"209 167 OFFCURVE",
"225 236 CURVE",
"99 263 LINE",
"60 176 OFFCURVE",
"44 99 OFFCURVE",
"44 33 CURVE SMOOTH",
"44 -148 OFFCURVE",
"155 -232 OFFCURVE",
"328 -232 CURVE SMOOTH"
);
}
);
width = 1338;
},
{
anchors = (
{
name = bottom;
position = "{912, -111}";
},
{
name = bottom.dot;
position = "{912, -20}";
},
{
name = top;
position = "{921, 483}";
},
{
name = top.dot;
position = "{922, 361}";
}
);
layerId = "5223E25A-A738-4F2F-8413-8856B096DF64";
paths = (
{
closed = 1;
nodes = (
"528 -237 OFFCURVE",
"663 -117 OFFCURVE",
"650 100 CURVE",
"615 98 LINE",
"634 31 OFFCURVE",
"681 -10 OFFCURVE",
"765 -10 CURVE SMOOTH",
"844 -10 OFFCURVE",
"909 20 OFFCURVE",
"930 117 CURVE",
"911 116 LINE",
"922 28 OFFCURVE",
"971 -10 OFFCURVE",
"1065 -10 CURVE SMOOTH",
"1175 -10 OFFCURVE",
"1237 55 OFFCURVE",
"1237 174 CURVE SMOOTH",
"1237 245 OFFCURVE",
"1221 316 OFFCURVE",
"1190 403 CURVE",
"1119 380 LINE",
"1145 298 OFFCURVE",
"1159 239 OFFCURVE",
"1159 176 CURVE SMOOTH",
"1159 108 OFFCURVE",
"1126 76 OFFCURVE",
"1061 76 CURVE SMOOTH",
"988 76 OFFCURVE",
"962 99 OFFCURVE",
"956 157 CURVE SMOOTH",
"952 193 OFFCURVE",
"953 252 OFFCURVE",
"951 322 CURVE",
"880 316 LINE",
"881 246 OFFCURVE",
"880 195 OFFCURVE",
"873 160 CURVE SMOOTH",
"862 102 OFFCURVE",
"829 76 OFFCURVE",
"761 76 CURVE SMOOTH",
"707 76 OFFCURVE",
"666 97 OFFCURVE",
"652 147 CURVE SMOOTH",
"639 185 OFFCURVE",
"631 234 OFFCURVE",
"615 306 CURVE",
"543 288 LINE",
"559 212 OFFCURVE",
"576 139 OFFCURVE",
"576 76 CURVE SMOOTH",
"576 -59 OFFCURVE",
"498 -151 OFFCURVE",
"327 -151 CURVE SMOOTH",
"189 -151 OFFCURVE",
"125 -85 OFFCURVE",
"125 28 CURVE SMOOTH",
"125 86 OFFCURVE",
"135 137 OFFCURVE",
"152 198 CURVE",
"89 213 LINE",
"61 140 OFFCURVE",
"48 72 OFFCURVE",
"48 12 CURVE SMOOTH",
"48 -140 OFFCURVE",
"139 -237 OFFCURVE",
"318 -237 CURVE SMOOTH"
);
}
);
width = 1295;
},
{
anchors = (
{
name = bottom;
position = "{739, -111}";
},
{
name = bottom.dot;
position = "{739, -20}";
},
{
name = top;
position = "{746, 532}";
},
{
name = top.dot;
position = "{747, 391}";
}
);
layerId = "E5C955C8-F661-4960-B659-F2A3D2582D0D";
paths = (
{
closed = 1;
nodes = (
"421 -232 OFFCURVE",
"566 -127 OFFCURVE",
"551 113 CURVE",
"499 106 LINE",
"522 14 OFFCURVE",
"577 -10 OFFCURVE",
"625 -10 CURVE SMOOTH",
"691 -10 OFFCURVE",
"741 24 OFFCURVE",
"761 141 CURVE",
"732 141 LINE",
"746 26 OFFCURVE",
"800 -10 OFFCURVE",
"862 -10 CURVE SMOOTH",
"976 -10 OFFCURVE",
"1026 86 OFFCURVE",
"1026 231 CURVE SMOOTH",
"1026 295 OFFCURVE",
"1017 370 OFFCURVE",
"991 456 CURVE",
"873 424 LINE",
"890 356 OFFCURVE",
"898 299 OFFCURVE",
"898 246 CURVE SMOOTH",
"898 192 OFFCURVE",
"885 170 OFFCURVE",
"846 170 CURVE SMOOTH",
"814 170 OFFCURVE",
"801 182 OFFCURVE",
"795 231 CURVE SMOOTH",
"791 268 OFFCURVE",
"791 305 OFFCURVE",
"789 381 CURVE",
"674 373 LINE",
"675 303 OFFCURVE",
"676 250 OFFCURVE",
"669 220 CURVE SMOOTH",
"661 183 OFFCURVE",
"638 170 OFFCURVE",
"606 170 CURVE SMOOTH",
"580 170 OFFCURVE",
"563 182 OFFCURVE",
"554 208 CURVE SMOOTH",
"541 243 OFFCURVE",
"535 292 OFFCURVE",
"524 370 CURVE",
"400 347 LINE",
"413 256 OFFCURVE",
"423 177 OFFCURVE",
"423 108 CURVE SMOOTH",
"423 -10 OFFCURVE",
"370 -52 OFFCURVE",
"275 -52 CURVE SMOOTH",
"202 -52 OFFCURVE",
"161 -27 OFFCURVE",
"161 71 CURVE SMOOTH",
"161 123 OFFCURVE",
"167 167 OFFCURVE",
"180 236 CURVE",
"79 263 LINE",
"48 176 OFFCURVE",
"35 99 OFFCURVE",
"35 33 CURVE SMOOTH",
"35 -148 OFFCURVE",
"124 -232 OFFCURVE",
"262 -232 CURVE SMOOTH"
);
}
);
width = 1066;
},
{
anchors = (
{
name = bottom;
position = "{723, -111}";
},
{
name = bottom.dot;
position = "{723, -20}";
},
{
name = top;
position = "{730, 451}";
},
{
name = top.dot;
position = "{731, 341}";
}
);
layerId = "E67DA94D-AF90-4AFA-8684-14D1F5822449";
paths = (
{
closed = 1;
nodes = (
"424 -240 OFFCURVE",
"508 -111 OFFCURVE",
"500 92 CURVE",
"487 93 LINE",
"497 42 OFFCURVE",
"526 -10 OFFCURVE",
"607 -10 CURVE SMOOTH",
"670 -10 OFFCURVE",
"719 17 OFFCURVE",
"735 102 CURVE",
"725 100 LINE",
"731 30 OFFCURVE",
"762 -10 OFFCURVE",
"846 -10 CURVE SMOOTH",
"918 -10 OFFCURVE",
"966 35 OFFCURVE",
"966 137 CURVE SMOOTH",
"966 213 OFFCURVE",
"951 277 OFFCURVE",
"929 363 CURVE",
"906 357 LINE",
"930 266 OFFCURVE",
"942 200 OFFCURVE",
"942 131 CURVE SMOOTH",
"942 55 OFFCURVE",
"910 16 OFFCURVE",
"850 16 CURVE SMOOTH",
"774 16 OFFCURVE",
"752 46 OFFCURVE",
"747 110 CURVE SMOOTH",
"744 145 OFFCURVE",
"746 218 OFFCURVE",
"744 284 CURVE",
"720 282 LINE",
"722 212 OFFCURVE",
"723 160 OFFCURVE",
"717 121 CURVE SMOOTH",
"706 53 OFFCURVE",
"680 16 OFFCURVE",
"610 16 CURVE SMOOTH",
"554 16 OFFCURVE",
"514 43 OFFCURVE",
"501 108 CURVE SMOOTH",
"493 148 OFFCURVE",
"486 195 OFFCURVE",
"472 265 CURVE",
"448 260 LINE",
"462 187 OFFCURVE",
"477 114 OFFCURVE",
"477 56 CURVE SMOOTH",
"477 -91 OFFCURVE",
"415 -214 OFFCURVE",
"253 -214 CURVE SMOOTH",
"118 -214 OFFCURVE",
"64 -122 OFFCURVE",
"64 1 CURVE SMOOTH",
"64 62 OFFCURVE",
"73 118 OFFCURVE",
"88 175 CURVE",
"66 181 LINE",
"50 117 OFFCURVE",
"40 55 OFFCURVE",
"40 -2 CURVE SMOOTH",
"40 -135 OFFCURVE",
"102 -240 OFFCURVE",
"250 -240 CURVE SMOOTH"
);
}
);
width = 1014;
},
{
anchors = (
{
name = bottom;
position = "{730, -111}";
},
{
name = bottom.dot;
position = "{730, -20}";
},
{
name = top;
position = "{737, 483}";
},
{
name = top.dot;
position = "{738, 361}";
}
);
layerId = "2F00052B-4CEF-4C35-9869-AAD90889B4C2";
paths = (
{
closed = 1;
nodes = (
"422 -237 OFFCURVE",
"530 -117 OFFCURVE",
"520 100 CURVE",
"492 98 LINE",
"505 29 OFFCURVE",
"545 -10 OFFCURVE",
"612 -10 CURVE SMOOTH",
"675 -10 OFFCURVE",
"731 20 OFFCURVE",
"748 117 CURVE",
"723 116 LINE",
"732 28 OFFCURVE",
"777 -10 OFFCURVE",
"852 -10 CURVE SMOOTH",
"940 -10 OFFCURVE",
"990 55 OFFCURVE",
"990 174 CURVE SMOOTH",
"990 245 OFFCURVE",
"977 316 OFFCURVE",
"952 403 CURVE",
"891 384 LINE",
"912 302 OFFCURVE",
"923 239 OFFCURVE",
"923 176 CURVE SMOOTH",
"923 108 OFFCURVE",
"901 76 OFFCURVE",
"849 76 CURVE SMOOTH",
"794 76 OFFCURVE",
"771 98 OFFCURVE",
"766 156 CURVE SMOOTH",
"763 192 OFFCURVE",
"763 251 OFFCURVE",
"762 321 CURVE",
"702 316 LINE",
"703 246 OFFCURVE",
"702 195 OFFCURVE",
"696 160 CURVE SMOOTH",
"686 102 OFFCURVE",
"663 76 OFFCURVE",
"609 76 CURVE SMOOTH",
"566 76 OFFCURVE",
"533 97 OFFCURVE",
"522 147 CURVE SMOOTH",
"511 185 OFFCURVE",
"505 234 OFFCURVE",
"492 306 CURVE",
"428 290 LINE",
"441 214 OFFCURVE",
"455 139 OFFCURVE",
"455 76 CURVE SMOOTH",
"455 -59 OFFCURVE",
"398 -151 OFFCURVE",
"262 -151 CURVE SMOOTH",
"151 -151 OFFCURVE",
"106 -85 OFFCURVE",
"106 28 CURVE SMOOTH",
"106 86 OFFCURVE",
"114 137 OFFCURVE",
"128 198 CURVE",
"71 213 LINE",
"49 140 OFFCURVE",
"38 72 OFFCURVE",
"38 12 CURVE SMOOTH",
"38 -140 OFFCURVE",
"111 -237 OFFCURVE",
"254 -237 CURVE SMOOTH"
);
}
);
width = 1036;
}
);
leftMetricsKey = "noonghunna-ar";
rightMetricsKey = "dotlessbeh-ar.init";
unicode = 0633;
},
{
glyphname = "seen-ar.fina";
lastChange = "2020-02-28 10:12:55 +0000";
layers = (
{
anchors = (
{
name = bottom;
position = "{904, -111}";
},
{
name = bottom.dot;
position = "{904, -20}";
},
{
name = top;
position = "{912, 451}";
},
{
name = top.dot;
position = "{914, 341}";
}
);
layerId = "A2AC38AA-6CC4-4B2B-B5AB-64A49772F2D3";
paths = (
{
closed = 1;
nodes = (
"530 -240 OFFCURVE",
"635 -111 OFFCURVE",
"625 92 CURVE",
"610 93 LINE",
"622 42 OFFCURVE",
"657 -10 OFFCURVE",
"759 -10 CURVE SMOOTH",
"837 -10 OFFCURVE",
"898 17 OFFCURVE",
"917 102 CURVE",
"908 100 LINE",
"915 30 OFFCURVE",
"952 -10 OFFCURVE",
"1058 -10 CURVE SMOOTH",
"1121 -10 OFFCURVE",
"1186 12 OFFCURVE",
"1199 102 CURVE",
"1190 100 LINE",
"1203 27 OFFCURVE",
"1260 -5 OFFCURVE",
"1362 -5 CURVE",
"1370 -5 OFFCURVE",
"1376 2 OFFCURVE",
"1376 8 CURVE SMOOTH",
"1376 14 OFFCURVE",
"1373 21 OFFCURVE",
"1365 21 CURVE",
"1248 23 OFFCURVE",
"1212 64 OFFCURVE",
"1204 138 CURVE SMOOTH",
"1199 187 OFFCURVE",
"1196 247 OFFCURVE",
"1191 322 CURVE",
"1166 320 LINE",
"1170 239 OFFCURVE",
"1176 172 OFFCURVE",
"1176 125 CURVE SMOOTH",
"1176 57 OFFCURVE",
"1137 16 OFFCURVE",
"1063 16 CURVE SMOOTH",
"968 16 OFFCURVE",
"936 46 OFFCURVE",
"931 110 CURVE SMOOTH",
"928 145 OFFCURVE",
"930 218 OFFCURVE",
"928 284 CURVE",
"903 282 LINE",
"905 212 OFFCURVE",
"904 160 OFFCURVE",
"898 121 CURVE SMOOTH",
"887 52 OFFCURVE",
"850 16 OFFCURVE",
"763 16 CURVE SMOOTH",
"693 16 OFFCURVE",
"642 43 OFFCURVE",
"626 108 CURVE SMOOTH",
"616 148 OFFCURVE",
"607 195 OFFCURVE",
"590 265 CURVE",
"565 258 LINE",
"583 185 OFFCURVE",
"601 114 OFFCURVE",
"601 56 CURVE SMOOTH",
"601 -91 OFFCURVE",
"519 -214 OFFCURVE",
"316 -214 CURVE SMOOTH",
"148 -214 OFFCURVE",
"76 -122 OFFCURVE",
"76 1 CURVE SMOOTH",
"76 62 OFFCURVE",
"88 117 OFFCURVE",
"106 174 CURVE",
"83 181 LINE",
"62 117 OFFCURVE",
"50 55 OFFCURVE",
"50 -2 CURVE SMOOTH",
"50 -135 OFFCURVE",
"128 -240 OFFCURVE",
"312 -240 CURVE SMOOTH"
);
}
);
width = 1362;
},
{
anchors = (
{
name = bottom;
position = "{924, -111}";
},
{
name = bottom.dot;
position = "{924, -20}";
},
{
name = top;
position = "{926, 532}";
},
{
name = top.dot;
position = "{934, 391}";
}
);
layerId = "8594390A-478C-48BC-BAB2-0B8797A53DFB";
paths = (
{
closed = 1;
nodes = (
"526 -232 OFFCURVE",
"708 -127 OFFCURVE",
"689 113 CURVE",
"624 106 LINE",
"653 14 OFFCURVE",
"718 -10 OFFCURVE",
"774 -10 CURVE SMOOTH",
"856 -10 OFFCURVE",
"926 24 OFFCURVE",
"951 141 CURVE",
"915 141 LINE",
"933 26 OFFCURVE",
"1000 -10 OFFCURVE",
"1077 -10 CURVE SMOOTH",
"1170 -10 OFFCURVE",
"1232 48 OFFCURVE",
"1242 138 CURVE",
"1204 134 LINE",
"1235 28 OFFCURVE",
"1306 -10 OFFCURVE",
"1389 -10 CURVE SMOOTH",
"1456 -10 OFFCURVE",
"1489 30 OFFCURVE",
"1489 81 CURVE SMOOTH",
"1489 126 OFFCURVE",
"1463 170 OFFCURVE",
"1399 170 CURVE SMOOTH",
"1353 170 OFFCURVE",
"1319 173 OFFCURVE",
"1298 214 CURVE SMOOTH",
"1278 253 OFFCURVE",
"1266 346 OFFCURVE",
"1248 455 CURVE",
"1102 423 LINE",
"1116 335 OFFCURVE",
"1122 295 OFFCURVE",
"1122 252 CURVE SMOOTH",
"1122 198 OFFCURVE",
"1106 170 OFFCURVE",
"1057 170 CURVE SMOOTH",
"1018 170 OFFCURVE",
"1002 182 OFFCURVE",
"995 231 CURVE SMOOTH",
"990 268 OFFCURVE",
"989 305 OFFCURVE",
"986 381 CURVE",
"843 368 LINE",
"844 298 OFFCURVE",
"842 250 OFFCURVE",
"834 220 CURVE SMOOTH",
"824 181 OFFCURVE",
"796 170 OFFCURVE",
"758 170 CURVE SMOOTH",
"730 170 OFFCURVE",
"704 182 OFFCURVE",
"692 208 CURVE SMOOTH",
"676 243 OFFCURVE",
"669 296 OFFCURVE",
"655 370 CURVE",
"508 335 LINE",
"522 254 OFFCURVE",
"536 177 OFFCURVE",
"536 108 CURVE SMOOTH",
"536 -10 OFFCURVE",
"464 -52 OFFCURVE",
"344 -52 CURVE SMOOTH",
"252 -52 OFFCURVE",
"201 -27 OFFCURVE",
"201 71 CURVE SMOOTH",
"201 123 OFFCURVE",
"209 167 OFFCURVE",
"225 236 CURVE",
"99 263 LINE",
"60 176 OFFCURVE",
"44 99 OFFCURVE",
"44 33 CURVE SMOOTH",
"44 -148 OFFCURVE",
"155 -232 OFFCURVE",
"328 -232 CURVE SMOOTH"
);
}
);
width = 1389;
},
{
anchors = (
{
name = bottom;
position = "{912, -111}";
},
{
name = bottom.dot;
position = "{912, -20}";
},
{
name = top;
position = "{917, 483}";
},
{
name = top.dot;
position = "{922, 361}";
}
);
layerId = "5223E25A-A738-4F2F-8413-8856B096DF64";
paths = (
{
closed = 1;
nodes = (
"528 -237 OFFCURVE",
"663 -117 OFFCURVE",
"650 100 CURVE",
"615 98 LINE",
"634 31 OFFCURVE",
"681 -10 OFFCURVE",
"765 -10 CURVE SMOOTH",
"844 -10 OFFCURVE",
"909 20 OFFCURVE",
"930 117 CURVE",
"911 116 LINE",
"922 28 OFFCURVE",
"971 -10 OFFCURVE",
"1065 -10 CURVE SMOOTH",
"1140 -10 OFFCURVE",
"1204 26 OFFCURVE",
"1216 116 CURVE",
"1195 113 LINE",
"1215 27 OFFCURVE",
"1278 -7 OFFCURVE",
"1373 -7 CURVE",
"1404 -7 OFFCURVE",
"1420 13 OFFCURVE",
"1420 36 CURVE SMOOTH",
"1420 58 OFFCURVE",
"1408 79 OFFCURVE",
"1378 79 CURVE",
"1289 80 OFFCURVE",
"1254 107 OFFCURVE",
"1241 168 CURVE SMOOTH",
"1230 213 OFFCURVE",
"1223 286 OFFCURVE",
"1213 374 CURVE",
"1141 360 LINE",
"1149 276 OFFCURVE",
"1155 220 OFFCURVE",
"1155 175 CURVE SMOOTH",
"1155 112 OFFCURVE",
"1125 76 OFFCURVE",
"1061 76 CURVE SMOOTH",
"988 76 OFFCURVE",
"962 99 OFFCURVE",
"956 157 CURVE SMOOTH",
"952 193 OFFCURVE",
"953 252 OFFCURVE",
"951 322 CURVE",
"880 316 LINE",
"881 246 OFFCURVE",
"880 195 OFFCURVE",
"873 160 CURVE SMOOTH",
"862 102 OFFCURVE",
"829 76 OFFCURVE",
"761 76 CURVE SMOOTH",
"707 76 OFFCURVE",
"666 97 OFFCURVE",
"652 147 CURVE SMOOTH",
"639 185 OFFCURVE",
"631 234 OFFCURVE",
"615 306 CURVE",
"543 288 LINE",
"559 212 OFFCURVE",
"576 139 OFFCURVE",
"576 76 CURVE SMOOTH",
"576 -59 OFFCURVE",
"498 -151 OFFCURVE",
"327 -151 CURVE SMOOTH",
"189 -151 OFFCURVE",
"125 -85 OFFCURVE",
"125 28 CURVE SMOOTH",
"125 86 OFFCURVE",
"135 137 OFFCURVE",
"152 198 CURVE",
"89 213 LINE",
"61 140 OFFCURVE",
"48 72 OFFCURVE",
"48 12 CURVE SMOOTH",
"48 -140 OFFCURVE",
"139 -237 OFFCURVE",
"318 -237 CURVE SMOOTH"
);
}
);
width = 1373;
},
{
anchors = (
{
name = bottom;
position = "{739, -111}";
},
{
name = bottom.dot;
position = "{739, -20}";
},
{
name = top;
position = "{741, 532}";
},
{
name = top.dot;
position = "{747, 391}";
}
);
layerId = "E5C955C8-F661-4960-B659-F2A3D2582D0D";
paths = (
{
closed = 1;
nodes = (
"421 -232 OFFCURVE",
"566 -127 OFFCURVE",
"551 113 CURVE",
"499 106 LINE",
"522 14 OFFCURVE",
"577 -10 OFFCURVE",
"625 -10 CURVE SMOOTH",
"691 -10 OFFCURVE",
"741 24 OFFCURVE",
"761 141 CURVE",
"732 141 LINE",
"746 26 OFFCURVE",
"800 -10 OFFCURVE",
"862 -10 CURVE SMOOTH",
"945 -10 OFFCURVE",
"986 48 OFFCURVE",
"994 138 CURVE",
"963 134 LINE",
"988 28 OFFCURVE",
"1045 -10 OFFCURVE",
"1111 -10 CURVE SMOOTH",
"1165 -10 OFFCURVE",
"1191 30 OFFCURVE",
"1191 81 CURVE SMOOTH",
"1191 126 OFFCURVE",
"1170 170 OFFCURVE",
"1119 170 CURVE SMOOTH",
"1082 170 OFFCURVE",
"1055 173 OFFCURVE",
"1038 214 CURVE SMOOTH",
"1022 253 OFFCURVE",
"1013 338 OFFCURVE",
"998 447 CURVE",
"880 425 LINE",
"891 337 OFFCURVE",
"898 295 OFFCURVE",
"898 252 CURVE SMOOTH",
"898 193 OFFCURVE",
"885 170 OFFCURVE",
"846 170 CURVE SMOOTH",
"814 170 OFFCURVE",
"802 182 OFFCURVE",
"796 231 CURVE SMOOTH",
"792 268 OFFCURVE",
"791 305 OFFCURVE",
"789 381 CURVE",
"674 373 LINE",
"675 303 OFFCURVE",
"674 250 OFFCURVE",
"667 220 CURVE SMOOTH",
"659 181 OFFCURVE",
"637 170 OFFCURVE",
"606 170 CURVE SMOOTH",
"584 170 OFFCURVE",
"563 182 OFFCURVE",
"554 208 CURVE SMOOTH",
"541 243 OFFCURVE",
"535 296 OFFCURVE",
"524 370 CURVE",
"400 347 LINE",
"413 256 OFFCURVE",
"423 177 OFFCURVE",
"423 108 CURVE SMOOTH",
"423 -10 OFFCURVE",
"371 -52 OFFCURVE",
"275 -52 CURVE SMOOTH",
"202 -52 OFFCURVE",
"161 -27 OFFCURVE",
"161 71 CURVE SMOOTH",
"161 123 OFFCURVE",
"167 167 OFFCURVE",
"180 236 CURVE",
"79 263 LINE",
"48 176 OFFCURVE",
"35 99 OFFCURVE",
"35 33 CURVE SMOOTH",
"35 -148 OFFCURVE",
"124 -232 OFFCURVE",
"262 -232 CURVE SMOOTH"
);
}
);
width = 1111;
},
{
anchors = (
{
name = bottom;
position = "{723, -111}";
},
{
name = bottom.dot;
position = "{723, -20}";
},
{
name = top;
position = "{730, 451}";
},
{
name = top.dot;
position = "{731, 341}";
}
);
layerId = "E67DA94D-AF90-4AFA-8684-14D1F5822449";
paths = (
{
closed = 1;
nodes = (
"424 -240 OFFCURVE",
"508 -111 OFFCURVE",
"500 92 CURVE",
"485 91 LINE",
"495 40 OFFCURVE",
"526 -10 OFFCURVE",
"607 -10 CURVE SMOOTH",
"670 -10 OFFCURVE",
"724 17 OFFCURVE",
"736 102 CURVE",
"726 100 LINE",
"732 30 OFFCURVE",
"762 -10 OFFCURVE",
"846 -10 CURVE SMOOTH",
"899 -10 OFFCURVE",
"951 14 OFFCURVE",
"959 102 CURVE",
"951 100 LINE",
"961 27 OFFCURVE",
"1008 -5 OFFCURVE",
"1090 -5 CURVE",
"1096 -5 OFFCURVE",
"1101 2 OFFCURVE",
"1101 8 CURVE SMOOTH",
"1101 14 OFFCURVE",
"1098 21 OFFCURVE",
"1092 21 CURVE",
"998 23 OFFCURVE",
"971 64 OFFCURVE",
"965 138 CURVE SMOOTH",
"961 187 OFFCURVE",
"959 247 OFFCURVE",
"955 322 CURVE",
"931 320 LINE",
"934 239 OFFCURVE",
"939 172 OFFCURVE",
"939 125 CURVE SMOOTH",
"939 49 OFFCURVE",
"906 16 OFFCURVE",
"848 16 CURVE SMOOTH",
"775 16 OFFCURVE",
"752 47 OFFCURVE",
"747 111 CURVE SMOOTH",
"744 146 OFFCURVE",
"746 219 OFFCURVE",
"744 285 CURVE",
"720 282 LINE",
"722 212 OFFCURVE",
"721 160 OFFCURVE",
"716 121 CURVE SMOOTH",
"707 52 OFFCURVE",
"680 16 OFFCURVE",
"610 16 CURVE SMOOTH",
"554 16 OFFCURVE",
"514 43 OFFCURVE",
"501 108 CURVE SMOOTH",
"493 148 OFFCURVE",
"486 195 OFFCURVE",
"472 265 CURVE",
"448 260 LINE",
"462 187 OFFCURVE",
"477 114 OFFCURVE",
"477 56 CURVE SMOOTH",
"477 -91 OFFCURVE",
"415 -214 OFFCURVE",
"253 -214 CURVE SMOOTH",
"118 -214 OFFCURVE",
"64 -122 OFFCURVE",
"64 1 CURVE SMOOTH",
"64 62 OFFCURVE",
"73 118 OFFCURVE",
"88 175 CURVE",
"66 181 LINE",
"50 117 OFFCURVE",
"40 55 OFFCURVE",
"40 -2 CURVE SMOOTH",
"40 -135 OFFCURVE",
"102 -240 OFFCURVE",
"250 -240 CURVE SMOOTH"
);
}
);
width = 1089;
},
{
anchors = (
{
name = bottom;
position = "{730, -111}";
},
{
name = bottom.dot;
position = "{730, -20}";
},
{
name = top;
position = "{734, 483}";
},
{
name = top.dot;
position = "{738, 361}";
}
);
layerId = "2F00052B-4CEF-4C35-9869-AAD90889B4C2";
paths = (
{
closed = 1;
nodes = (
"422 -237 OFFCURVE",
"530 -117 OFFCURVE",
"520 100 CURVE",
"492 98 LINE",
"507 31 OFFCURVE",
"545 -10 OFFCURVE",
"612 -10 CURVE SMOOTH",
"675 -10 OFFCURVE",
"731 20 OFFCURVE",
"748 117 CURVE",
"723 116 LINE",
"732 28 OFFCURVE",
"777 -10 OFFCURVE",
"852 -10 CURVE SMOOTH",
"912 -10 OFFCURVE",
"969 26 OFFCURVE",
"979 116 CURVE",
"952 113 LINE",
"968 27 OFFCURVE",
"1022 -7 OFFCURVE",
"1098 -7 CURVE",
"1123 -7 OFFCURVE",
"1136 13 OFFCURVE",
"1136 36 CURVE SMOOTH",
"1136 58 OFFCURVE",
"1126 79 OFFCURVE",
"1102 79 CURVE",
"1031 80 OFFCURVE",
"1008 107 OFFCURVE",
"996 168 CURVE SMOOTH",
"987 213 OFFCURVE",
"981 286 OFFCURVE",
"973 374 CURVE",
"909 367 LINE",
"916 282 OFFCURVE",
"922 220 OFFCURVE",
"922 175 CURVE SMOOTH",
"922 112 OFFCURVE",
"900 76 OFFCURVE",
"849 76 CURVE SMOOTH",
"790 76 OFFCURVE",
"771 99 OFFCURVE",
"766 157 CURVE SMOOTH",
"763 193 OFFCURVE",
"763 251 OFFCURVE",
"762 321 CURVE",
"702 316 LINE",
"703 246 OFFCURVE",
"702 195 OFFCURVE",
"696 160 CURVE SMOOTH",
"686 102 OFFCURVE",
"663 76 OFFCURVE",
"609 76 CURVE SMOOTH",
"566 76 OFFCURVE",
"533 97 OFFCURVE",
"522 147 CURVE SMOOTH",
"511 185 OFFCURVE",
"505 234 OFFCURVE",
"492 306 CURVE",
"428 290 LINE",
"441 214 OFFCURVE",
"455 139 OFFCURVE",
"455 76 CURVE SMOOTH",
"455 -59 OFFCURVE",
"398 -151 OFFCURVE",
"262 -151 CURVE SMOOTH",
"151 -151 OFFCURVE",
"106 -85 OFFCURVE",
"106 28 CURVE SMOOTH",
"106 86 OFFCURVE",
"114 137 OFFCURVE",
"128 198 CURVE",
"71 213 LINE",
"49 140 OFFCURVE",
"38 72 OFFCURVE",
"38 12 CURVE SMOOTH",
"38 -140 OFFCURVE",
"111 -237 OFFCURVE",
"254 -237 CURVE SMOOTH"
);
}
);
width = 1098;
}
);
leftMetricsKey = "noonghunna-ar";
rightMetricsKey = _part.instroke;
unicode = FEB2;
},
{
glyphname = "seen-ar.medi";
lastChange = "2020-02-28 10:12:55 +0000";
layers = (
{
anchors = (
{
name = bottom;
position = "{474, -111}";
},
{
name = bottom.dot;
position = "{474, -20}";
},
{
name = top;
position = "{471, 448}";
},
{
name = top.dot;
position = "{474, 347}";
}
);
layerId = "A2AC38AA-6CC4-4B2B-B5AB-64A49772F2D3";
paths = (
{
closed = 1;
nodes = (
"85 -5 OFFCURVE",
"139 32 OFFCURVE",
"161 116 CURVE",
"155 118 LINE",
"155 13 OFFCURVE",
"230 -10 OFFCURVE",
"309 -10 CURVE SMOOTH",
"397 -10 OFFCURVE",
"458 18 OFFCURVE",
"477 103 CURVE",
"469 102 LINE",
"476 32 OFFCURVE",
"513 -10 OFFCURVE",
"619 -10 CURVE SMOOTH",
"682 -10 OFFCURVE",
"746 12 OFFCURVE",
"759 102 CURVE",
"754 102 LINE",
"767 29 OFFCURVE",
"820 -5 OFFCURVE",
"923 -5 CURVE SMOOTH",
"931 -5 OFFCURVE",
"937 2 OFFCURVE",
"937 8 CURVE SMOOTH",
"937 14 OFFCURVE",
"934 21 OFFCURVE",
"926 21 CURVE SMOOTH",
"840 23 OFFCURVE",
"797 33 OFFCURVE",
"777 99 CURVE SMOOTH",
"764 143 OFFCURVE",
"759 233 OFFCURVE",
"752 322 CURVE",
"727 320 LINE",
"732 235 OFFCURVE",
"737 182 OFFCURVE",
"737 125 CURVE SMOOTH",
"737 57 OFFCURVE",
"698 16 OFFCURVE",
"624 16 CURVE SMOOTH",
"529 16 OFFCURVE",
"496 46 OFFCURVE",
"492 110 CURVE SMOOTH",
"489 154 OFFCURVE",
"490 208 OFFCURVE",
"489 284 CURVE",
"464 282 LINE",
"465 206 OFFCURVE",
"464 151 OFFCURVE",
"454 111 CURVE SMOOTH",
"437 40 OFFCURVE",
"390 16 OFFCURVE",
"311 16 CURVE SMOOTH",
"232 16 OFFCURVE",
"182 42 OFFCURVE",
"179 114 CURVE SMOOTH",
"177 159 OFFCURVE",
"183 218 OFFCURVE",
"186 265 CURVE",
"162 266 LINE",
"150 51 OFFCURVE",
"78 21 OFFCURVE",
"4 21 CURVE",
"0 -5 LINE"
);
}
);
width = 923;
},
{
anchors = (
{
name = bottom;
position = "{524, -111}";
},
{
name = bottom.dot;
position = "{524, -20}";
},
{
name = top;
position = "{522, 518}";
},
{
name = top.dot;
position = "{524, 377}";
}
);
layerId = "8594390A-478C-48BC-BAB2-0B8797A53DFB";
paths = (
{
closed = 1;
nodes = (
"113 -10 OFFCURVE",
"199 16 OFFCURVE",
"248 137 CURVE",
"178 137 LINE",
"207 13 OFFCURVE",
"294 -10 OFFCURVE",
"362 -10 CURVE SMOOTH",
"436 -10 OFFCURVE",
"517 21 OFFCURVE",
"555 141 CURVE",
"516 141 LINE",
"534 26 OFFCURVE",
"601 -10 OFFCURVE",
"678 -10 CURVE SMOOTH",
"771 -10 OFFCURVE",
"833 48 OFFCURVE",
"843 138 CURVE",
"805 134 LINE",
"836 28 OFFCURVE",
"907 -10 OFFCURVE",
"990 -10 CURVE SMOOTH",
"1057 -10 OFFCURVE",
"1090 30 OFFCURVE",
"1090 81 CURVE SMOOTH",
"1090 126 OFFCURVE",
"1064 170 OFFCURVE",
"1000 170 CURVE SMOOTH",
"954 170 OFFCURVE",
"919 178 OFFCURVE",
"899 219 CURVE SMOOTH",
"880 258 OFFCURVE",
"867 346 OFFCURVE",
"849 455 CURVE",
"703 423 LINE",
"717 335 OFFCURVE",
"723 295 OFFCURVE",
"723 252 CURVE SMOOTH",
"723 198 OFFCURVE",
"707 170 OFFCURVE",
"658 170 CURVE SMOOTH",
"619 170 OFFCURVE",
"603 187 OFFCURVE",
"596 236 CURVE SMOOTH",
"591 273 OFFCURVE",
"590 305 OFFCURVE",
"587 381 CURVE",
"444 368 LINE",
"444 301 OFFCURVE",
"439 257 OFFCURVE",
"432 227 CURVE SMOOTH",
"422 186 OFFCURVE",
"400 170 OFFCURVE",
"350 170 CURVE SMOOTH",
"310 170 OFFCURVE",
"286 190 OFFCURVE",
"282 236 CURVE SMOOTH",
"279 273 OFFCURVE",
"281 309 OFFCURVE",
"283 363 CURVE",
"141 356 LINE",
"124 184 OFFCURVE",
"94 170 OFFCURVE",
"10 170 CURVE",
"0 -10 LINE"
);
}
);
width = 990;
},
{
anchors = (
{
name = bottom;
position = "{494, -111}";
},
{
name = bottom.dot;
position = "{494, -20}";
},
{
name = top;
position = "{491, 475}";
},
{
name = top.dot;
position = "{494, 359}";
}
);
layerId = "5223E25A-A738-4F2F-8413-8856B096DF64";
paths = (
{
closed = 1;
nodes = (
"96 -7 OFFCURVE",
"162 26 OFFCURVE",
"195 124 CURVE",
"164 125 LINE",
"175 13 OFFCURVE",
"255 -10 OFFCURVE",
"330 -10 CURVE SMOOTH",
"412 -10 OFFCURVE",
"481 19 OFFCURVE",
"507 118 CURVE",
"487 117 LINE",
"499 30 OFFCURVE",
"547 -10 OFFCURVE",
"642 -10 CURVE SMOOTH",
"717 -10 OFFCURVE",
"780 26 OFFCURVE",
"792 116 CURVE",
"774 114 LINE",
"794 29 OFFCURVE",
"854 -7 OFFCURVE",
"949 -7 CURVE SMOOTH",
"980 -7 OFFCURVE",
"997 13 OFFCURVE",
"997 36 CURVE SMOOTH",
"997 58 OFFCURVE",
"985 79 OFFCURVE",
"955 79 CURVE SMOOTH",
"884 80 OFFCURVE",
"845 90 OFFCURVE",
"825 146 CURVE SMOOTH",
"809 188 OFFCURVE",
"801 277 OFFCURVE",
"790 374 CURVE",
"718 360 LINE",
"726 274 OFFCURVE",
"732 226 OFFCURVE",
"732 175 CURVE SMOOTH",
"732 112 OFFCURVE",
"702 76 OFFCURVE",
"637 76 CURVE SMOOTH",
"564 76 OFFCURVE",
"538 101 OFFCURVE",
"533 159 CURVE SMOOTH",
"529 200 OFFCURVE",
"529 246 OFFCURVE",
"527 322 CURVE",
"456 316 LINE",
"457 243 OFFCURVE",
"454 192 OFFCURVE",
"445 156 CURVE SMOOTH",
"431 97 OFFCURVE",
"394 76 OFFCURVE",
"326 76 CURVE SMOOTH",
"262 76 OFFCURVE",
"223 100 OFFCURVE",
"219 162 CURVE SMOOTH",
"217 203 OFFCURVE",
"221 254 OFFCURVE",
"224 303 CURVE",
"154 301 LINE",
"140 103 OFFCURVE",
"84 79 OFFCURVE",
"6 79 CURVE",
"0 -7 LINE"
);
}
);
width = 950;
},
{
anchors = (
{
name = bottom;
position = "{419, -111}";
},
{
name = bottom.dot;
position = "{419, -20}";
},
{
name = top;
position = "{418, 518}";
},
{
name = top.dot;
position = "{419, 377}";
}
);
layerId = "E5C955C8-F661-4960-B659-F2A3D2582D0D";
paths = (
{
closed = 1;
nodes = (
"90 -10 OFFCURVE",
"159 16 OFFCURVE",
"198 137 CURVE",
"142 137 LINE",
"166 13 OFFCURVE",
"235 -10 OFFCURVE",
"290 -10 CURVE SMOOTH",
"356 -10 OFFCURVE",
"414 21 OFFCURVE",
"444 141 CURVE",
"413 141 LINE",
"427 26 OFFCURVE",
"481 -10 OFFCURVE",
"542 -10 CURVE SMOOTH",
"625 -10 OFFCURVE",
"666 48 OFFCURVE",
"674 138 CURVE",
"644 134 LINE",
"669 28 OFFCURVE",
"726 -10 OFFCURVE",
"792 -10 CURVE SMOOTH",
"846 -10 OFFCURVE",
"872 30 OFFCURVE",
"872 81 CURVE SMOOTH",
"872 126 OFFCURVE",
"851 170 OFFCURVE",
"800 170 CURVE SMOOTH",
"763 170 OFFCURVE",
"735 178 OFFCURVE",
"719 219 CURVE SMOOTH",
"704 258 OFFCURVE",
"694 338 OFFCURVE",
"679 447 CURVE",
"561 425 LINE",
"573 337 OFFCURVE",
"578 295 OFFCURVE",
"578 252 CURVE SMOOTH",
"578 193 OFFCURVE",
"566 170 OFFCURVE",
"526 170 CURVE SMOOTH",
"495 170 OFFCURVE",
"482 187 OFFCURVE",
"477 236 CURVE SMOOTH",
"473 273 OFFCURVE",
"472 305 OFFCURVE",
"470 381 CURVE",
"355 373 LINE",
"355 306 OFFCURVE",
"351 257 OFFCURVE",
"346 227 CURVE SMOOTH",
"338 186 OFFCURVE",
"320 170 OFFCURVE",
"280 170 CURVE SMOOTH",
"248 170 OFFCURVE",
"229 190 OFFCURVE",
"226 236 CURVE SMOOTH",
"223 273 OFFCURVE",
"225 309 OFFCURVE",
"226 363 CURVE",
"113 356 LINE",
"99 184 OFFCURVE",
"75 170 OFFCURVE",
"8 170 CURVE",
"0 -10 LINE"
);
}
);
width = 792;
},
{
anchors = (
{
name = bottom;
position = "{379, -111}";
},
{
name = bottom.dot;
position = "{379, -20}";
},
{
name = top;
position = "{377, 448}";
},
{
name = top.dot;
position = "{379, 347}";
}
);
layerId = "E67DA94D-AF90-4AFA-8684-14D1F5822449";
paths = (
{
closed = 1;
nodes = (
"68 -5 OFFCURVE",
"112 32 OFFCURVE",
"130 116 CURVE",
"124 118 LINE",
"124 13 OFFCURVE",
"184 -10 OFFCURVE",
"247 -10 CURVE SMOOTH",
"318 -10 OFFCURVE",
"366 18 OFFCURVE",
"382 103 CURVE",
"375 102 LINE",
"381 32 OFFCURVE",
"410 -10 OFFCURVE",
"495 -10 CURVE SMOOTH",
"546 -10 OFFCURVE",
"597 12 OFFCURVE",
"607 102 CURVE",
"603 102 LINE",
"614 29 OFFCURVE",
"656 -5 OFFCURVE",
"738 -5 CURVE SMOOTH",
"745 -5 OFFCURVE",
"750 2 OFFCURVE",
"750 8 CURVE SMOOTH",
"750 14 OFFCURVE",
"747 21 OFFCURVE",
"741 21 CURVE SMOOTH",
"672 23 OFFCURVE",
"638 43 OFFCURVE",
"624 99 CURVE SMOOTH",
"613 143 OFFCURVE",
"610 231 OFFCURVE",
"604 322 CURVE",
"580 320 LINE",
"584 235 OFFCURVE",
"588 182 OFFCURVE",
"588 125 CURVE SMOOTH",
"588 57 OFFCURVE",
"558 16 OFFCURVE",
"499 16 CURVE SMOOTH",
"423 16 OFFCURVE",
"400 46 OFFCURVE",
"396 110 CURVE SMOOTH",
"393 154 OFFCURVE",
"394 208 OFFCURVE",
"393 284 CURVE",
"369 282 LINE",
"370 206 OFFCURVE",
"370 151 OFFCURVE",
"362 111 CURVE SMOOTH",
"348 45 OFFCURVE",
"312 16 OFFCURVE",
"249 16 CURVE SMOOTH",
"186 16 OFFCURVE",
"148 42 OFFCURVE",
"145 114 CURVE SMOOTH",
"144 159 OFFCURVE",
"148 218 OFFCURVE",
"151 265 CURVE",
"128 266 LINE",
"118 55 OFFCURVE",
"70 21 OFFCURVE",
"3 21 CURVE",
"0 -5 LINE"
);
}
);
width = 738;
},
{
anchors = (
{
name = bottom;
position = "{395, -111}";
},
{
name = bottom.dot;
position = "{395, -20}";
},
{
name = top;
position = "{393, 475}";
},
{
name = top.dot;
position = "{395, 359}";
}
);
layerId = "2F00052B-4CEF-4C35-9869-AAD90889B4C2";
paths = (
{
closed = 1;
nodes = (
"77 -7 OFFCURVE",
"130 26 OFFCURVE",
"156 124 CURVE",
"131 125 LINE",
"140 13 OFFCURVE",
"204 -10 OFFCURVE",
"264 -10 CURVE SMOOTH",
"330 -10 OFFCURVE",
"385 19 OFFCURVE",
"406 118 CURVE",
"390 117 LINE",
"399 30 OFFCURVE",
"438 -10 OFFCURVE",
"514 -10 CURVE SMOOTH",
"574 -10 OFFCURVE",
"624 26 OFFCURVE",
"634 116 CURVE",
"619 114 LINE",
"635 29 OFFCURVE",
"683 -7 OFFCURVE",
"759 -7 CURVE SMOOTH",
"784 -7 OFFCURVE",
"798 13 OFFCURVE",
"798 36 CURVE SMOOTH",
"798 58 OFFCURVE",
"788 79 OFFCURVE",
"764 79 CURVE SMOOTH",
"707 80 OFFCURVE",
"680 90 OFFCURVE",
"663 146 CURVE SMOOTH",
"650 188 OFFCURVE",
"644 277 OFFCURVE",
"635 374 CURVE",
"574 367 LINE",
"581 281 OFFCURVE",
"584 226 OFFCURVE",
"584 175 CURVE SMOOTH",
"584 112 OFFCURVE",
"562 76 OFFCURVE",
"510 76 CURVE SMOOTH",
"451 76 OFFCURVE",
"432 101 OFFCURVE",
"428 159 CURVE SMOOTH",
"425 200 OFFCURVE",
"425 246 OFFCURVE",
"424 322 CURVE",
"364 316 LINE",
"365 243 OFFCURVE",
"363 192 OFFCURVE",
"356 156 CURVE SMOOTH",
"345 97 OFFCURVE",
"317 76 OFFCURVE",
"263 76 CURVE SMOOTH",
"214 76 OFFCURVE",
"178 100 OFFCURVE",
"176 162 CURVE SMOOTH",
"175 203 OFFCURVE",
"177 254 OFFCURVE",
"180 303 CURVE",
"120 301 LINE",
"111 103 OFFCURVE",
"67 79 OFFCURVE",
"5 79 CURVE",
"0 -7 LINE"
);
}
);
width = 760;
}
);
rightMetricsKey = _part.instroke;
unicode = FEB4;
},
{
glyphname = "seen-ar.init";
lastChange = "2020-02-28 10:12:55 +0000";
layers = (
{
anchors = (
{
name = bottom;
position = "{474, -111}";
},
{
name = bottom.dot;
position = "{474, -20}";
},
{
name = top;
position = "{471, 448}";
},
{
name = top.dot;
position = "{474, 347}";
}
);
layerId = "A2AC38AA-6CC4-4B2B-B5AB-64A49772F2D3";
paths = (
{
closed = 1;
nodes = (
"75 -5 OFFCURVE",
"136 24 OFFCURVE",
"163 116 CURVE",
"154 118 LINE",
"154 13 OFFCURVE",
"230 -10 OFFCURVE",
"309 -10 CURVE SMOOTH",
"397 -10 OFFCURVE",
"458 18 OFFCURVE",
"477 103 CURVE",
"469 102 LINE",
"476 32 OFFCURVE",
"513 -10 OFFCURVE",
"619 -10 CURVE SMOOTH",
"708 -10 OFFCURVE",
"768 35 OFFCURVE",
"768 137 CURVE SMOOTH",
"768 213 OFFCURVE",
"750 277 OFFCURVE",
"722 363 CURVE",
"698 354 LINE",
"728 263 OFFCURVE",
"743 200 OFFCURVE",
"743 131 CURVE SMOOTH",
"743 55 OFFCURVE",
"699 16 OFFCURVE",
"624 16 CURVE SMOOTH",
"529 16 OFFCURVE",
"498 46 OFFCURVE",
"492 110 CURVE SMOOTH",
"489 144 OFFCURVE",
"491 218 OFFCURVE",
"489 284 CURVE",
"464 282 LINE",
"473 65 OFFCURVE",
"432 16 OFFCURVE",
"311 16 CURVE SMOOTH",
"232 16 OFFCURVE",
"179 42 OFFCURVE",
"179 114 CURVE SMOOTH",
"179 159 OFFCURVE",
"183 200 OFFCURVE",
"186 245 CURVE",
"163 247 LINE",
"149 64 OFFCURVE",
"91 21 OFFCURVE",
"4 21 CURVE",
"0 -5 LINE"
);
}
);
width = 828;
},
{
anchors = (
{
name = bottom;
position = "{524, -111}";
},
{
name = bottom.dot;
position = "{524, -20}";
},
{
name = top;
position = "{522, 518}";
},
{
name = top.dot;
position = "{524, 377}";
}
);
layerId = "8594390A-478C-48BC-BAB2-0B8797A53DFB";
paths = (
{
closed = 1;
nodes = (
"113 -10 OFFCURVE",
"199 16 OFFCURVE",
"248 137 CURVE",
"178 137 LINE",
"207 13 OFFCURVE",
"295 -10 OFFCURVE",
"363 -10 CURVE SMOOTH",
"437 -10 OFFCURVE",
"518 21 OFFCURVE",
"556 141 CURVE",
"517 141 LINE",
"535 26 OFFCURVE",
"602 -10 OFFCURVE",
"679 -10 CURVE SMOOTH",
"822 -10 OFFCURVE",
"885 86 OFFCURVE",
"885 231 CURVE SMOOTH",
"885 295 OFFCURVE",
"873 378 OFFCURVE",
"838 466 CURVE",
"694 420 LINE",
"712 352 OFFCURVE",
"724 304 OFFCURVE",
"724 251 CURVE SMOOTH",
"724 197 OFFCURVE",
"708 170 OFFCURVE",
"659 170 CURVE SMOOTH",
"620 170 OFFCURVE",
"604 187 OFFCURVE",
"597 236 CURVE SMOOTH",
"592 273 OFFCURVE",
"591 305 OFFCURVE",
"588 381 CURVE",
"445 368 LINE",
"448 182 OFFCURVE",
"403 170 OFFCURVE",
"351 170 CURVE SMOOTH",
"311 170 OFFCURVE",
"286 190 OFFCURVE",
"282 236 CURVE SMOOTH",
"279 273 OFFCURVE",
"281 309 OFFCURVE",
"283 363 CURVE",
"141 356 LINE",
"124 174 OFFCURVE",
"91 170 OFFCURVE",
"10 170 CURVE",
"0 -10 LINE"
);
}
);
width = 940;
},
{
anchors = (
{
name = bottom;
position = "{494, -111}";
},
{
name = bottom.dot;
position = "{494, -20}";
},
{
name = top;
position = "{491, 475}";
},
{
name = top.dot;
position = "{494, 359}";
}
);
layerId = "5223E25A-A738-4F2F-8413-8856B096DF64";
paths = (
{
closed = 1;
nodes = (
"90 -7 OFFCURVE",
"161 21 OFFCURVE",
"196 124 CURVE",
"163 125 LINE",
"175 13 OFFCURVE",
"255 -10 OFFCURVE",
"330 -10 CURVE SMOOTH",
"413 -10 OFFCURVE",
"481 19 OFFCURVE",
"508 118 CURVE",
"488 117 LINE",
"499 30 OFFCURVE",
"548 -10 OFFCURVE",
"642 -10 CURVE SMOOTH",
"752 -10 OFFCURVE",
"814 55 OFFCURVE",
"814 174 CURVE SMOOTH",
"814 245 OFFCURVE",
"798 316 OFFCURVE",
"767 403 CURVE",
"696 380 LINE",
"722 298 OFFCURVE",
"736 241 OFFCURVE",
"736 178 CURVE SMOOTH",
"736 110 OFFCURVE",
"703 76 OFFCURVE",
"638 76 CURVE SMOOTH",
"565 76 OFFCURVE",
"539 101 OFFCURVE",
"533 159 CURVE SMOOTH",
"529 194 OFFCURVE",
"530 252 OFFCURVE",
"528 322 CURVE",
"457 316 LINE",
"463 111 OFFCURVE",
"421 76 OFFCURVE",
"327 76 CURVE SMOOTH",
"263 76 OFFCURVE",
"221 100 OFFCURVE",
"219 162 CURVE SMOOTH",
"218 203 OFFCURVE",
"221 243 OFFCURVE",
"224 291 CURVE",
"154 290 LINE",
"139 107 OFFCURVE",
"91 79 OFFCURVE",
"6 79 CURVE",
"0 -7 LINE"
);
}
);
width = 872;
},
{
anchors = (
{
name = bottom;
position = "{419, -111}";
},
{
name = bottom.dot;
position = "{419, -20}";
},
{
name = top;
position = "{418, 518}";
},
{
name = top.dot;
position = "{419, 377}";
}
);
layerId = "E5C955C8-F661-4960-B659-F2A3D2582D0D";
paths = (
{
closed = 1;
nodes = (
"90 -10 OFFCURVE",
"159 16 OFFCURVE",
"198 137 CURVE",
"142 137 LINE",
"166 13 OFFCURVE",
"236 -10 OFFCURVE",
"290 -10 CURVE SMOOTH",
"350 -10 OFFCURVE",
"414 21 OFFCURVE",
"445 141 CURVE",
"414 141 LINE",
"428 26 OFFCURVE",
"482 -10 OFFCURVE",
"543 -10 CURVE SMOOTH",
"658 -10 OFFCURVE",
"708 86 OFFCURVE",
"708 231 CURVE SMOOTH",
"708 295 OFFCURVE",
"701 368 OFFCURVE",
"673 456 CURVE",
"555 424 LINE",
"570 356 OFFCURVE",
"580 304 OFFCURVE",
"580 251 CURVE SMOOTH",
"580 193 OFFCURVE",
"567 170 OFFCURVE",
"527 170 CURVE SMOOTH",
"496 170 OFFCURVE",
"481 187 OFFCURVE",
"476 236 CURVE SMOOTH",
"472 273 OFFCURVE",
"474 305 OFFCURVE",
"471 381 CURVE",
"356 373 LINE",
"358 188 OFFCURVE",
"319 170 OFFCURVE",
"281 170 CURVE SMOOTH",
"249 170 OFFCURVE",
"229 190 OFFCURVE",
"226 236 CURVE SMOOTH",
"223 273 OFFCURVE",
"225 309 OFFCURVE",
"226 363 CURVE",
"113 356 LINE",
"99 174 OFFCURVE",
"73 170 OFFCURVE",
"8 170 CURVE",
"0 -10 LINE"
);
}
);
width = 748;
},
{
anchors = (
{
name = bottom;
position = "{379, -111}";
},
{
name = bottom.dot;
position = "{379, -20}";
},
{
name = top;
position = "{377, 448}";
},
{
name = top.dot;
position = "{379, 347}";
}
);
layerId = "E67DA94D-AF90-4AFA-8684-14D1F5822449";
paths = (
{
closed = 1;
nodes = (
"60 -5 OFFCURVE",
"112 24 OFFCURVE",
"131 116 CURVE",
"123 118 LINE",
"123 13 OFFCURVE",
"184 -10 OFFCURVE",
"247 -10 CURVE SMOOTH",
"318 -10 OFFCURVE",
"366 18 OFFCURVE",
"382 103 CURVE",
"375 102 LINE",
"381 32 OFFCURVE",
"410 -10 OFFCURVE",
"495 -10 CURVE SMOOTH",
"566 -10 OFFCURVE",
"614 35 OFFCURVE",
"614 137 CURVE SMOOTH",
"614 213 OFFCURVE",
"600 277 OFFCURVE",
"578 363 CURVE",
"554 357 LINE",
"578 266 OFFCURVE",
"590 200 OFFCURVE",
"590 131 CURVE SMOOTH",
"590 55 OFFCURVE",
"559 16 OFFCURVE",
"499 16 CURVE SMOOTH",
"423 16 OFFCURVE",
"402 46 OFFCURVE",
"396 110 CURVE SMOOTH",
"393 144 OFFCURVE",
"395 218 OFFCURVE",
"393 284 CURVE",
"369 282 LINE",
"376 65 OFFCURVE",
"346 16 OFFCURVE",
"249 16 CURVE SMOOTH",
"186 16 OFFCURVE",
"145 42 OFFCURVE",
"145 114 CURVE SMOOTH",
"145 159 OFFCURVE",
"148 200 OFFCURVE",
"151 245 CURVE",
"128 247 LINE",
"117 64 OFFCURVE",
"73 21 OFFCURVE",
"3 21 CURVE",
"0 -5 LINE"
);
}
);
width = 662;
},
{
anchors = (
{
name = bottom;
position = "{395, -111}";
},
{
name = bottom.dot;
position = "{395, -20}";
},
{
name = top;
position = "{393, 475}";
},
{
name = top.dot;
position = "{395, 359}";
}
);
layerId = "2F00052B-4CEF-4C35-9869-AAD90889B4C2";
paths = (
{
closed = 1;
nodes = (
"72 -7 OFFCURVE",
"129 21 OFFCURVE",
"157 124 CURVE",
"130 125 LINE",
"140 13 OFFCURVE",
"208 -10 OFFCURVE",
"268 -10 CURVE SMOOTH",
"334 -10 OFFCURVE",
"389 19 OFFCURVE",
"410 118 CURVE",
"386 117 LINE",
"395 30 OFFCURVE",
"438 -10 OFFCURVE",
"514 -10 CURVE SMOOTH",
"602 -10 OFFCURVE",
"651 55 OFFCURVE",
"651 174 CURVE SMOOTH",
"651 245 OFFCURVE",
"638 316 OFFCURVE",
"614 403 CURVE",
"553 384 LINE",
"574 302 OFFCURVE",
"585 241 OFFCURVE",
"585 178 CURVE SMOOTH",
"585 110 OFFCURVE",
"562 76 OFFCURVE",
"510 76 CURVE SMOOTH",
"452 76 OFFCURVE",
"433 101 OFFCURVE",
"428 159 CURVE SMOOTH",
"425 194 OFFCURVE",
"426 252 OFFCURVE",
"424 322 CURVE",
"364 316 LINE",
"368 111 OFFCURVE",
"340 76 OFFCURVE",
"265 76 CURVE SMOOTH",
"213 76 OFFCURVE",
"179 100 OFFCURVE",
"177 162 CURVE SMOOTH",
"176 203 OFFCURVE",
"179 243 OFFCURVE",
"181 291 CURVE",
"121 290 LINE",
"109 107 OFFCURVE",
"73 79 OFFCURVE",
"5 79 CURVE",
"0 -7 LINE"
);
}
);
width = 697;
}
);
rightMetricsKey = "dotlessbeh-ar";
unicode = FEB3;
},
{
glyphname = "sad-ar";
lastChange = "2020-02-28 10:12:55 +0000";
layers = (
{
anchors = (
{
name = bottom;
position = "{939, -112}";
},
{
name = bottom.dot;
position = "{939, -20}";
},
{
name = top;
position = "{707, 459}";
},
{
name = top.dot;
position = "{1049, 439}";
}
);
layerId = "A2AC38AA-6CC4-4B2B-B5AB-64A49772F2D3";
paths = (
{
closed = 1;
nodes = (
"530 -240 OFFCURVE",
"635 -109 OFFCURVE",
"625 92 CURVE",
"609 89 LINE",
"636 23 OFFCURVE",
"668 -5 OFFCURVE",
"877 -5 CURVE SMOOTH",
"1162 -5 OFFCURVE",
"1274 63 OFFCURVE",
"1274 193 CURVE SMOOTH",
"1274 306 OFFCURVE",
"1208 398 OFFCURVE",
"1091 398 CURVE SMOOTH",
"923 398 OFFCURVE",
"781 205 OFFCURVE",
"660 43 CURVE",
"681 29 LINE",
"797 181 OFFCURVE",
"932 372 OFFCURVE",
"1090 372 CURVE SMOOTH",
"1193 372 OFFCURVE",
"1249 282 OFFCURVE",
"1249 194 CURVE SMOOTH",
"1249 94 OFFCURVE",
"1166 21 OFFCURVE",
"882 21 CURVE SMOOTH",
"697 21 OFFCURVE",
"648 43 OFFCURVE",
"629 100 CURVE SMOOTH",
"615 143 OFFCURVE",
"607 190 OFFCURVE",
"590 264 CURVE",
"565 258 LINE",
"585 179 OFFCURVE",
"601 114 OFFCURVE",
"601 56 CURVE SMOOTH",
"601 -91 OFFCURVE",
"519 -214 OFFCURVE",
"316 -214 CURVE SMOOTH",
"148 -214 OFFCURVE",
"76 -122 OFFCURVE",
"76 1 CURVE SMOOTH",
"76 62 OFFCURVE",
"88 117 OFFCURVE",
"106 174 CURVE",
"83 181 LINE",
"62 117 OFFCURVE",
"50 55 OFFCURVE",
"50 -2 CURVE SMOOTH",
"50 -135 OFFCURVE",
"128 -240 OFFCURVE",
"312 -240 CURVE SMOOTH"
);
}
);
width = 1320;
},
{
anchors = (
{
name = bottom;
position = "{939, -112}";
},
{
name = bottom.dot;
position = "{939, -20}";
},
{
name = top;
position = "{707, 569}";
},
{
name = top.dot;
position = "{1049, 499}";
}
);
layerId = "8594390A-478C-48BC-BAB2-0B8797A53DFB";
paths = (
{
closed = 1;
nodes = (
"526 -232 OFFCURVE",
"708 -127 OFFCURVE",
"689 113 CURVE",
"627 91 LINE",
"682 12 OFFCURVE",
"783 -10 OFFCURVE",
"932 -10 CURVE SMOOTH",
"1216 -10 OFFCURVE",
"1338 88 OFFCURVE",
"1338 252 CURVE SMOOTH",
"1338 389 OFFCURVE",
"1248 502 OFFCURVE",
"1104 502 CURVE SMOOTH",
"950 502 OFFCURVE",
"790 378 OFFCURVE",
"660 142 CURVE",
"798 96 LINE",
"869 225 OFFCURVE",
"959 322 OFFCURVE",
"1064 322 CURVE SMOOTH",
"1131 322 OFFCURVE",
"1174 280 OFFCURVE",
"1174 237 CURVE SMOOTH",
"1174 183 OFFCURVE",
"1116 170 OFFCURVE",
"940 170 CURVE SMOOTH",
"728 170 OFFCURVE",
"693 181 OFFCURVE",
"682 231 CURVE SMOOTH",
"674 266 OFFCURVE",
"668 300 OFFCURVE",
"655 370 CURVE",
"508 335 LINE",
"522 254 OFFCURVE",
"536 177 OFFCURVE",
"536 108 CURVE SMOOTH",
"536 -10 OFFCURVE",
"464 -52 OFFCURVE",
"344 -52 CURVE SMOOTH",
"252 -52 OFFCURVE",
"201 -27 OFFCURVE",
"201 71 CURVE SMOOTH",
"201 123 OFFCURVE",
"209 167 OFFCURVE",
"225 236 CURVE",
"99 263 LINE",
"60 176 OFFCURVE",
"44 99 OFFCURVE",
"44 33 CURVE SMOOTH",
"44 -148 OFFCURVE",
"155 -232 OFFCURVE",
"328 -232 CURVE SMOOTH"
);
}
);
width = 1383;
},
{
anchors = (
{
name = bottom;
position = "{939, -112}";
},
{
name = bottom.dot;
position = "{939, -20}";
},
{
name = top;
position = "{707, 502}";
},
{
name = top.dot;
position = "{1049, 462}";
}
);
layerId = "5223E25A-A738-4F2F-8413-8856B096DF64";
paths = (
{
closed = 1;
nodes = (
"528 -237 OFFCURVE",
"663 -116 OFFCURVE",
"650 100 CURVE",
"616 90 LINE",
"654 19 OFFCURVE",
"713 -7 OFFCURVE",
"898 -7 CURVE SMOOTH",
"1183 -7 OFFCURVE",
"1299 73 OFFCURVE",
"1299 216 CURVE SMOOTH",
"1299 338 OFFCURVE",
"1224 439 OFFCURVE",
"1096 439 CURVE SMOOTH",
"934 439 OFFCURVE",
"785 273 OFFCURVE",
"660 82 CURVE",
"727 55 LINE",
"825 198 OFFCURVE",
"943 352 OFFCURVE",
"1080 352 CURVE SMOOTH",
"1169 352 OFFCURVE",
"1220 281 OFFCURVE",
"1220 211 CURVE SMOOTH",
"1220 129 OFFCURVE",
"1146 79 OFFCURVE",
"905 79 CURVE SMOOTH",
"709 79 OFFCURVE",
"666 97 OFFCURVE",
"650 151 CURVE SMOOTH",
"638 191 OFFCURVE",
"631 233 OFFCURVE",
"615 305 CURVE",
"543 288 LINE",
"560 208 OFFCURVE",
"576 139 OFFCURVE",
"576 76 CURVE SMOOTH",
"576 -59 OFFCURVE",
"498 -151 OFFCURVE",
"327 -151 CURVE SMOOTH",
"189 -151 OFFCURVE",
"125 -85 OFFCURVE",
"125 28 CURVE SMOOTH",
"125 86 OFFCURVE",
"135 137 OFFCURVE",
"152 198 CURVE",
"89 213 LINE",
"61 140 OFFCURVE",
"48 72 OFFCURVE",
"48 12 CURVE SMOOTH",
"48 -140 OFFCURVE",
"139 -237 OFFCURVE",
"318 -237 CURVE SMOOTH"
);
}
);
width = 1345;
},
{
anchors = (
{
name = bottom;
position = "{751, -112}";
},
{
name = bottom.dot;
position = "{751, -20}";
},
{
name = top;
position = "{566, 569}";
},
{
name = top.dot;
position = "{839, 499}";
}
);
layerId = "E5C955C8-F661-4960-B659-F2A3D2582D0D";
paths = (
{
closed = 1;
nodes = (
"421 -232 OFFCURVE",
"566 -127 OFFCURVE",
"551 113 CURVE",
"502 91 LINE",
"546 12 OFFCURVE",
"626 -10 OFFCURVE",
"746 -10 CURVE SMOOTH",
"973 -10 OFFCURVE",
"1070 88 OFFCURVE",
"1070 252 CURVE SMOOTH",
"1070 389 OFFCURVE",
"998 502 OFFCURVE",
"883 502 CURVE SMOOTH",
"760 502 OFFCURVE",
"632 378 OFFCURVE",
"528 142 CURVE",
"638 96 LINE",
"695 225 OFFCURVE",
"767 322 OFFCURVE",
"851 322 CURVE SMOOTH",
"905 322 OFFCURVE",
"934 280 OFFCURVE",
"934 237 CURVE SMOOTH",
"934 183 OFFCURVE",
"893 170 OFFCURVE",
"752 170 CURVE SMOOTH",
"582 170 OFFCURVE",
"554 181 OFFCURVE",
"546 231 CURVE SMOOTH",
"539 266 OFFCURVE",
"534 300 OFFCURVE",
"524 370 CURVE",
"400 347 LINE",
"412 266 OFFCURVE",
"423 177 OFFCURVE",
"423 108 CURVE SMOOTH",
"423 -10 OFFCURVE",
"371 -52 OFFCURVE",
"275 -52 CURVE SMOOTH",
"202 -52 OFFCURVE",
"161 -27 OFFCURVE",
"161 71 CURVE SMOOTH",
"161 123 OFFCURVE",
"167 167 OFFCURVE",
"180 236 CURVE",
"79 263 LINE",
"48 176 OFFCURVE",
"35 99 OFFCURVE",
"35 33 CURVE SMOOTH",
"35 -148 OFFCURVE",
"124 -232 OFFCURVE",
"262 -232 CURVE SMOOTH"
);
}
);
width = 1106;
},
{
anchors = (
{
name = bottom;
position = "{751, -112}";
},
{
name = bottom.dot;
position = "{751, -20}";
},
{
name = top;
position = "{566, 459}";
},
{
name = top.dot;
position = "{839, 439}";
}
);
layerId = "E67DA94D-AF90-4AFA-8684-14D1F5822449";
paths = (
{
closed = 1;
nodes = (
"424 -240 OFFCURVE",
"508 -109 OFFCURVE",
"500 92 CURVE",
"487 89 LINE",
"509 23 OFFCURVE",
"534 -5 OFFCURVE",
"702 -5 CURVE SMOOTH",
"930 -5 OFFCURVE",
"1019 63 OFFCURVE",
"1019 193 CURVE SMOOTH",
"1019 306 OFFCURVE",
"966 398 OFFCURVE",
"873 398 CURVE SMOOTH",
"738 398 OFFCURVE",
"625 205 OFFCURVE",
"528 43 CURVE",
"548 29 LINE",
"641 181 OFFCURVE",
"748 372 OFFCURVE",
"874 372 CURVE SMOOTH",
"956 372 OFFCURVE",
"995 282 OFFCURVE",
"995 194 CURVE SMOOTH",
"995 94 OFFCURVE",
"933 21 OFFCURVE",
"706 21 CURVE SMOOTH",
"558 21 OFFCURVE",
"518 43 OFFCURVE",
"503 100 CURVE SMOOTH",
"492 143 OFFCURVE",
"486 190 OFFCURVE",
"472 264 CURVE",
"448 258 LINE",
"464 179 OFFCURVE",
"477 114 OFFCURVE",
"477 56 CURVE SMOOTH",
"477 -91 OFFCURVE",
"415 -214 OFFCURVE",
"253 -214 CURVE SMOOTH",
"118 -214 OFFCURVE",
"64 -122 OFFCURVE",
"64 1 CURVE SMOOTH",
"64 62 OFFCURVE",
"73 118 OFFCURVE",
"88 175 CURVE",
"66 181 LINE",
"50 117 OFFCURVE",
"40 55 OFFCURVE",
"40 -2 CURVE SMOOTH",
"40 -135 OFFCURVE",
"102 -240 OFFCURVE",
"250 -240 CURVE SMOOTH"
);
}
);
width = 1056;
},
{
anchors = (
{
name = bottom;
position = "{751, -112}";
},
{
name = bottom.dot;
position = "{751, -20}";
},
{
name = top;
position = "{566, 502}";
},
{
name = top.dot;
position = "{839, 462}";
}
);
layerId = "2F00052B-4CEF-4C35-9869-AAD90889B4C2";
paths = (
{
closed = 1;
nodes = (
"422 -237 OFFCURVE",
"530 -116 OFFCURVE",
"520 100 CURVE",
"493 90 LINE",
"523 19 OFFCURVE",
"570 -7 OFFCURVE",
"718 -7 CURVE SMOOTH",
"946 -7 OFFCURVE",
"1039 73 OFFCURVE",
"1039 216 CURVE SMOOTH",
"1039 338 OFFCURVE",
"979 439 OFFCURVE",
"877 439 CURVE SMOOTH",
"747 439 OFFCURVE",
"628 273 OFFCURVE",
"528 82 CURVE",
"586 55 LINE",
"664 198 OFFCURVE",
"754 352 OFFCURVE",
"864 352 CURVE SMOOTH",
"935 352 OFFCURVE",
"967 281 OFFCURVE",
"967 211 CURVE SMOOTH",
"967 129 OFFCURVE",
"917 79 OFFCURVE",
"724 79 CURVE SMOOTH",
"567 79 OFFCURVE",
"533 97 OFFCURVE",
"520 151 CURVE SMOOTH",
"510 191 OFFCURVE",
"505 233 OFFCURVE",
"492 305 CURVE",
"434 288 LINE",
"448 208 OFFCURVE",
"461 139 OFFCURVE",
"461 76 CURVE SMOOTH",
"461 -59 OFFCURVE",
"398 -151 OFFCURVE",
"262 -151 CURVE SMOOTH",
"151 -151 OFFCURVE",
"100 -85 OFFCURVE",
"100 28 CURVE SMOOTH",
"100 86 OFFCURVE",
"108 137 OFFCURVE",
"122 198 CURVE",
"71 213 LINE",
"49 140 OFFCURVE",
"38 72 OFFCURVE",
"38 12 CURVE SMOOTH",
"38 -140 OFFCURVE",
"111 -237 OFFCURVE",
"254 -237 CURVE SMOOTH"
);
}
);
width = 1076;
}
);
leftMetricsKey = "noonghunna-ar";
unicode = 0635;
},
{
glyphname = "sad-ar.medi";
lastChange = "2020-02-26 20:51:00 +0000";
layers = (
{
background = {
paths = (
{
closed = 1;
nodes = (
"789 -55 OFFCURVE",
"911 43 OFFCURVE",
"911 207 CURVE SMOOTH",
"911 344 OFFCURVE",
"821 457 OFFCURVE",
"677 457 CURVE SMOOTH",
"523 457 OFFCURVE",
"363 333 OFFCURVE",
"233 97 CURVE",
"374 51 LINE",
"445 180 OFFCURVE",
"542 277 OFFCURVE",
"647 277 CURVE SMOOTH",
"714 277 OFFCURVE",
"747 235 OFFCURVE",
"747 192 CURVE SMOOTH",
"747 138 OFFCURVE",
"689 125 OFFCURVE",
"513 125 CURVE SMOOTH",
"301 125 OFFCURVE",
"263 137 OFFCURVE",
"255 186 CURVE SMOOTH",
"249 221 OFFCURVE",
"252 261 OFFCURVE",
"253 318 CURVE",
"111 311 LINE",
"94 129 OFFCURVE",
"61 125 OFFCURVE",
"-20 125 CURVE",
"-30 -55 LINE",
"83 -55 OFFCURVE",
"169 -29 OFFCURVE",
"218 92 CURVE",
"148 92 LINE",
"177 -32 OFFCURVE",
"327 -55 OFFCURVE",
"505 -55 CURVE SMOOTH"
);
},
{
closed = 1;
nodes = (
"1082 -55 OFFCURVE",
"1116 -15 OFFCURVE",
"1116 36 CURVE SMOOTH",
"1116 81 OFFCURVE",
"1090 125 OFFCURVE",
"1025 125 CURVE SMOOTH",
"940 125 OFFCURVE",
"887 131 OFFCURVE",
"837 148 CURVE",
"782 6 LINE",
"835 -40 OFFCURVE",
"930 -55 OFFCURVE",
"1016 -55 CURVE SMOOTH"
);
}
);
};
components = (
{
name = "sad-ar.init";
},
{
alignment = -1;
name = _part.instroke;
transform = "{1, 0, 0, 1, 769, 0}";
}
);
layerId = "A2AC38AA-6CC4-4B2B-B5AB-64A49772F2D3";
width = 952;
},
{
background = {
anchors = (
{
name = bottom;
position = "{540, -18}";
},
{
name = top;
position = "{672, 473}";
}
);
paths = (
{
closed = 1;
nodes = (
"819 -10 OFFCURVE",
"941 88 OFFCURVE",
"941 252 CURVE SMOOTH",
"941 389 OFFCURVE",
"851 502 OFFCURVE",
"707 502 CURVE SMOOTH",
"553 502 OFFCURVE",
"393 378 OFFCURVE",
"263 142 CURVE",
"404 96 LINE",
"475 225 OFFCURVE",
"572 322 OFFCURVE",
"677 322 CURVE SMOOTH",
"744 322 OFFCURVE",
"777 280 OFFCURVE",
"777 237 CURVE SMOOTH",
"777 183 OFFCURVE",
"719 170 OFFCURVE",
"543 170 CURVE SMOOTH",
"331 170 OFFCURVE",
"293 182 OFFCURVE",
"285 231 CURVE SMOOTH",
"279 266 OFFCURVE",
"282 306 OFFCURVE",
"283 363 CURVE",
"141 356 LINE",
"124 174 OFFCURVE",
"91 170 OFFCURVE",
"10 170 CURVE",
"0 -10 LINE",
"113 -10 OFFCURVE",
"199 16 OFFCURVE",
"248 137 CURVE",
"178 137 LINE",
"207 13 OFFCURVE",
"357 -10 OFFCURVE",
"535 -10 CURVE SMOOTH"
);
},
{
closed = 1;
nodes = (
"1112 -10 OFFCURVE",
"1146 30 OFFCURVE",
"1146 81 CURVE SMOOTH",
"1146 126 OFFCURVE",
"1120 170 OFFCURVE",
"1055 170 CURVE SMOOTH",
"970 170 OFFCURVE",
"917 176 OFFCURVE",
"867 193 CURVE",
"812 51 LINE",
"865 5 OFFCURVE",
"960 -10 OFFCURVE",
"1046 -10 CURVE SMOOTH"
);
}
);
};
components = (
{
name = "sad-ar.init";
},
{
alignment = -1;
name = _part.instroke;
transform = "{1, 0, 0, 1, 803, 0}";
}
);
layerId = "8594390A-478C-48BC-BAB2-0B8797A53DFB";
width = 1016;
},
{
components = (
{
alignment = -1;
name = "sad-ar.init";
},
{
alignment = -1;
name = _part.instroke;
transform = "{1, 0, 0, 1, 782, 0}";
}
);
layerId = "5223E25A-A738-4F2F-8413-8856B096DF64";
width = 977;
},
{
background = {
anchors = (
{
name = bottom;
position = "{540, -18}";
},
{
name = top;
position = "{672, 473}";
}
);
paths = (
{
closed = 1;
nodes = (
"819 -10 OFFCURVE",
"941 88 OFFCURVE",
"941 252 CURVE SMOOTH",
"941 389 OFFCURVE",
"851 502 OFFCURVE",
"707 502 CURVE SMOOTH",
"553 502 OFFCURVE",
"393 378 OFFCURVE",
"263 142 CURVE",
"404 96 LINE",
"475 225 OFFCURVE",
"572 322 OFFCURVE",
"677 322 CURVE SMOOTH",
"744 322 OFFCURVE",
"777 280 OFFCURVE",
"777 237 CURVE SMOOTH",
"777 183 OFFCURVE",
"719 170 OFFCURVE",
"543 170 CURVE SMOOTH",
"331 170 OFFCURVE",
"293 182 OFFCURVE",
"285 231 CURVE SMOOTH",
"279 266 OFFCURVE",
"282 306 OFFCURVE",
"283 363 CURVE",
"141 356 LINE",
"124 174 OFFCURVE",
"91 170 OFFCURVE",
"10 170 CURVE",
"0 -10 LINE",
"113 -10 OFFCURVE",
"199 16 OFFCURVE",
"248 137 CURVE",
"178 137 LINE",
"207 13 OFFCURVE",
"357 -10 OFFCURVE",
"535 -10 CURVE SMOOTH"
);
},
{
closed = 1;
nodes = (
"1112 -10 OFFCURVE",
"1146 30 OFFCURVE",
"1146 81 CURVE SMOOTH",
"1146 126 OFFCURVE",
"1120 170 OFFCURVE",
"1055 170 CURVE SMOOTH",
"970 170 OFFCURVE",
"917 176 OFFCURVE",
"867 193 CURVE",
"812 51 LINE",
"865 5 OFFCURVE",
"960 -10 OFFCURVE",
"1046 -10 CURVE SMOOTH"
);
}
);
};
components = (
{
name = "sad-ar.init";
},
{
alignment = -1;
name = _part.instroke;
transform = "{1, 0, 0, 1, 642, 0}";
}
);
layerId = "E5C955C8-F661-4960-B659-F2A3D2582D0D";
width = 812;
},
{
background = {
paths = (
{
closed = 1;
nodes = (
"789 -55 OFFCURVE",
"911 43 OFFCURVE",
"911 207 CURVE SMOOTH",
"911 344 OFFCURVE",
"821 457 OFFCURVE",
"677 457 CURVE SMOOTH",
"523 457 OFFCURVE",
"363 333 OFFCURVE",
"233 97 CURVE",
"374 51 LINE",
"445 180 OFFCURVE",
"542 277 OFFCURVE",
"647 277 CURVE SMOOTH",
"714 277 OFFCURVE",
"747 235 OFFCURVE",
"747 192 CURVE SMOOTH",
"747 138 OFFCURVE",
"689 125 OFFCURVE",
"513 125 CURVE SMOOTH",
"301 125 OFFCURVE",
"263 137 OFFCURVE",
"255 186 CURVE SMOOTH",
"249 221 OFFCURVE",
"252 261 OFFCURVE",
"253 318 CURVE",
"111 311 LINE",
"94 129 OFFCURVE",
"61 125 OFFCURVE",
"-20 125 CURVE",
"-30 -55 LINE",
"83 -55 OFFCURVE",
"169 -29 OFFCURVE",
"218 92 CURVE",
"148 92 LINE",
"177 -32 OFFCURVE",
"327 -55 OFFCURVE",
"505 -55 CURVE SMOOTH"
);
},
{
closed = 1;
nodes = (
"1082 -55 OFFCURVE",
"1116 -15 OFFCURVE",
"1116 36 CURVE SMOOTH",
"1116 81 OFFCURVE",
"1090 125 OFFCURVE",
"1025 125 CURVE SMOOTH",
"940 125 OFFCURVE",
"887 131 OFFCURVE",
"837 148 CURVE",
"782 6 LINE",
"835 -40 OFFCURVE",
"930 -55 OFFCURVE",
"1016 -55 CURVE SMOOTH"
);
}
);
};
components = (
{
name = "sad-ar.init";
},
{
alignment = -1;
name = _part.instroke;
transform = "{1, 0, 0, 1, 615, 0}";
}
);
layerId = "E67DA94D-AF90-4AFA-8684-14D1F5822449";
width = 761;
},
{
components = (
{
alignment = -1;
name = "sad-ar.init";
},
{
alignment = -1;
name = _part.instroke;
transform = "{1, 0, 0, 1, 626, 0}";
}
);
layerId = "2F00052B-4CEF-4C35-9869-AAD90889B4C2";
width = 782;
}
);
leftMetricsKey = "sad-ar.init";
rightMetricsKey = _part.instroke;
unicode = FEBC;
},
{
glyphname = "sad-ar.init";
lastChange = "2020-03-14 18:54:52 +0000";
layers = (
{
anchors = (
{
name = bottom;
position = "{499, -112}";
},
{
name = bottom.dot;
position = "{499, -20}";
},
{
name = top;
position = "{588, 566}";
},
{
name = top.dot;
position = "{609, 439}";
}
);
layerId = "A2AC38AA-6CC4-4B2B-B5AB-64A49772F2D3";
paths = (
{
closed = 1;
nodes = (
"124 -5 OFFCURVE",
"160 44 OFFCURVE",
"175 116 CURVE",
"162 114 LINE",
"188 34 OFFCURVE",
"221 -5 OFFCURVE",
"460 -5 CURVE SMOOTH",
"725 -5 OFFCURVE",
"837 63 OFFCURVE",
"837 193 CURVE SMOOTH",
"837 306 OFFCURVE",
"771 398 OFFCURVE",
"654 398 CURVE SMOOTH",
"486 398 OFFCURVE",
"344 205 OFFCURVE",
"223 43 CURVE",
"244 29 LINE",
"360 181 OFFCURVE",
"495 372 OFFCURVE",
"653 372 CURVE SMOOTH",
"756 372 OFFCURVE",
"812 282 OFFCURVE",
"812 194 CURVE SMOOTH",
"812 94 OFFCURVE",
"729 21 OFFCURVE",
"465 21 CURVE SMOOTH",
"270 21 OFFCURVE",
"221 40 OFFCURVE",
"195 94 CURVE SMOOTH",
"177 131 OFFCURVE",
"182 180 OFFCURVE",
"181 270 CURVE",
"158 269 LINE",
"163 59 OFFCURVE",
"122 21 OFFCURVE",
"4 21 CURVE",
"0 -5 LINE"
);
}
);
width = 883;
},
{
anchors = (
{
name = bottom;
position = "{560, -111}";
},
{
name = bottom.dot;
position = "{560, -20}";
},
{
name = top;
position = "{568, 626}";
},
{
name = top.dot;
position = "{646, 499}";
}
);
layerId = "8594390A-478C-48BC-BAB2-0B8797A53DFB";
paths = (
{
closed = 1;
nodes = (
"113 -10 OFFCURVE",
"199 16 OFFCURVE",
"248 137 CURVE",
"178 137 LINE",
"207 13 OFFCURVE",
"357 -10 OFFCURVE",
"535 -10 CURVE SMOOTH",
"819 -10 OFFCURVE",
"941 88 OFFCURVE",
"941 252 CURVE SMOOTH",
"941 389 OFFCURVE",
"851 502 OFFCURVE",
"707 502 CURVE SMOOTH",
"553 502 OFFCURVE",
"393 378 OFFCURVE",
"263 142 CURVE",
"401 96 LINE",
"472 225 OFFCURVE",
"562 322 OFFCURVE",
"667 322 CURVE SMOOTH",
"734 322 OFFCURVE",
"777 280 OFFCURVE",
"777 237 CURVE SMOOTH",
"777 183 OFFCURVE",
"719 170 OFFCURVE",
"543 170 CURVE SMOOTH",
"331 170 OFFCURVE",
"293 182 OFFCURVE",
"285 231 CURVE SMOOTH",
"279 266 OFFCURVE",
"282 306 OFFCURVE",
"283 363 CURVE",
"141 356 LINE",
"124 174 OFFCURVE",
"91 170 OFFCURVE",
"10 170 CURVE",
"0 -10 LINE"
);
}
);
width = 986;
},
{
anchors = (
{
name = bottom;
position = "{523, -112}";
},
{
name = bottom.dot;
position = "{523, -20}";
},
{
name = top;
position = "{580, 589}";
},
{
name = top.dot;
position = "{623, 462}";
}
);
layerId = "5223E25A-A738-4F2F-8413-8856B096DF64";
paths = (
{
closed = 1;
nodes = (
"120 -7 OFFCURVE",
"175 33 OFFCURVE",
"203 124 CURVE",
"168 123 LINE",
"195 26 OFFCURVE",
"274 -7 OFFCURVE",
"489 -7 CURVE SMOOTH",
"762 -7 OFFCURVE",
"878 73 OFFCURVE",
"878 216 CURVE SMOOTH",
"878 338 OFFCURVE",
"802 439 OFFCURVE",
"675 439 CURVE SMOOTH",
"512 439 OFFCURVE",
"363 273 OFFCURVE",
"239 82 CURVE",
"305 55 LINE",
"404 198 OFFCURVE",
"521 352 OFFCURVE",
"658 352 CURVE SMOOTH",
"747 352 OFFCURVE",
"798 281 OFFCURVE",
"798 211 CURVE SMOOTH",
"798 129 OFFCURVE",
"725 79 OFFCURVE",
"495 79 CURVE SMOOTH",
"294 79 OFFCURVE",
"249 95 OFFCURVE",
"230 147 CURVE SMOOTH",
"217 184 OFFCURVE",
"221 229 OFFCURVE",
"221 306 CURVE",
"151 303 LINE",
"148 104 OFFCURVE",
"110 79 OFFCURVE",
"6 79 CURVE",
"0 -7 LINE"
);
}
);
width = 924;
},
{
anchors = (
{
name = bottom;
position = "{448, -111}";
},
{
name = bottom.dot;
position = "{448, -20}";
},
{
name = top;
position = "{454, 626}";
},
{
name = top.dot;
position = "{517, 499}";
}
);
layerId = "E5C955C8-F661-4960-B659-F2A3D2582D0D";
paths = (
{
closed = 1;
nodes = (
"90 -10 OFFCURVE",
"159 16 OFFCURVE",
"198 137 CURVE",
"142 137 LINE",
"166 13 OFFCURVE",
"286 -10 OFFCURVE",
"428 -10 CURVE SMOOTH",
"655 -10 OFFCURVE",
"753 88 OFFCURVE",
"753 252 CURVE SMOOTH",
"753 389 OFFCURVE",
"681 502 OFFCURVE",
"566 502 CURVE SMOOTH",
"442 502 OFFCURVE",
"314 378 OFFCURVE",
"210 142 CURVE",
"321 96 LINE",
"378 225 OFFCURVE",
"450 322 OFFCURVE",
"534 322 CURVE SMOOTH",
"587 322 OFFCURVE",
"617 280 OFFCURVE",
"617 237 CURVE SMOOTH",
"617 183 OFFCURVE",
"575 170 OFFCURVE",
"434 170 CURVE SMOOTH",
"265 170 OFFCURVE",
"234 182 OFFCURVE",
"228 231 CURVE SMOOTH",
"223 266 OFFCURVE",
"224 306 OFFCURVE",
"226 363 CURVE",
"113 359 LINE",
"99 177 OFFCURVE",
"73 170 OFFCURVE",
"8 170 CURVE",
"0 -10 LINE"
);
}
);
width = 789;
},
{
anchors = (
{
name = bottom;
position = "{399, -112}";
},
{
name = bottom.dot;
position = "{399, -20}";
},
{
name = top;
position = "{470, 566}";
},
{
name = top.dot;
position = "{487, 439}";
}
);
layerId = "E67DA94D-AF90-4AFA-8684-14D1F5822449";
paths = (
{
closed = 1;
nodes = (
"99 -5 OFFCURVE",
"128 44 OFFCURVE",
"140 116 CURVE",
"130 114 LINE",
"150 34 OFFCURVE",
"177 -5 OFFCURVE",
"368 -5 CURVE SMOOTH",
"580 -5 OFFCURVE",
"670 63 OFFCURVE",
"670 193 CURVE SMOOTH",
"670 306 OFFCURVE",
"617 398 OFFCURVE",
"523 398 CURVE SMOOTH",
"389 398 OFFCURVE",
"275 205 OFFCURVE",
"178 43 CURVE",
"198 29 LINE",
"291 181 OFFCURVE",
"398 372 OFFCURVE",
"524 372 CURVE SMOOTH",
"607 372 OFFCURVE",
"646 282 OFFCURVE",
"646 194 CURVE SMOOTH",
"646 94 OFFCURVE",
"583 21 OFFCURVE",
"372 21 CURVE SMOOTH",
"216 21 OFFCURVE",
"180 40 OFFCURVE",
"159 94 CURVE SMOOTH",
"145 131 OFFCURVE",
"149 180 OFFCURVE",
"148 270 CURVE",
"124 269 LINE",
"128 59 OFFCURVE",
"98 21 OFFCURVE",
"3 21 CURVE",
"0 -5 LINE"
);
}
);
width = 707;
},
{
anchors = (
{
name = bottom;
position = "{418, -112}";
},
{
name = bottom.dot;
position = "{418, -20}";
},
{
name = top;
position = "{464, 589}";
},
{
name = top.dot;
position = "{498, 462}";
}
);
layerId = "2F00052B-4CEF-4C35-9869-AAD90889B4C2";
paths = (
{
closed = 1;
nodes = (
"96 -7 OFFCURVE",
"140 33 OFFCURVE",
"162 124 CURVE",
"134 123 LINE",
"156 26 OFFCURVE",
"219 -7 OFFCURVE",
"391 -7 CURVE SMOOTH",
"610 -7 OFFCURVE",
"702 73 OFFCURVE",
"702 216 CURVE SMOOTH",
"702 338 OFFCURVE",
"642 439 OFFCURVE",
"540 439 CURVE SMOOTH",
"410 439 OFFCURVE",
"290 273 OFFCURVE",
"191 82 CURVE",
"248 55 LINE",
"327 198 OFFCURVE",
"417 352 OFFCURVE",
"526 352 CURVE SMOOTH",
"598 352 OFFCURVE",
"630 281 OFFCURVE",
"630 211 CURVE SMOOTH",
"630 129 OFFCURVE",
"580 79 OFFCURVE",
"396 79 CURVE SMOOTH",
"235 79 OFFCURVE",
"199 95 OFFCURVE",
"184 147 CURVE SMOOTH",
"174 184 OFFCURVE",
"177 229 OFFCURVE",
"177 306 CURVE",
"121 303 LINE",
"118 104 OFFCURVE",
"88 79 OFFCURVE",
"5 79 CURVE",
"0 -7 LINE"
);
}
);
width = 739;
}
);
rightMetricsKey = "sad-ar";
unicode = FEBB;
},
{
glyphname = "tah-ar";
lastChange = "2020-03-14 18:55:08 +0000";
layers = (
{
anchors = (
{
name = bottom;
position = "{439, -112}";
},
{
name = bottom.dot;
position = "{439, -20}";
},
{
name = top;
position = "{578, 566}";
},
{
name = top.dot;
position = "{599, 439}";
}
);
layerId = "A2AC38AA-6CC4-4B2B-B5AB-64A49772F2D3";
paths = (
{
closed = 1;
nodes = (
"714 -5 OFFCURVE",
"811 70 OFFCURVE",
"811 193 CURVE SMOOTH",
"811 301 OFFCURVE",
"745 398 OFFCURVE",
"628 398 CURVE SMOOTH",
"460 398 OFFCURVE",
"295 175 OFFCURVE",
"184 13 CURVE",
"210 7 LINE",
"316 159 OFFCURVE",
"468 372 OFFCURVE",
"626 372 CURVE SMOOTH",
"730 372 OFFCURVE",
"786 282 OFFCURVE",
"786 194 CURVE SMOOTH",
"786 84 OFFCURVE",
"686 21 OFFCURVE",
"362 21 CURVE SMOOTH",
"251 21 OFFCURVE",
"129 25 OFFCURVE",
"33 32 CURVE",
"30 6 LINE",
"123 0 OFFCURVE",
"245 -5 OFFCURVE",
"355 -5 CURVE SMOOTH"
);
},
{
closed = 1;
nodes = (
"297 161 LINE",
"279 714 LINE",
"255 714 LINE",
"275 124 LINE"
);
}
);
width = 857;
},
{
anchors = (
{
name = bottom;
position = "{398, -111}";
},
{
name = bottom.dot;
position = "{397, -20}";
},
{
name = top;
position = "{585, 642}";
},
{
name = top.dot;
position = "{582, 494}";
}
);
layerId = "8594390A-478C-48BC-BAB2-0B8797A53DFB";
paths = (
{
closed = 1;
nodes = (
"709 -10 OFFCURVE",
"849 88 OFFCURVE",
"849 252 CURVE SMOOTH",
"849 389 OFFCURVE",
"759 502 OFFCURVE",
"615 502 CURVE SMOOTH",
"481 502 OFFCURVE",
"321 378 OFFCURVE",
"171 142 CURVE",
"302 96 LINE",
"373 225 OFFCURVE",
"470 322 OFFCURVE",
"575 322 CURVE SMOOTH",
"652 322 OFFCURVE",
"685 280 OFFCURVE",
"685 237 CURVE SMOOTH",
"685 183 OFFCURVE",
"609 170 OFFCURVE",
"423 170 CURVE SMOOTH",
"340 170 OFFCURVE",
"197 169 OFFCURVE",
"40 179 CURVE",
"30 3 LINE",
"151 -7 OFFCURVE",
"283 -10 OFFCURVE",
"405 -10 CURVE SMOOTH"
);
},
{
closed = 1;
nodes = (
"381 308 LINE",
"365 760 LINE",
"208 760 LINE",
"229 99 LINE"
);
}
);
width = 894;
},
{
anchors = (
{
name = bottom;
position = "{423, -112}";
},
{
name = bottom.dot;
position = "{423, -20}";
},
{
name = top;
position = "{581, 596}";
},
{
name = top.dot;
position = "{592, 460}";
}
);
layerId = "5223E25A-A738-4F2F-8413-8856B096DF64";
paths = (
{
closed = 1;
nodes = (
"712 -7 OFFCURVE",
"826 77 OFFCURVE",
"826 216 CURVE SMOOTH",
"826 335 OFFCURVE",
"750 439 OFFCURVE",
"623 439 CURVE SMOOTH",
"468 439 OFFCURVE",
"305 254 OFFCURVE",
"179 63 CURVE",
"246 42 LINE",
"338 185 OFFCURVE",
"469 352 OFFCURVE",
"606 352 CURVE SMOOTH",
"700 352 OFFCURVE",
"747 281 OFFCURVE",
"747 211 CURVE SMOOTH",
"747 123 OFFCURVE",
"656 79 OFFCURVE",
"386 79 CURVE SMOOTH",
"286 79 OFFCURVE",
"156 80 OFFCURVE",
"36 89 CURVE",
"30 5 LINE",
"134 -4 OFFCURVE",
"260 -7 OFFCURVE",
"375 -7 CURVE SMOOTH"
);
},
{
closed = 1;
nodes = (
"330 218 LINE",
"313 732 LINE",
"237 732 LINE",
"257 114 LINE"
);
}
);
width = 872;
},
{
anchors = (
{
name = bottom;
position = "{318, -111}";
},
{
name = bottom.dot;
position = "{318, -20}";
},
{
name = top;
position = "{468, 642}";
},
{
name = top.dot;
position = "{466, 494}";
}
);
background = {
paths = (
{
closed = 1;
nodes = (
"16 -10 OFFCURVE",
"85 16 OFFCURVE",
"124 137 CURVE",
"68 137 LINE",
"92 13 OFFCURVE",
"212 -10 OFFCURVE",
"354 -10 CURVE SMOOTH",
"581 -10 OFFCURVE",
"679 88 OFFCURVE",
"679 252 CURVE SMOOTH",
"679 389 OFFCURVE",
"607 502 OFFCURVE",
"492 502 CURVE SMOOTH",
"368 502 OFFCURVE",
"240 378 OFFCURVE",
"136 142 CURVE",
"247 96 LINE",
"304 225 OFFCURVE",
"376 322 OFFCURVE",
"460 322 CURVE SMOOTH",
"513 322 OFFCURVE",
"543 280 OFFCURVE",
"543 237 CURVE SMOOTH",
"543 183 OFFCURVE",
"501 170 OFFCURVE",
"360 170 CURVE SMOOTH",
"191 170 OFFCURVE",
"160 182 OFFCURVE",
"154 231 CURVE SMOOTH",
"150 266 OFFCURVE",
"150 306 OFFCURVE",
"152 363 CURVE",
"39 359 LINE",
"25 177 OFFCURVE",
"-1 170 OFFCURVE",
"-66 170 CURVE",
"-74 -10 LINE"
);
}
);
};
layerId = "E5C955C8-F661-4960-B659-F2A3D2582D0D";
paths = (
{
closed = 1;
nodes = (
"567 -10 OFFCURVE",
"679 88 OFFCURVE",
"679 252 CURVE SMOOTH",
"679 389 OFFCURVE",
"607 502 OFFCURVE",
"492 502 CURVE SMOOTH",
"385 502 OFFCURVE",
"257 378 OFFCURVE",
"137 142 CURVE",
"242 96 LINE",
"298 225 OFFCURVE",
"376 322 OFFCURVE",
"460 322 CURVE SMOOTH",
"513 322 OFFCURVE",
"543 280 OFFCURVE",
"543 237 CURVE SMOOTH",
"543 183 OFFCURVE",
"487 170 OFFCURVE",
"338 170 CURVE SMOOTH",
"272 170 OFFCURVE",
"158 169 OFFCURVE",
"32 179 CURVE",
"24 3 LINE",
"121 -7 OFFCURVE",
"226 -10 OFFCURVE",
"324 -10 CURVE SMOOTH"
);
},
{
closed = 1;
nodes = (
"305 308 LINE",
"292 760 LINE",
"166 760 LINE",
"183 99 LINE"
);
}
);
width = 715;
},
{
anchors = (
{
name = bottom;
position = "{351, -112}";
},
{
name = bottom.dot;
position = "{351, -20}";
},
{
name = top;
position = "{462, 566}";
},
{
name = top.dot;
position = "{479, 439}";
}
);
layerId = "E67DA94D-AF90-4AFA-8684-14D1F5822449";
paths = (
{
closed = 1;
nodes = (
"571 -5 OFFCURVE",
"649 70 OFFCURVE",
"649 193 CURVE SMOOTH",
"649 301 OFFCURVE",
"596 398 OFFCURVE",
"502 398 CURVE SMOOTH",
"368 398 OFFCURVE",
"236 175 OFFCURVE",
"147 13 CURVE",
"171 7 LINE",
"256 159 OFFCURVE",
"379 372 OFFCURVE",
"502 372 CURVE SMOOTH",
"585 372 OFFCURVE",
"625 282 OFFCURVE",
"625 194 CURVE SMOOTH",
"625 84 OFFCURVE",
"549 21 OFFCURVE",
"290 21 CURVE SMOOTH",
"201 21 OFFCURVE",
"103 25 OFFCURVE",
"26 32 CURVE",
"24 6 LINE",
"98 0 OFFCURVE",
"196 -5 OFFCURVE",
"284 -5 CURVE SMOOTH"
);
},
{
closed = 1;
nodes = (
"240 161 LINE",
"226 714 LINE",
"202 714 LINE",
"218 124 LINE"
);
}
);
width = 686;
},
{
anchors = (
{
name = bottom;
position = "{338, -112}";
},
{
name = bottom.dot;
position = "{338, -20}";
},
{
name = top;
position = "{465, 596}";
},
{
name = top.dot;
position = "{474, 460}";
}
);
layerId = "2F00052B-4CEF-4C35-9869-AAD90889B4C2";
paths = (
{
closed = 1;
nodes = (
"570 -7 OFFCURVE",
"661 77 OFFCURVE",
"661 216 CURVE SMOOTH",
"661 335 OFFCURVE",
"600 439 OFFCURVE",
"498 439 CURVE SMOOTH",
"374 439 OFFCURVE",
"244 254 OFFCURVE",
"143 63 CURVE",
"201 42 LINE",
"274 185 OFFCURVE",
"375 352 OFFCURVE",
"485 352 CURVE SMOOTH",
"560 352 OFFCURVE",
"589 281 OFFCURVE",
"589 211 CURVE SMOOTH",
"589 123 OFFCURVE",
"525 79 OFFCURVE",
"309 79 CURVE SMOOTH",
"229 79 OFFCURVE",
"125 80 OFFCURVE",
"29 89 CURVE",
"24 5 LINE",
"107 -4 OFFCURVE",
"208 -7 OFFCURVE",
"300 -7 CURVE SMOOTH"
);
},
{
closed = 1;
nodes = (
"264 218 LINE",
"250 732 LINE",
"190 732 LINE",
"206 114 LINE"
);
}
);
width = 698;
}
);
rightMetricsKey = "sad-ar";
unicode = 0637;
},
{
glyphname = "tah-ar.medi";
lastChange = "2020-02-26 20:50:46 +0000";
layers = (
{
background = {
paths = (
{
closed = 1;
nodes = (
"270 -10 LINE SMOOTH",
"584 -10 OFFCURVE",
"719 86 OFFCURVE",
"719 250 CURVE SMOOTH",
"719 397 OFFCURVE",
"629 502 OFFCURVE",
"485 502 CURVE SMOOTH",
"331 502 OFFCURVE",
"171 378 OFFCURVE",
"41 142 CURVE",
"178 96 LINE",
"244 225 OFFCURVE",
"331 322 OFFCURVE",
"448 322 CURVE SMOOTH",
"516 322 OFFCURVE",
"555 289 OFFCURVE",
"555 243 CURVE SMOOTH",
"555 186 OFFCURVE",
"465 170 OFFCURVE",
"283 170 CURVE SMOOTH",
"-10 170 LINE",
"-20 -10 LINE"
);
},
{
closed = 1;
nodes = (
"251 308 LINE",
"235 760 LINE",
"78 760 LINE",
"99 99 LINE"
);
},
{
closed = 1;
nodes = (
"840 -10 OFFCURVE",
"874 30 OFFCURVE",
"874 81 CURVE SMOOTH",
"874 126 OFFCURVE",
"848 170 OFFCURVE",
"783 170 CURVE SMOOTH",
"698 170 OFFCURVE",
"645 176 OFFCURVE",
"595 193 CURVE",
"540 71 LINE",
"583 25 OFFCURVE",
"648 -10 OFFCURVE",
"774 -10 CURVE SMOOTH"
);
}
);
};
components = (
{
name = "tah-ar.init";
},
{
alignment = -1;
name = _part.instroke;
transform = "{1, 0, 0, 1, 629, 0}";
}
);
layerId = "A2AC38AA-6CC4-4B2B-B5AB-64A49772F2D3";
width = 812;
},
{
background = {
anchors = (
{
name = bottom;
position = "{325, -4}";
},
{
name = top;
position = "{507, 486}";
}
);
paths = (
{
closed = 1;
nodes = (
"290 -10 LINE SMOOTH",
"604 -10 OFFCURVE",
"739 86 OFFCURVE",
"739 250 CURVE SMOOTH",
"739 397 OFFCURVE",
"649 502 OFFCURVE",
"505 502 CURVE SMOOTH",
"351 502 OFFCURVE",
"191 378 OFFCURVE",
"61 142 CURVE",
"198 96 LINE",
"264 225 OFFCURVE",
"351 322 OFFCURVE",
"468 322 CURVE SMOOTH",
"536 322 OFFCURVE",
"575 289 OFFCURVE",
"575 243 CURVE SMOOTH",
"575 186 OFFCURVE",
"485 170 OFFCURVE",
"303 170 CURVE SMOOTH",
"10 170 LINE",
"0 -10 LINE"
);
},
{
closed = 1;
nodes = (
"271 308 LINE",
"255 760 LINE",
"98 760 LINE",
"119 99 LINE"
);
},
{
closed = 1;
nodes = (
"860 -10 OFFCURVE",
"894 30 OFFCURVE",
"894 81 CURVE SMOOTH",
"894 126 OFFCURVE",
"868 170 OFFCURVE",
"803 170 CURVE SMOOTH",
"718 170 OFFCURVE",
"665 176 OFFCURVE",
"615 193 CURVE",
"560 71 LINE",
"603 25 OFFCURVE",
"668 -10 OFFCURVE",
"794 -10 CURVE SMOOTH"
);
}
);
};
components = (
{
name = "tah-ar.init";
},
{
alignment = -1;
name = _part.instroke;
transform = "{1, 0, 0, 1, 581, 0}";
}
);
layerId = "8594390A-478C-48BC-BAB2-0B8797A53DFB";
width = 794;
},
{
components = (
{
alignment = -1;
name = "tah-ar.init";
},
{
alignment = -1;
name = _part.instroke;
transform = "{1, 0, 0, 1, 610, 0}";
}
);
layerId = "5223E25A-A738-4F2F-8413-8856B096DF64";
width = 805;
},
{
background = {
anchors = (
{
name = bottom;
position = "{325, -4}";
},
{
name = top;
position = "{507, 486}";
}
);
paths = (
{
closed = 1;
nodes = (
"290 -10 LINE SMOOTH",
"604 -10 OFFCURVE",
"739 86 OFFCURVE",
"739 250 CURVE SMOOTH",
"739 397 OFFCURVE",
"649 502 OFFCURVE",
"505 502 CURVE SMOOTH",
"351 502 OFFCURVE",
"191 378 OFFCURVE",
"61 142 CURVE",
"198 96 LINE",
"264 225 OFFCURVE",
"351 322 OFFCURVE",
"468 322 CURVE SMOOTH",
"536 322 OFFCURVE",
"575 289 OFFCURVE",
"575 243 CURVE SMOOTH",
"575 186 OFFCURVE",
"485 170 OFFCURVE",
"303 170 CURVE SMOOTH",
"10 170 LINE",
"0 -10 LINE"
);
},
{
closed = 1;
nodes = (
"271 308 LINE",
"255 760 LINE",
"98 760 LINE",
"119 99 LINE"
);
},
{
closed = 1;
nodes = (
"860 -10 OFFCURVE",
"894 30 OFFCURVE",
"894 81 CURVE SMOOTH",
"894 126 OFFCURVE",
"868 170 OFFCURVE",
"803 170 CURVE SMOOTH",
"718 170 OFFCURVE",
"665 176 OFFCURVE",
"615 193 CURVE",
"560 71 LINE",
"603 25 OFFCURVE",
"668 -10 OFFCURVE",
"794 -10 CURVE SMOOTH"
);
}
);
};
components = (
{
name = "tah-ar.init";
},
{
alignment = -1;
name = _part.instroke;
transform = "{1, 0, 0, 1, 465, 0}";
}
);
layerId = "E5C955C8-F661-4960-B659-F2A3D2582D0D";
width = 635;
},
{
components = (
{
name = "tah-ar.init";
},
{
alignment = -1;
name = _part.instroke;
transform = "{1, 0, 0, 1, 503, 0}";
}
);
layerId = "E67DA94D-AF90-4AFA-8684-14D1F5822449";
width = 649;
},
{
components = (
{
alignment = -1;
name = "tah-ar.init";
},
{
alignment = -1;
name = _part.instroke;
transform = "{1, 0, 0, 1, 488, 0}";
}
);
layerId = "2F00052B-4CEF-4C35-9869-AAD90889B4C2";
width = 644;
}
);
leftMetricsKey = "tah-ar.init";
rightMetricsKey = _part.instroke;
unicode = FEC4;
},
{
glyphname = "tah-ar.init";
lastChange = "2020-03-14 18:55:22 +0000";
layers = (
{
anchors = (
{
name = bottom;
position = "{309, -112}";
},
{
name = bottom.dot;
position = "{309, -20}";
},
{
name = top;
position = "{448, 566}";
},
{
name = top.dot;
position = "{469, 439}";
}
);
background = {
anchors = (
{
name = bottom;
position = "{309, -112}";
},
{
name = bottom.dot;
position = "{309, -20}";
},
{
name = top;
position = "{448, 536}";
},
{
name = top.dot;
position = "{469, 439}";
}
);
paths = (
{
closed = 1;
nodes = (
"584 -5 OFFCURVE",
"681 70 OFFCURVE",
"681 193 CURVE SMOOTH",
"681 301 OFFCURVE",
"615 398 OFFCURVE",
"498 398 CURVE SMOOTH",
"330 398 OFFCURVE",
"165 175 OFFCURVE",
"54 13 CURVE",
"80 7 LINE",
"186 159 OFFCURVE",
"338 372 OFFCURVE",
"496 372 CURVE SMOOTH",
"600 372 OFFCURVE",
"656 282 OFFCURVE",
"656 194 CURVE SMOOTH",
"656 84 OFFCURVE",
"556 21 OFFCURVE",
"232 21 CURVE SMOOTH",
"121 21 OFFCURVE",
"-1 23 OFFCURVE",
"-97 32 CURVE",
"-100 6 LINE",
"-7 -2 OFFCURVE",
"115 -5 OFFCURVE",
"225 -5 CURVE SMOOTH"
);
},
{
closed = 1;
nodes = (
"168 161 LINE",
"150 714 LINE",
"125 714 LINE",
"145 124 LINE"
);
}
);
};
layerId = "A2AC38AA-6CC4-4B2B-B5AB-64A49772F2D3";
paths = (
{
closed = 1;
nodes = (
"305 -5 LINE SMOOTH",
"570 -5 OFFCURVE",
"681 63 OFFCURVE",
"681 193 CURVE SMOOTH",
"681 306 OFFCURVE",
"615 398 OFFCURVE",
"498 398 CURVE SMOOTH",
"330 398 OFFCURVE",
"165 175 OFFCURVE",
"54 13 CURVE",
"81 7 LINE",
"187 159 OFFCURVE",
"338 372 OFFCURVE",
"496 372 CURVE SMOOTH",
"599 372 OFFCURVE",
"656 282 OFFCURVE",
"656 194 CURVE SMOOTH",
"656 94 OFFCURVE",
"579 21 OFFCURVE",
"315 21 CURVE SMOOTH",
"4 21 LINE",
"0 -5 LINE"
);
},
{
closed = 1;
nodes = (
"167 156 LINE",
"149 714 LINE",
"125 714 LINE",
"145 124 LINE"
);
}
);
width = 727;
},
{
anchors = (
{
name = bottom;
position = "{288, -111}";
},
{
name = bottom.dot;
position = "{287, -20}";
},
{
name = top;
position = "{475, 642}";
},
{
name = top.dot;
position = "{472, 494}";
}
);
background = {
anchors = (
{
name = bottom;
position = "{288, -111}";
},
{
name = bottom.dot;
position = "{287, -20}";
},
{
name = top;
position = "{475, 612}";
},
{
name = top.dot;
position = "{472, 494}";
}
);
paths = (
{
closed = 1;
nodes = (
"599 -10 OFFCURVE",
"739 88 OFFCURVE",
"739 252 CURVE SMOOTH",
"739 389 OFFCURVE",
"649 502 OFFCURVE",
"505 502 CURVE SMOOTH",
"371 502 OFFCURVE",
"211 378 OFFCURVE",
"61 142 CURVE",
"192 96 LINE",
"263 225 OFFCURVE",
"360 322 OFFCURVE",
"465 322 CURVE SMOOTH",
"542 322 OFFCURVE",
"575 280 OFFCURVE",
"575 237 CURVE SMOOTH",
"575 183 OFFCURVE",
"499 170 OFFCURVE",
"313 170 CURVE SMOOTH",
"230 170 OFFCURVE",
"87 169 OFFCURVE",
"-70 179 CURVE",
"-80 3 LINE",
"41 -7 OFFCURVE",
"173 -10 OFFCURVE",
"295 -10 CURVE SMOOTH"
);
},
{
closed = 1;
nodes = (
"271 308 LINE",
"255 760 LINE",
"98 760 LINE",
"119 99 LINE"
);
}
);
};
layerId = "8594390A-478C-48BC-BAB2-0B8797A53DFB";
paths = (
{
closed = 1;
nodes = (
"290 -10 LINE SMOOTH",
"594 -10 OFFCURVE",
"739 88 OFFCURVE",
"739 252 CURVE SMOOTH",
"739 389 OFFCURVE",
"649 502 OFFCURVE",
"505 502 CURVE SMOOTH",
"371 502 OFFCURVE",
"211 378 OFFCURVE",
"61 142 CURVE",
"192 96 LINE",
"263 225 OFFCURVE",
"360 322 OFFCURVE",
"465 322 CURVE SMOOTH",
"542 322 OFFCURVE",
"575 280 OFFCURVE",
"575 237 CURVE SMOOTH",
"575 183 OFFCURVE",
"489 170 OFFCURVE",
"303 170 CURVE SMOOTH",
"10 170 LINE",
"0 -10 LINE"
);
},
{
closed = 1;
nodes = (
"271 308 LINE",
"255 760 LINE",
"98 760 LINE",
"119 99 LINE"
);
}
);
width = 784;
},
{
anchors = (
{
name = bottom;
position = "{301, -112}";
},
{
name = bottom.dot;
position = "{300, -20}";
},
{
name = top;
position = "{459, 596}";
},
{
name = top.dot;
position = "{470, 460}";
}
);
background = {
anchors = (
{
name = bottom;
position = "{301, -112}";
},
{
name = bottom.dot;
position = "{301, -20}";
},
{
name = top;
position = "{459, 566}";
},
{
name = top.dot;
position = "{470, 460}";
}
);
paths = (
{
closed = 1;
nodes = (
"590 -7 OFFCURVE",
"704 77 OFFCURVE",
"704 216 CURVE SMOOTH",
"704 335 OFFCURVE",
"628 439 OFFCURVE",
"501 439 CURVE SMOOTH",
"346 439 OFFCURVE",
"183 254 OFFCURVE",
"57 63 CURVE",
"124 42 LINE",
"216 185 OFFCURVE",
"357 352 OFFCURVE",
"484 352 CURVE SMOOTH",
"578 352 OFFCURVE",
"625 281 OFFCURVE",
"625 211 CURVE SMOOTH",
"625 123 OFFCURVE",
"534 79 OFFCURVE",
"264 79 CURVE SMOOTH",
"164 79 OFFCURVE",
"34 80 OFFCURVE",
"-86 89 CURVE",
"-92 5 LINE",
"12 -4 OFFCURVE",
"138 -7 OFFCURVE",
"253 -7 CURVE SMOOTH"
);
},
{
closed = 1;
nodes = (
"208 218 LINE",
"191 732 LINE",
"115 732 LINE",
"135 114 LINE"
);
}
);
};
layerId = "5223E25A-A738-4F2F-8413-8856B096DF64";
paths = (
{
closed = 1;
nodes = (
"299 -7 LINE SMOOTH",
"579 -7 OFFCURVE",
"704 73 OFFCURVE",
"704 216 CURVE SMOOTH",
"704 338 OFFCURVE",
"628 439 OFFCURVE",
"501 439 CURVE SMOOTH",
"346 439 OFFCURVE",
"183 254 OFFCURVE",
"57 63 CURVE",
"124 42 LINE",
"217 185 OFFCURVE",
"347 352 OFFCURVE",
"484 352 CURVE SMOOTH",
"577 352 OFFCURVE",
"624 281 OFFCURVE",
"624 211 CURVE SMOOTH",
"624 129 OFFCURVE",
"544 79 OFFCURVE",
"310 79 CURVE SMOOTH",
"6 79 LINE",
"0 -7 LINE"
);
},
{
closed = 1;
nodes = (
"208 215 LINE",
"191 732 LINE",
"114 732 LINE",
"135 114 LINE"
);
}
);
width = 750;
},
{
anchors = (
{
name = bottom;
position = "{230, -111}";
},
{
name = bottom.dot;
position = "{230, -20}";
},
{
name = top;
position = "{380, 642}";
},
{
name = top.dot;
position = "{378, 494}";
}
);
layerId = "E5C955C8-F661-4960-B659-F2A3D2582D0D";
paths = (
{
closed = 1;
nodes = (
"232 -10 LINE SMOOTH",
"479 -10 OFFCURVE",
"591 88 OFFCURVE",
"591 252 CURVE SMOOTH",
"591 389 OFFCURVE",
"519 502 OFFCURVE",
"404 502 CURVE SMOOTH",
"297 502 OFFCURVE",
"169 378 OFFCURVE",
"49 142 CURVE",
"154 96 LINE",
"210 225 OFFCURVE",
"288 322 OFFCURVE",
"372 322 CURVE SMOOTH",
"425 322 OFFCURVE",
"455 280 OFFCURVE",
"455 237 CURVE SMOOTH",
"455 183 OFFCURVE",
"391 170 OFFCURVE",
"242 170 CURVE SMOOTH",
"8 170 LINE",
"0 -10 LINE"
);
},
{
closed = 1;
nodes = (
"217 308 LINE",
"204 760 LINE",
"78 760 LINE",
"95 99 LINE"
);
}
);
width = 627;
},
{
anchors = (
{
name = bottom;
position = "{247, -112}";
},
{
name = bottom.dot;
position = "{247, -20}";
},
{
name = top;
position = "{358, 566}";
},
{
name = top.dot;
position = "{375, 439}";
}
);
layerId = "E67DA94D-AF90-4AFA-8684-14D1F5822449";
paths = (
{
closed = 1;
nodes = (
"244 -5 LINE SMOOTH",
"456 -5 OFFCURVE",
"545 63 OFFCURVE",
"545 193 CURVE SMOOTH",
"545 306 OFFCURVE",
"492 398 OFFCURVE",
"398 398 CURVE SMOOTH",
"264 398 OFFCURVE",
"132 175 OFFCURVE",
"43 13 CURVE",
"68 7 LINE",
"153 159 OFFCURVE",
"275 372 OFFCURVE",
"398 372 CURVE SMOOTH",
"480 372 OFFCURVE",
"521 282 OFFCURVE",
"521 194 CURVE SMOOTH",
"521 94 OFFCURVE",
"463 21 OFFCURVE",
"252 21 CURVE SMOOTH",
"3 21 LINE",
"0 -5 LINE"
);
},
{
closed = 1;
nodes = (
"136 156 LINE",
"122 714 LINE",
"98 714 LINE",
"114 124 LINE"
);
}
);
width = 582;
},
{
anchors = (
{
name = bottom;
position = "{241, -112}";
},
{
name = bottom.dot;
position = "{240, -20}";
},
{
name = top;
position = "{367, 596}";
},
{
name = top.dot;
position = "{376, 460}";
}
);
layerId = "2F00052B-4CEF-4C35-9869-AAD90889B4C2";
paths = (
{
closed = 1;
nodes = (
"239 -7 LINE SMOOTH",
"463 -7 OFFCURVE",
"563 73 OFFCURVE",
"563 216 CURVE SMOOTH",
"563 338 OFFCURVE",
"502 439 OFFCURVE",
"401 439 CURVE SMOOTH",
"277 439 OFFCURVE",
"146 254 OFFCURVE",
"46 63 CURVE",
"103 42 LINE",
"182 188 OFFCURVE",
"278 352 OFFCURVE",
"387 352 CURVE SMOOTH",
"462 352 OFFCURVE",
"491 281 OFFCURVE",
"491 211 CURVE SMOOTH",
"491 129 OFFCURVE",
"435 79 OFFCURVE",
"248 79 CURVE SMOOTH",
"5 79 LINE",
"0 -7 LINE"
);
},
{
closed = 1;
nodes = (
"166 215 LINE",
"153 732 LINE",
"91 732 LINE",
"108 114 LINE"
);
}
);
width = 600;
}
);
rightMetricsKey = "sad-ar";
unicode = FEC3;
},
